%TF.GenerationSoftware,KiCad,Pcbnew,(6.0.7)*%
%TF.CreationDate,2023-02-16T08:52:23+02:00*%
%TF.ProjectId,teensy_motor_controller,7465656e-7379-45f6-9d6f-746f725f636f,rev?*%
%TF.SameCoordinates,Original*%
%TF.FileFunction,Drillmap*%
%TF.FilePolarity,Positive*%
%FSLAX45Y45*%
G04 Gerber Fmt 4.5, Leading zero omitted, Abs format (unit mm)*
G04 Created by KiCad (PCBNEW (6.0.7)) date 2023-02-16 08:52:23*
%MOMM*%
%LPD*%
G01*
G04 APERTURE LIST*
%ADD10C,0.050000*%
%ADD11C,0.200000*%
%ADD12C,0.080000*%
%ADD13C,0.090000*%
%ADD14C,0.110000*%
%ADD15C,0.130000*%
%ADD16C,0.320000*%
G04 APERTURE END LIST*
D10*
X9906000Y-4826000D02*
X19558000Y-4826000D01*
X19558000Y-4826000D02*
X19558000Y-13970000D01*
X19558000Y-13970000D02*
X9906000Y-13970000D01*
X9906000Y-13970000D02*
X9906000Y-4826000D01*
D11*
D12*
X10120000Y-7961000D02*
X10200000Y-8041000D01*
X10200000Y-7961000D02*
X10120000Y-8041000D01*
X10120000Y-8342000D02*
X10200000Y-8422000D01*
X10200000Y-8342000D02*
X10120000Y-8422000D01*
X10120000Y-10882000D02*
X10200000Y-10962000D01*
X10200000Y-10882000D02*
X10120000Y-10962000D01*
X10120000Y-11263000D02*
X10200000Y-11343000D01*
X10200000Y-11263000D02*
X10120000Y-11343000D01*
X11644000Y-7961000D02*
X11724000Y-8041000D01*
X11724000Y-7961000D02*
X11644000Y-8041000D01*
X11644000Y-8342000D02*
X11724000Y-8422000D01*
X11724000Y-8342000D02*
X11644000Y-8422000D01*
X11644000Y-10882000D02*
X11724000Y-10962000D01*
X11724000Y-10882000D02*
X11644000Y-10962000D01*
X11644000Y-11263000D02*
X11724000Y-11343000D01*
X11724000Y-11263000D02*
X11644000Y-11343000D01*
X12914000Y-9358000D02*
X12994000Y-9438000D01*
X12994000Y-9358000D02*
X12914000Y-9438000D01*
X12914000Y-9866000D02*
X12994000Y-9946000D01*
X12994000Y-9866000D02*
X12914000Y-9946000D01*
X12914000Y-10374000D02*
X12994000Y-10454000D01*
X12994000Y-10374000D02*
X12914000Y-10454000D01*
X12914000Y-10882000D02*
X12994000Y-10962000D01*
X12994000Y-10882000D02*
X12914000Y-10962000D01*
X14438000Y-9358000D02*
X14518000Y-9438000D01*
X14518000Y-9358000D02*
X14438000Y-9438000D01*
X14438000Y-9866000D02*
X14518000Y-9946000D01*
X14518000Y-9866000D02*
X14438000Y-9946000D01*
X14438000Y-10374000D02*
X14518000Y-10454000D01*
X14518000Y-10374000D02*
X14438000Y-10454000D01*
X14438000Y-10882000D02*
X14518000Y-10962000D01*
X14518000Y-10882000D02*
X14438000Y-10962000D01*
D13*
X10713000Y-9144000D02*
G75*
G03*
X10713000Y-9144000I-45000J0D01*
G01*
X10713000Y-9398000D02*
G75*
G03*
X10713000Y-9398000I-45000J0D01*
G01*
X10713000Y-9906000D02*
G75*
G03*
X10713000Y-9906000I-45000J0D01*
G01*
X10713000Y-10160000D02*
G75*
G03*
X10713000Y-10160000I-45000J0D01*
G01*
X11729000Y-9144000D02*
G75*
G03*
X11729000Y-9144000I-45000J0D01*
G01*
X11729000Y-9398000D02*
G75*
G03*
X11729000Y-9398000I-45000J0D01*
G01*
X11729000Y-9906000D02*
G75*
G03*
X11729000Y-9906000I-45000J0D01*
G01*
X11729000Y-10160000D02*
G75*
G03*
X11729000Y-10160000I-45000J0D01*
G01*
D14*
X15875000Y-8835000D02*
X15875000Y-8945000D01*
X15820000Y-8890000D02*
X15930000Y-8890000D01*
X15875000Y-10359000D02*
X15875000Y-10469000D01*
X15820000Y-10414000D02*
X15930000Y-10414000D01*
X16129000Y-8835000D02*
X16129000Y-8945000D01*
X16074000Y-8890000D02*
X16184000Y-8890000D01*
X16129000Y-10359000D02*
X16129000Y-10469000D01*
X16074000Y-10414000D02*
X16184000Y-10414000D01*
X16383000Y-8835000D02*
X16383000Y-8945000D01*
X16328000Y-8890000D02*
X16438000Y-8890000D01*
X16383000Y-10359000D02*
X16383000Y-10469000D01*
X16328000Y-10414000D02*
X16438000Y-10414000D01*
X16637000Y-8835000D02*
X16637000Y-8945000D01*
X16582000Y-8890000D02*
X16692000Y-8890000D01*
X16637000Y-10359000D02*
X16637000Y-10469000D01*
X16582000Y-10414000D02*
X16692000Y-10414000D01*
X16891000Y-8835000D02*
X16891000Y-8945000D01*
X16836000Y-8890000D02*
X16946000Y-8890000D01*
X16891000Y-10359000D02*
X16891000Y-10469000D01*
X16836000Y-10414000D02*
X16946000Y-10414000D01*
X17145000Y-8835000D02*
X17145000Y-8945000D01*
X17090000Y-8890000D02*
X17200000Y-8890000D01*
X17145000Y-10359000D02*
X17145000Y-10469000D01*
X17090000Y-10414000D02*
X17200000Y-10414000D01*
X17399000Y-8835000D02*
X17399000Y-8945000D01*
X17344000Y-8890000D02*
X17454000Y-8890000D01*
X17399000Y-10359000D02*
X17399000Y-10469000D01*
X17344000Y-10414000D02*
X17454000Y-10414000D01*
X17653000Y-8835000D02*
X17653000Y-8945000D01*
X17598000Y-8890000D02*
X17708000Y-8890000D01*
X17653000Y-10359000D02*
X17653000Y-10469000D01*
X17598000Y-10414000D02*
X17708000Y-10414000D01*
X17907000Y-8835000D02*
X17907000Y-8945000D01*
X17852000Y-8890000D02*
X17962000Y-8890000D01*
X17907000Y-10359000D02*
X17907000Y-10469000D01*
X17852000Y-10414000D02*
X17962000Y-10414000D01*
X18161000Y-8835000D02*
X18161000Y-8945000D01*
X18106000Y-8890000D02*
X18216000Y-8890000D01*
X18161000Y-10359000D02*
X18161000Y-10469000D01*
X18106000Y-10414000D02*
X18216000Y-10414000D01*
X18415000Y-8835000D02*
X18415000Y-8945000D01*
X18360000Y-8890000D02*
X18470000Y-8890000D01*
X18415000Y-10359000D02*
X18415000Y-10469000D01*
X18360000Y-10414000D02*
X18470000Y-10414000D01*
X18669000Y-8835000D02*
X18669000Y-8945000D01*
X18614000Y-8890000D02*
X18724000Y-8890000D01*
X18669000Y-10359000D02*
X18669000Y-10469000D01*
X18614000Y-10414000D02*
X18724000Y-10414000D01*
X18923000Y-8835000D02*
X18923000Y-8945000D01*
X18868000Y-8890000D02*
X18978000Y-8890000D01*
X18923000Y-10359000D02*
X18923000Y-10469000D01*
X18868000Y-10414000D02*
X18978000Y-10414000D01*
X19177000Y-8835000D02*
X19177000Y-8945000D01*
X19122000Y-8890000D02*
X19232000Y-8890000D01*
X19177000Y-10359000D02*
X19177000Y-10469000D01*
X19122000Y-10414000D02*
X19232000Y-10414000D01*
D15*
X11511462Y-5760962D02*
X11511462Y-5669038D01*
X11419538Y-5669038D01*
X11419538Y-5760962D01*
X11511462Y-5760962D01*
X12019462Y-5760962D02*
X12019462Y-5669038D01*
X11927538Y-5669038D01*
X11927538Y-5760962D01*
X12019462Y-5760962D01*
X12527462Y-5760962D02*
X12527462Y-5669038D01*
X12435538Y-5669038D01*
X12435538Y-5760962D01*
X12527462Y-5760962D01*
X12745962Y-13253962D02*
X12745962Y-13162038D01*
X12654038Y-13162038D01*
X12654038Y-13253962D01*
X12745962Y-13253962D01*
X13035462Y-5760962D02*
X13035462Y-5669038D01*
X12943538Y-5669038D01*
X12943538Y-5760962D01*
X13035462Y-5760962D01*
X13253962Y-13253962D02*
X13253962Y-13162038D01*
X13162038Y-13162038D01*
X13162038Y-13253962D01*
X13253962Y-13253962D01*
X13543462Y-5760962D02*
X13543462Y-5669038D01*
X13451538Y-5669038D01*
X13451538Y-5760962D01*
X13543462Y-5760962D01*
X13761962Y-13253962D02*
X13761962Y-13162038D01*
X13670038Y-13162038D01*
X13670038Y-13253962D01*
X13761962Y-13253962D01*
X14051462Y-5760962D02*
X14051462Y-5669038D01*
X13959538Y-5669038D01*
X13959538Y-5760962D01*
X14051462Y-5760962D01*
X14269962Y-13253962D02*
X14269962Y-13162038D01*
X14178038Y-13162038D01*
X14178038Y-13253962D01*
X14269962Y-13253962D01*
X14559462Y-5760962D02*
X14559462Y-5669038D01*
X14467538Y-5669038D01*
X14467538Y-5760962D01*
X14559462Y-5760962D01*
X14777962Y-13253962D02*
X14777962Y-13162038D01*
X14686038Y-13162038D01*
X14686038Y-13253962D01*
X14777962Y-13253962D01*
X15067462Y-5760962D02*
X15067462Y-5669038D01*
X14975538Y-5669038D01*
X14975538Y-5760962D01*
X15067462Y-5760962D01*
X15285962Y-13253962D02*
X15285962Y-13162038D01*
X15194038Y-13162038D01*
X15194038Y-13253962D01*
X15285962Y-13253962D01*
X15575462Y-5760962D02*
X15575462Y-5669038D01*
X15483538Y-5669038D01*
X15483538Y-5760962D01*
X15575462Y-5760962D01*
X16083462Y-5760962D02*
X16083462Y-5669038D01*
X15991538Y-5669038D01*
X15991538Y-5760962D01*
X16083462Y-5760962D01*
X16591462Y-5760962D02*
X16591462Y-5669038D01*
X16499538Y-5669038D01*
X16499538Y-5760962D01*
X16591462Y-5760962D01*
X17099462Y-5760962D02*
X17099462Y-5669038D01*
X17007538Y-5669038D01*
X17007538Y-5760962D01*
X17099462Y-5760962D01*
X17607462Y-5760962D02*
X17607462Y-5669038D01*
X17515538Y-5669038D01*
X17515538Y-5760962D01*
X17607462Y-5760962D01*
X18115462Y-5760962D02*
X18115462Y-5669038D01*
X18023538Y-5669038D01*
X18023538Y-5760962D01*
X18115462Y-5760962D01*
D16*
X10414000Y-5875000D02*
X10574000Y-5715000D01*
X10414000Y-5555000D01*
X10254000Y-5715000D01*
X10414000Y-5875000D01*
X10414000Y-13368906D02*
X10574000Y-13208906D01*
X10414000Y-13048906D01*
X10254000Y-13208906D01*
X10414000Y-13368906D01*
X19050000Y-5875000D02*
X19210000Y-5715000D01*
X19050000Y-5555000D01*
X18890000Y-5715000D01*
X19050000Y-5875000D01*
X19050000Y-13368000D02*
X19210000Y-13208000D01*
X19050000Y-13048000D01*
X18890000Y-13208000D01*
X19050000Y-13368000D01*
D11*
X10161119Y-14282976D02*
X10161119Y-14082976D01*
X10208738Y-14082976D01*
X10237310Y-14092500D01*
X10256357Y-14111548D01*
X10265881Y-14130595D01*
X10275405Y-14168690D01*
X10275405Y-14197262D01*
X10265881Y-14235357D01*
X10256357Y-14254405D01*
X10237310Y-14273452D01*
X10208738Y-14282976D01*
X10161119Y-14282976D01*
X10361119Y-14282976D02*
X10361119Y-14149643D01*
X10361119Y-14187738D02*
X10370643Y-14168690D01*
X10380167Y-14159167D01*
X10399214Y-14149643D01*
X10418262Y-14149643D01*
X10484929Y-14282976D02*
X10484929Y-14149643D01*
X10484929Y-14082976D02*
X10475405Y-14092500D01*
X10484929Y-14102024D01*
X10494452Y-14092500D01*
X10484929Y-14082976D01*
X10484929Y-14102024D01*
X10608738Y-14282976D02*
X10589690Y-14273452D01*
X10580167Y-14254405D01*
X10580167Y-14082976D01*
X10713500Y-14282976D02*
X10694452Y-14273452D01*
X10684929Y-14254405D01*
X10684929Y-14082976D01*
X10942071Y-14282976D02*
X10942071Y-14082976D01*
X11008738Y-14225833D01*
X11075405Y-14082976D01*
X11075405Y-14282976D01*
X11256357Y-14282976D02*
X11256357Y-14178214D01*
X11246833Y-14159167D01*
X11227786Y-14149643D01*
X11189690Y-14149643D01*
X11170643Y-14159167D01*
X11256357Y-14273452D02*
X11237309Y-14282976D01*
X11189690Y-14282976D01*
X11170643Y-14273452D01*
X11161119Y-14254405D01*
X11161119Y-14235357D01*
X11170643Y-14216309D01*
X11189690Y-14206786D01*
X11237309Y-14206786D01*
X11256357Y-14197262D01*
X11351595Y-14149643D02*
X11351595Y-14349643D01*
X11351595Y-14159167D02*
X11370643Y-14149643D01*
X11408738Y-14149643D01*
X11427786Y-14159167D01*
X11437309Y-14168690D01*
X11446833Y-14187738D01*
X11446833Y-14244881D01*
X11437309Y-14263928D01*
X11427786Y-14273452D01*
X11408738Y-14282976D01*
X11370643Y-14282976D01*
X11351595Y-14273452D01*
X11532548Y-14263928D02*
X11542071Y-14273452D01*
X11532548Y-14282976D01*
X11523024Y-14273452D01*
X11532548Y-14263928D01*
X11532548Y-14282976D01*
X11532548Y-14159167D02*
X11542071Y-14168690D01*
X11532548Y-14178214D01*
X11523024Y-14168690D01*
X11532548Y-14159167D01*
X11532548Y-14178214D01*
D12*
X9823500Y-14572500D02*
X9903500Y-14652500D01*
X9903500Y-14572500D02*
X9823500Y-14652500D01*
D11*
X10199214Y-14502976D02*
X10218262Y-14502976D01*
X10237310Y-14512500D01*
X10246833Y-14522024D01*
X10256357Y-14541071D01*
X10265881Y-14579167D01*
X10265881Y-14626786D01*
X10256357Y-14664881D01*
X10246833Y-14683928D01*
X10237310Y-14693452D01*
X10218262Y-14702976D01*
X10199214Y-14702976D01*
X10180167Y-14693452D01*
X10170643Y-14683928D01*
X10161119Y-14664881D01*
X10151595Y-14626786D01*
X10151595Y-14579167D01*
X10161119Y-14541071D01*
X10170643Y-14522024D01*
X10180167Y-14512500D01*
X10199214Y-14502976D01*
X10351595Y-14683928D02*
X10361119Y-14693452D01*
X10351595Y-14702976D01*
X10342071Y-14693452D01*
X10351595Y-14683928D01*
X10351595Y-14702976D01*
X10475405Y-14588690D02*
X10456357Y-14579167D01*
X10446833Y-14569643D01*
X10437310Y-14550595D01*
X10437310Y-14541071D01*
X10446833Y-14522024D01*
X10456357Y-14512500D01*
X10475405Y-14502976D01*
X10513500Y-14502976D01*
X10532548Y-14512500D01*
X10542071Y-14522024D01*
X10551595Y-14541071D01*
X10551595Y-14550595D01*
X10542071Y-14569643D01*
X10532548Y-14579167D01*
X10513500Y-14588690D01*
X10475405Y-14588690D01*
X10456357Y-14598214D01*
X10446833Y-14607738D01*
X10437310Y-14626786D01*
X10437310Y-14664881D01*
X10446833Y-14683928D01*
X10456357Y-14693452D01*
X10475405Y-14702976D01*
X10513500Y-14702976D01*
X10532548Y-14693452D01*
X10542071Y-14683928D01*
X10551595Y-14664881D01*
X10551595Y-14626786D01*
X10542071Y-14607738D01*
X10532548Y-14598214D01*
X10513500Y-14588690D01*
X10675405Y-14502976D02*
X10694452Y-14502976D01*
X10713500Y-14512500D01*
X10723024Y-14522024D01*
X10732548Y-14541071D01*
X10742071Y-14579167D01*
X10742071Y-14626786D01*
X10732548Y-14664881D01*
X10723024Y-14683928D01*
X10713500Y-14693452D01*
X10694452Y-14702976D01*
X10675405Y-14702976D01*
X10656357Y-14693452D01*
X10646833Y-14683928D01*
X10637310Y-14664881D01*
X10627786Y-14626786D01*
X10627786Y-14579167D01*
X10637310Y-14541071D01*
X10646833Y-14522024D01*
X10656357Y-14512500D01*
X10675405Y-14502976D01*
X10865881Y-14502976D02*
X10884929Y-14502976D01*
X10903976Y-14512500D01*
X10913500Y-14522024D01*
X10923024Y-14541071D01*
X10932548Y-14579167D01*
X10932548Y-14626786D01*
X10923024Y-14664881D01*
X10913500Y-14683928D01*
X10903976Y-14693452D01*
X10884929Y-14702976D01*
X10865881Y-14702976D01*
X10846833Y-14693452D01*
X10837310Y-14683928D01*
X10827786Y-14664881D01*
X10818262Y-14626786D01*
X10818262Y-14579167D01*
X10827786Y-14541071D01*
X10837310Y-14522024D01*
X10846833Y-14512500D01*
X10865881Y-14502976D01*
X11018262Y-14702976D02*
X11018262Y-14569643D01*
X11018262Y-14588690D02*
X11027786Y-14579167D01*
X11046833Y-14569643D01*
X11075405Y-14569643D01*
X11094452Y-14579167D01*
X11103976Y-14598214D01*
X11103976Y-14702976D01*
X11103976Y-14598214D02*
X11113500Y-14579167D01*
X11132548Y-14569643D01*
X11161119Y-14569643D01*
X11180167Y-14579167D01*
X11189690Y-14598214D01*
X11189690Y-14702976D01*
X11284928Y-14702976D02*
X11284928Y-14569643D01*
X11284928Y-14588690D02*
X11294452Y-14579167D01*
X11313500Y-14569643D01*
X11342071Y-14569643D01*
X11361119Y-14579167D01*
X11370643Y-14598214D01*
X11370643Y-14702976D01*
X11370643Y-14598214D02*
X11380167Y-14579167D01*
X11399214Y-14569643D01*
X11427786Y-14569643D01*
X11446833Y-14579167D01*
X11456357Y-14598214D01*
X11456357Y-14702976D01*
X11846833Y-14493452D02*
X11675405Y-14750595D01*
X12103976Y-14502976D02*
X12123024Y-14502976D01*
X12142071Y-14512500D01*
X12151595Y-14522024D01*
X12161119Y-14541071D01*
X12170643Y-14579167D01*
X12170643Y-14626786D01*
X12161119Y-14664881D01*
X12151595Y-14683928D01*
X12142071Y-14693452D01*
X12123024Y-14702976D01*
X12103976Y-14702976D01*
X12084928Y-14693452D01*
X12075405Y-14683928D01*
X12065881Y-14664881D01*
X12056357Y-14626786D01*
X12056357Y-14579167D01*
X12065881Y-14541071D01*
X12075405Y-14522024D01*
X12084928Y-14512500D01*
X12103976Y-14502976D01*
X12256357Y-14683928D02*
X12265881Y-14693452D01*
X12256357Y-14702976D01*
X12246833Y-14693452D01*
X12256357Y-14683928D01*
X12256357Y-14702976D01*
X12389690Y-14502976D02*
X12408738Y-14502976D01*
X12427786Y-14512500D01*
X12437309Y-14522024D01*
X12446833Y-14541071D01*
X12456357Y-14579167D01*
X12456357Y-14626786D01*
X12446833Y-14664881D01*
X12437309Y-14683928D01*
X12427786Y-14693452D01*
X12408738Y-14702976D01*
X12389690Y-14702976D01*
X12370643Y-14693452D01*
X12361119Y-14683928D01*
X12351595Y-14664881D01*
X12342071Y-14626786D01*
X12342071Y-14579167D01*
X12351595Y-14541071D01*
X12361119Y-14522024D01*
X12370643Y-14512500D01*
X12389690Y-14502976D01*
X12523024Y-14502976D02*
X12646833Y-14502976D01*
X12580167Y-14579167D01*
X12608738Y-14579167D01*
X12627786Y-14588690D01*
X12637309Y-14598214D01*
X12646833Y-14617262D01*
X12646833Y-14664881D01*
X12637309Y-14683928D01*
X12627786Y-14693452D01*
X12608738Y-14702976D01*
X12551595Y-14702976D01*
X12532548Y-14693452D01*
X12523024Y-14683928D01*
X12837309Y-14702976D02*
X12723024Y-14702976D01*
X12780167Y-14702976D02*
X12780167Y-14502976D01*
X12761119Y-14531548D01*
X12742071Y-14550595D01*
X12723024Y-14560119D01*
X13018262Y-14502976D02*
X12923024Y-14502976D01*
X12913500Y-14598214D01*
X12923024Y-14588690D01*
X12942071Y-14579167D01*
X12989690Y-14579167D01*
X13008738Y-14588690D01*
X13018262Y-14598214D01*
X13027786Y-14617262D01*
X13027786Y-14664881D01*
X13018262Y-14683928D01*
X13008738Y-14693452D01*
X12989690Y-14702976D01*
X12942071Y-14702976D01*
X12923024Y-14693452D01*
X12913500Y-14683928D01*
X13103976Y-14502976D02*
X13103976Y-14541071D01*
X13180167Y-14502976D02*
X13180167Y-14541071D01*
X13475405Y-14779167D02*
X13465881Y-14769643D01*
X13446833Y-14741071D01*
X13437309Y-14722024D01*
X13427786Y-14693452D01*
X13418262Y-14645833D01*
X13418262Y-14607738D01*
X13427786Y-14560119D01*
X13437309Y-14531548D01*
X13446833Y-14512500D01*
X13465881Y-14483928D01*
X13475405Y-14474405D01*
X13656357Y-14702976D02*
X13542071Y-14702976D01*
X13599214Y-14702976D02*
X13599214Y-14502976D01*
X13580167Y-14531548D01*
X13561119Y-14550595D01*
X13542071Y-14560119D01*
X13827786Y-14502976D02*
X13789690Y-14502976D01*
X13770643Y-14512500D01*
X13761119Y-14522024D01*
X13742071Y-14550595D01*
X13732548Y-14588690D01*
X13732548Y-14664881D01*
X13742071Y-14683928D01*
X13751595Y-14693452D01*
X13770643Y-14702976D01*
X13808738Y-14702976D01*
X13827786Y-14693452D01*
X13837309Y-14683928D01*
X13846833Y-14664881D01*
X13846833Y-14617262D01*
X13837309Y-14598214D01*
X13827786Y-14588690D01*
X13808738Y-14579167D01*
X13770643Y-14579167D01*
X13751595Y-14588690D01*
X13742071Y-14598214D01*
X13732548Y-14617262D01*
X14084928Y-14702976D02*
X14084928Y-14502976D01*
X14170643Y-14702976D02*
X14170643Y-14598214D01*
X14161119Y-14579167D01*
X14142071Y-14569643D01*
X14113500Y-14569643D01*
X14094452Y-14579167D01*
X14084928Y-14588690D01*
X14294452Y-14702976D02*
X14275405Y-14693452D01*
X14265881Y-14683928D01*
X14256357Y-14664881D01*
X14256357Y-14607738D01*
X14265881Y-14588690D01*
X14275405Y-14579167D01*
X14294452Y-14569643D01*
X14323024Y-14569643D01*
X14342071Y-14579167D01*
X14351595Y-14588690D01*
X14361119Y-14607738D01*
X14361119Y-14664881D01*
X14351595Y-14683928D01*
X14342071Y-14693452D01*
X14323024Y-14702976D01*
X14294452Y-14702976D01*
X14475405Y-14702976D02*
X14456357Y-14693452D01*
X14446833Y-14674405D01*
X14446833Y-14502976D01*
X14627786Y-14693452D02*
X14608738Y-14702976D01*
X14570643Y-14702976D01*
X14551595Y-14693452D01*
X14542071Y-14674405D01*
X14542071Y-14598214D01*
X14551595Y-14579167D01*
X14570643Y-14569643D01*
X14608738Y-14569643D01*
X14627786Y-14579167D01*
X14637309Y-14598214D01*
X14637309Y-14617262D01*
X14542071Y-14636309D01*
X14713500Y-14693452D02*
X14732548Y-14702976D01*
X14770643Y-14702976D01*
X14789690Y-14693452D01*
X14799214Y-14674405D01*
X14799214Y-14664881D01*
X14789690Y-14645833D01*
X14770643Y-14636309D01*
X14742071Y-14636309D01*
X14723024Y-14626786D01*
X14713500Y-14607738D01*
X14713500Y-14598214D01*
X14723024Y-14579167D01*
X14742071Y-14569643D01*
X14770643Y-14569643D01*
X14789690Y-14579167D01*
X14865881Y-14779167D02*
X14875405Y-14769643D01*
X14894452Y-14741071D01*
X14903976Y-14722024D01*
X14913500Y-14693452D01*
X14923024Y-14645833D01*
X14923024Y-14607738D01*
X14913500Y-14560119D01*
X14903976Y-14531548D01*
X14894452Y-14512500D01*
X14875405Y-14483928D01*
X14865881Y-14474405D01*
D13*
X9903500Y-14876500D02*
G75*
G03*
X9903500Y-14876500I-45000J0D01*
G01*
D11*
X10199214Y-14766976D02*
X10218262Y-14766976D01*
X10237310Y-14776500D01*
X10246833Y-14786024D01*
X10256357Y-14805071D01*
X10265881Y-14843167D01*
X10265881Y-14890786D01*
X10256357Y-14928881D01*
X10246833Y-14947928D01*
X10237310Y-14957452D01*
X10218262Y-14966976D01*
X10199214Y-14966976D01*
X10180167Y-14957452D01*
X10170643Y-14947928D01*
X10161119Y-14928881D01*
X10151595Y-14890786D01*
X10151595Y-14843167D01*
X10161119Y-14805071D01*
X10170643Y-14786024D01*
X10180167Y-14776500D01*
X10199214Y-14766976D01*
X10351595Y-14947928D02*
X10361119Y-14957452D01*
X10351595Y-14966976D01*
X10342071Y-14957452D01*
X10351595Y-14947928D01*
X10351595Y-14966976D01*
X10456357Y-14966976D02*
X10494452Y-14966976D01*
X10513500Y-14957452D01*
X10523024Y-14947928D01*
X10542071Y-14919357D01*
X10551595Y-14881262D01*
X10551595Y-14805071D01*
X10542071Y-14786024D01*
X10532548Y-14776500D01*
X10513500Y-14766976D01*
X10475405Y-14766976D01*
X10456357Y-14776500D01*
X10446833Y-14786024D01*
X10437310Y-14805071D01*
X10437310Y-14852690D01*
X10446833Y-14871738D01*
X10456357Y-14881262D01*
X10475405Y-14890786D01*
X10513500Y-14890786D01*
X10532548Y-14881262D01*
X10542071Y-14871738D01*
X10551595Y-14852690D01*
X10675405Y-14766976D02*
X10694452Y-14766976D01*
X10713500Y-14776500D01*
X10723024Y-14786024D01*
X10732548Y-14805071D01*
X10742071Y-14843167D01*
X10742071Y-14890786D01*
X10732548Y-14928881D01*
X10723024Y-14947928D01*
X10713500Y-14957452D01*
X10694452Y-14966976D01*
X10675405Y-14966976D01*
X10656357Y-14957452D01*
X10646833Y-14947928D01*
X10637310Y-14928881D01*
X10627786Y-14890786D01*
X10627786Y-14843167D01*
X10637310Y-14805071D01*
X10646833Y-14786024D01*
X10656357Y-14776500D01*
X10675405Y-14766976D01*
X10865881Y-14766976D02*
X10884929Y-14766976D01*
X10903976Y-14776500D01*
X10913500Y-14786024D01*
X10923024Y-14805071D01*
X10932548Y-14843167D01*
X10932548Y-14890786D01*
X10923024Y-14928881D01*
X10913500Y-14947928D01*
X10903976Y-14957452D01*
X10884929Y-14966976D01*
X10865881Y-14966976D01*
X10846833Y-14957452D01*
X10837310Y-14947928D01*
X10827786Y-14928881D01*
X10818262Y-14890786D01*
X10818262Y-14843167D01*
X10827786Y-14805071D01*
X10837310Y-14786024D01*
X10846833Y-14776500D01*
X10865881Y-14766976D01*
X11018262Y-14966976D02*
X11018262Y-14833643D01*
X11018262Y-14852690D02*
X11027786Y-14843167D01*
X11046833Y-14833643D01*
X11075405Y-14833643D01*
X11094452Y-14843167D01*
X11103976Y-14862214D01*
X11103976Y-14966976D01*
X11103976Y-14862214D02*
X11113500Y-14843167D01*
X11132548Y-14833643D01*
X11161119Y-14833643D01*
X11180167Y-14843167D01*
X11189690Y-14862214D01*
X11189690Y-14966976D01*
X11284928Y-14966976D02*
X11284928Y-14833643D01*
X11284928Y-14852690D02*
X11294452Y-14843167D01*
X11313500Y-14833643D01*
X11342071Y-14833643D01*
X11361119Y-14843167D01*
X11370643Y-14862214D01*
X11370643Y-14966976D01*
X11370643Y-14862214D02*
X11380167Y-14843167D01*
X11399214Y-14833643D01*
X11427786Y-14833643D01*
X11446833Y-14843167D01*
X11456357Y-14862214D01*
X11456357Y-14966976D01*
X11846833Y-14757452D02*
X11675405Y-15014595D01*
X12103976Y-14766976D02*
X12123024Y-14766976D01*
X12142071Y-14776500D01*
X12151595Y-14786024D01*
X12161119Y-14805071D01*
X12170643Y-14843167D01*
X12170643Y-14890786D01*
X12161119Y-14928881D01*
X12151595Y-14947928D01*
X12142071Y-14957452D01*
X12123024Y-14966976D01*
X12103976Y-14966976D01*
X12084928Y-14957452D01*
X12075405Y-14947928D01*
X12065881Y-14928881D01*
X12056357Y-14890786D01*
X12056357Y-14843167D01*
X12065881Y-14805071D01*
X12075405Y-14786024D01*
X12084928Y-14776500D01*
X12103976Y-14766976D01*
X12256357Y-14947928D02*
X12265881Y-14957452D01*
X12256357Y-14966976D01*
X12246833Y-14957452D01*
X12256357Y-14947928D01*
X12256357Y-14966976D01*
X12389690Y-14766976D02*
X12408738Y-14766976D01*
X12427786Y-14776500D01*
X12437309Y-14786024D01*
X12446833Y-14805071D01*
X12456357Y-14843167D01*
X12456357Y-14890786D01*
X12446833Y-14928881D01*
X12437309Y-14947928D01*
X12427786Y-14957452D01*
X12408738Y-14966976D01*
X12389690Y-14966976D01*
X12370643Y-14957452D01*
X12361119Y-14947928D01*
X12351595Y-14928881D01*
X12342071Y-14890786D01*
X12342071Y-14843167D01*
X12351595Y-14805071D01*
X12361119Y-14786024D01*
X12370643Y-14776500D01*
X12389690Y-14766976D01*
X12523024Y-14766976D02*
X12646833Y-14766976D01*
X12580167Y-14843167D01*
X12608738Y-14843167D01*
X12627786Y-14852690D01*
X12637309Y-14862214D01*
X12646833Y-14881262D01*
X12646833Y-14928881D01*
X12637309Y-14947928D01*
X12627786Y-14957452D01*
X12608738Y-14966976D01*
X12551595Y-14966976D01*
X12532548Y-14957452D01*
X12523024Y-14947928D01*
X12827786Y-14766976D02*
X12732548Y-14766976D01*
X12723024Y-14862214D01*
X12732548Y-14852690D01*
X12751595Y-14843167D01*
X12799214Y-14843167D01*
X12818262Y-14852690D01*
X12827786Y-14862214D01*
X12837309Y-14881262D01*
X12837309Y-14928881D01*
X12827786Y-14947928D01*
X12818262Y-14957452D01*
X12799214Y-14966976D01*
X12751595Y-14966976D01*
X12732548Y-14957452D01*
X12723024Y-14947928D01*
X13008738Y-14833643D02*
X13008738Y-14966976D01*
X12961119Y-14757452D02*
X12913500Y-14900309D01*
X13037309Y-14900309D01*
X13103976Y-14766976D02*
X13103976Y-14805071D01*
X13180167Y-14766976D02*
X13180167Y-14805071D01*
X13475405Y-15043167D02*
X13465881Y-15033643D01*
X13446833Y-15005071D01*
X13437309Y-14986024D01*
X13427786Y-14957452D01*
X13418262Y-14909833D01*
X13418262Y-14871738D01*
X13427786Y-14824119D01*
X13437309Y-14795548D01*
X13446833Y-14776500D01*
X13465881Y-14747928D01*
X13475405Y-14738405D01*
X13580167Y-14852690D02*
X13561119Y-14843167D01*
X13551595Y-14833643D01*
X13542071Y-14814595D01*
X13542071Y-14805071D01*
X13551595Y-14786024D01*
X13561119Y-14776500D01*
X13580167Y-14766976D01*
X13618262Y-14766976D01*
X13637309Y-14776500D01*
X13646833Y-14786024D01*
X13656357Y-14805071D01*
X13656357Y-14814595D01*
X13646833Y-14833643D01*
X13637309Y-14843167D01*
X13618262Y-14852690D01*
X13580167Y-14852690D01*
X13561119Y-14862214D01*
X13551595Y-14871738D01*
X13542071Y-14890786D01*
X13542071Y-14928881D01*
X13551595Y-14947928D01*
X13561119Y-14957452D01*
X13580167Y-14966976D01*
X13618262Y-14966976D01*
X13637309Y-14957452D01*
X13646833Y-14947928D01*
X13656357Y-14928881D01*
X13656357Y-14890786D01*
X13646833Y-14871738D01*
X13637309Y-14862214D01*
X13618262Y-14852690D01*
X13894452Y-14966976D02*
X13894452Y-14766976D01*
X13980167Y-14966976D02*
X13980167Y-14862214D01*
X13970643Y-14843167D01*
X13951595Y-14833643D01*
X13923024Y-14833643D01*
X13903976Y-14843167D01*
X13894452Y-14852690D01*
X14103976Y-14966976D02*
X14084928Y-14957452D01*
X14075405Y-14947928D01*
X14065881Y-14928881D01*
X14065881Y-14871738D01*
X14075405Y-14852690D01*
X14084928Y-14843167D01*
X14103976Y-14833643D01*
X14132548Y-14833643D01*
X14151595Y-14843167D01*
X14161119Y-14852690D01*
X14170643Y-14871738D01*
X14170643Y-14928881D01*
X14161119Y-14947928D01*
X14151595Y-14957452D01*
X14132548Y-14966976D01*
X14103976Y-14966976D01*
X14284928Y-14966976D02*
X14265881Y-14957452D01*
X14256357Y-14938405D01*
X14256357Y-14766976D01*
X14437309Y-14957452D02*
X14418262Y-14966976D01*
X14380167Y-14966976D01*
X14361119Y-14957452D01*
X14351595Y-14938405D01*
X14351595Y-14862214D01*
X14361119Y-14843167D01*
X14380167Y-14833643D01*
X14418262Y-14833643D01*
X14437309Y-14843167D01*
X14446833Y-14862214D01*
X14446833Y-14881262D01*
X14351595Y-14900309D01*
X14523024Y-14957452D02*
X14542071Y-14966976D01*
X14580167Y-14966976D01*
X14599214Y-14957452D01*
X14608738Y-14938405D01*
X14608738Y-14928881D01*
X14599214Y-14909833D01*
X14580167Y-14900309D01*
X14551595Y-14900309D01*
X14532548Y-14890786D01*
X14523024Y-14871738D01*
X14523024Y-14862214D01*
X14532548Y-14843167D01*
X14551595Y-14833643D01*
X14580167Y-14833643D01*
X14599214Y-14843167D01*
X14675405Y-15043167D02*
X14684928Y-15033643D01*
X14703976Y-15005071D01*
X14713500Y-14986024D01*
X14723024Y-14957452D01*
X14732548Y-14909833D01*
X14732548Y-14871738D01*
X14723024Y-14824119D01*
X14713500Y-14795548D01*
X14703976Y-14776500D01*
X14684928Y-14747928D01*
X14675405Y-14738405D01*
D14*
X9848500Y-15085500D02*
X9848500Y-15195500D01*
X9793500Y-15140500D02*
X9903500Y-15140500D01*
D11*
X10265881Y-15230976D02*
X10151595Y-15230976D01*
X10208738Y-15230976D02*
X10208738Y-15030976D01*
X10189690Y-15059548D01*
X10170643Y-15078595D01*
X10151595Y-15088119D01*
X10351595Y-15211928D02*
X10361119Y-15221452D01*
X10351595Y-15230976D01*
X10342071Y-15221452D01*
X10351595Y-15211928D01*
X10351595Y-15230976D01*
X10551595Y-15230976D02*
X10437310Y-15230976D01*
X10494452Y-15230976D02*
X10494452Y-15030976D01*
X10475405Y-15059548D01*
X10456357Y-15078595D01*
X10437310Y-15088119D01*
X10675405Y-15030976D02*
X10694452Y-15030976D01*
X10713500Y-15040500D01*
X10723024Y-15050024D01*
X10732548Y-15069071D01*
X10742071Y-15107167D01*
X10742071Y-15154786D01*
X10732548Y-15192881D01*
X10723024Y-15211928D01*
X10713500Y-15221452D01*
X10694452Y-15230976D01*
X10675405Y-15230976D01*
X10656357Y-15221452D01*
X10646833Y-15211928D01*
X10637310Y-15192881D01*
X10627786Y-15154786D01*
X10627786Y-15107167D01*
X10637310Y-15069071D01*
X10646833Y-15050024D01*
X10656357Y-15040500D01*
X10675405Y-15030976D01*
X10865881Y-15030976D02*
X10884929Y-15030976D01*
X10903976Y-15040500D01*
X10913500Y-15050024D01*
X10923024Y-15069071D01*
X10932548Y-15107167D01*
X10932548Y-15154786D01*
X10923024Y-15192881D01*
X10913500Y-15211928D01*
X10903976Y-15221452D01*
X10884929Y-15230976D01*
X10865881Y-15230976D01*
X10846833Y-15221452D01*
X10837310Y-15211928D01*
X10827786Y-15192881D01*
X10818262Y-15154786D01*
X10818262Y-15107167D01*
X10827786Y-15069071D01*
X10837310Y-15050024D01*
X10846833Y-15040500D01*
X10865881Y-15030976D01*
X11018262Y-15230976D02*
X11018262Y-15097643D01*
X11018262Y-15116690D02*
X11027786Y-15107167D01*
X11046833Y-15097643D01*
X11075405Y-15097643D01*
X11094452Y-15107167D01*
X11103976Y-15126214D01*
X11103976Y-15230976D01*
X11103976Y-15126214D02*
X11113500Y-15107167D01*
X11132548Y-15097643D01*
X11161119Y-15097643D01*
X11180167Y-15107167D01*
X11189690Y-15126214D01*
X11189690Y-15230976D01*
X11284928Y-15230976D02*
X11284928Y-15097643D01*
X11284928Y-15116690D02*
X11294452Y-15107167D01*
X11313500Y-15097643D01*
X11342071Y-15097643D01*
X11361119Y-15107167D01*
X11370643Y-15126214D01*
X11370643Y-15230976D01*
X11370643Y-15126214D02*
X11380167Y-15107167D01*
X11399214Y-15097643D01*
X11427786Y-15097643D01*
X11446833Y-15107167D01*
X11456357Y-15126214D01*
X11456357Y-15230976D01*
X11846833Y-15021452D02*
X11675405Y-15278595D01*
X12103976Y-15030976D02*
X12123024Y-15030976D01*
X12142071Y-15040500D01*
X12151595Y-15050024D01*
X12161119Y-15069071D01*
X12170643Y-15107167D01*
X12170643Y-15154786D01*
X12161119Y-15192881D01*
X12151595Y-15211928D01*
X12142071Y-15221452D01*
X12123024Y-15230976D01*
X12103976Y-15230976D01*
X12084928Y-15221452D01*
X12075405Y-15211928D01*
X12065881Y-15192881D01*
X12056357Y-15154786D01*
X12056357Y-15107167D01*
X12065881Y-15069071D01*
X12075405Y-15050024D01*
X12084928Y-15040500D01*
X12103976Y-15030976D01*
X12256357Y-15211928D02*
X12265881Y-15221452D01*
X12256357Y-15230976D01*
X12246833Y-15221452D01*
X12256357Y-15211928D01*
X12256357Y-15230976D01*
X12389690Y-15030976D02*
X12408738Y-15030976D01*
X12427786Y-15040500D01*
X12437309Y-15050024D01*
X12446833Y-15069071D01*
X12456357Y-15107167D01*
X12456357Y-15154786D01*
X12446833Y-15192881D01*
X12437309Y-15211928D01*
X12427786Y-15221452D01*
X12408738Y-15230976D01*
X12389690Y-15230976D01*
X12370643Y-15221452D01*
X12361119Y-15211928D01*
X12351595Y-15192881D01*
X12342071Y-15154786D01*
X12342071Y-15107167D01*
X12351595Y-15069071D01*
X12361119Y-15050024D01*
X12370643Y-15040500D01*
X12389690Y-15030976D01*
X12627786Y-15097643D02*
X12627786Y-15230976D01*
X12580167Y-15021452D02*
X12532548Y-15164309D01*
X12656357Y-15164309D01*
X12713500Y-15030976D02*
X12837309Y-15030976D01*
X12770643Y-15107167D01*
X12799214Y-15107167D01*
X12818262Y-15116690D01*
X12827786Y-15126214D01*
X12837309Y-15145262D01*
X12837309Y-15192881D01*
X12827786Y-15211928D01*
X12818262Y-15221452D01*
X12799214Y-15230976D01*
X12742071Y-15230976D01*
X12723024Y-15221452D01*
X12713500Y-15211928D01*
X12903976Y-15030976D02*
X13027786Y-15030976D01*
X12961119Y-15107167D01*
X12989690Y-15107167D01*
X13008738Y-15116690D01*
X13018262Y-15126214D01*
X13027786Y-15145262D01*
X13027786Y-15192881D01*
X13018262Y-15211928D01*
X13008738Y-15221452D01*
X12989690Y-15230976D01*
X12932548Y-15230976D01*
X12913500Y-15221452D01*
X12903976Y-15211928D01*
X13103976Y-15030976D02*
X13103976Y-15069071D01*
X13180167Y-15030976D02*
X13180167Y-15069071D01*
X13475405Y-15307167D02*
X13465881Y-15297643D01*
X13446833Y-15269071D01*
X13437309Y-15250024D01*
X13427786Y-15221452D01*
X13418262Y-15173833D01*
X13418262Y-15135738D01*
X13427786Y-15088119D01*
X13437309Y-15059548D01*
X13446833Y-15040500D01*
X13465881Y-15011928D01*
X13475405Y-15002405D01*
X13542071Y-15050024D02*
X13551595Y-15040500D01*
X13570643Y-15030976D01*
X13618262Y-15030976D01*
X13637309Y-15040500D01*
X13646833Y-15050024D01*
X13656357Y-15069071D01*
X13656357Y-15088119D01*
X13646833Y-15116690D01*
X13532548Y-15230976D01*
X13656357Y-15230976D01*
X13770643Y-15116690D02*
X13751595Y-15107167D01*
X13742071Y-15097643D01*
X13732548Y-15078595D01*
X13732548Y-15069071D01*
X13742071Y-15050024D01*
X13751595Y-15040500D01*
X13770643Y-15030976D01*
X13808738Y-15030976D01*
X13827786Y-15040500D01*
X13837309Y-15050024D01*
X13846833Y-15069071D01*
X13846833Y-15078595D01*
X13837309Y-15097643D01*
X13827786Y-15107167D01*
X13808738Y-15116690D01*
X13770643Y-15116690D01*
X13751595Y-15126214D01*
X13742071Y-15135738D01*
X13732548Y-15154786D01*
X13732548Y-15192881D01*
X13742071Y-15211928D01*
X13751595Y-15221452D01*
X13770643Y-15230976D01*
X13808738Y-15230976D01*
X13827786Y-15221452D01*
X13837309Y-15211928D01*
X13846833Y-15192881D01*
X13846833Y-15154786D01*
X13837309Y-15135738D01*
X13827786Y-15126214D01*
X13808738Y-15116690D01*
X14084928Y-15230976D02*
X14084928Y-15030976D01*
X14170643Y-15230976D02*
X14170643Y-15126214D01*
X14161119Y-15107167D01*
X14142071Y-15097643D01*
X14113500Y-15097643D01*
X14094452Y-15107167D01*
X14084928Y-15116690D01*
X14294452Y-15230976D02*
X14275405Y-15221452D01*
X14265881Y-15211928D01*
X14256357Y-15192881D01*
X14256357Y-15135738D01*
X14265881Y-15116690D01*
X14275405Y-15107167D01*
X14294452Y-15097643D01*
X14323024Y-15097643D01*
X14342071Y-15107167D01*
X14351595Y-15116690D01*
X14361119Y-15135738D01*
X14361119Y-15192881D01*
X14351595Y-15211928D01*
X14342071Y-15221452D01*
X14323024Y-15230976D01*
X14294452Y-15230976D01*
X14475405Y-15230976D02*
X14456357Y-15221452D01*
X14446833Y-15202405D01*
X14446833Y-15030976D01*
X14627786Y-15221452D02*
X14608738Y-15230976D01*
X14570643Y-15230976D01*
X14551595Y-15221452D01*
X14542071Y-15202405D01*
X14542071Y-15126214D01*
X14551595Y-15107167D01*
X14570643Y-15097643D01*
X14608738Y-15097643D01*
X14627786Y-15107167D01*
X14637309Y-15126214D01*
X14637309Y-15145262D01*
X14542071Y-15164309D01*
X14713500Y-15221452D02*
X14732548Y-15230976D01*
X14770643Y-15230976D01*
X14789690Y-15221452D01*
X14799214Y-15202405D01*
X14799214Y-15192881D01*
X14789690Y-15173833D01*
X14770643Y-15164309D01*
X14742071Y-15164309D01*
X14723024Y-15154786D01*
X14713500Y-15135738D01*
X14713500Y-15126214D01*
X14723024Y-15107167D01*
X14742071Y-15097643D01*
X14770643Y-15097643D01*
X14789690Y-15107167D01*
X14865881Y-15307167D02*
X14875405Y-15297643D01*
X14894452Y-15269071D01*
X14903976Y-15250024D01*
X14913500Y-15221452D01*
X14923024Y-15173833D01*
X14923024Y-15135738D01*
X14913500Y-15088119D01*
X14903976Y-15059548D01*
X14894452Y-15040500D01*
X14875405Y-15011928D01*
X14865881Y-15002405D01*
D15*
X9884462Y-15450462D02*
X9884462Y-15358538D01*
X9792538Y-15358538D01*
X9792538Y-15450462D01*
X9884462Y-15450462D01*
D11*
X10265881Y-15494976D02*
X10151595Y-15494976D01*
X10208738Y-15494976D02*
X10208738Y-15294976D01*
X10189690Y-15323548D01*
X10170643Y-15342595D01*
X10151595Y-15352119D01*
X10351595Y-15475928D02*
X10361119Y-15485452D01*
X10351595Y-15494976D01*
X10342071Y-15485452D01*
X10351595Y-15475928D01*
X10351595Y-15494976D01*
X10427786Y-15294976D02*
X10551595Y-15294976D01*
X10484929Y-15371167D01*
X10513500Y-15371167D01*
X10532548Y-15380690D01*
X10542071Y-15390214D01*
X10551595Y-15409262D01*
X10551595Y-15456881D01*
X10542071Y-15475928D01*
X10532548Y-15485452D01*
X10513500Y-15494976D01*
X10456357Y-15494976D01*
X10437310Y-15485452D01*
X10427786Y-15475928D01*
X10675405Y-15294976D02*
X10694452Y-15294976D01*
X10713500Y-15304500D01*
X10723024Y-15314024D01*
X10732548Y-15333071D01*
X10742071Y-15371167D01*
X10742071Y-15418786D01*
X10732548Y-15456881D01*
X10723024Y-15475928D01*
X10713500Y-15485452D01*
X10694452Y-15494976D01*
X10675405Y-15494976D01*
X10656357Y-15485452D01*
X10646833Y-15475928D01*
X10637310Y-15456881D01*
X10627786Y-15418786D01*
X10627786Y-15371167D01*
X10637310Y-15333071D01*
X10646833Y-15314024D01*
X10656357Y-15304500D01*
X10675405Y-15294976D01*
X10865881Y-15294976D02*
X10884929Y-15294976D01*
X10903976Y-15304500D01*
X10913500Y-15314024D01*
X10923024Y-15333071D01*
X10932548Y-15371167D01*
X10932548Y-15418786D01*
X10923024Y-15456881D01*
X10913500Y-15475928D01*
X10903976Y-15485452D01*
X10884929Y-15494976D01*
X10865881Y-15494976D01*
X10846833Y-15485452D01*
X10837310Y-15475928D01*
X10827786Y-15456881D01*
X10818262Y-15418786D01*
X10818262Y-15371167D01*
X10827786Y-15333071D01*
X10837310Y-15314024D01*
X10846833Y-15304500D01*
X10865881Y-15294976D01*
X11018262Y-15494976D02*
X11018262Y-15361643D01*
X11018262Y-15380690D02*
X11027786Y-15371167D01*
X11046833Y-15361643D01*
X11075405Y-15361643D01*
X11094452Y-15371167D01*
X11103976Y-15390214D01*
X11103976Y-15494976D01*
X11103976Y-15390214D02*
X11113500Y-15371167D01*
X11132548Y-15361643D01*
X11161119Y-15361643D01*
X11180167Y-15371167D01*
X11189690Y-15390214D01*
X11189690Y-15494976D01*
X11284928Y-15494976D02*
X11284928Y-15361643D01*
X11284928Y-15380690D02*
X11294452Y-15371167D01*
X11313500Y-15361643D01*
X11342071Y-15361643D01*
X11361119Y-15371167D01*
X11370643Y-15390214D01*
X11370643Y-15494976D01*
X11370643Y-15390214D02*
X11380167Y-15371167D01*
X11399214Y-15361643D01*
X11427786Y-15361643D01*
X11446833Y-15371167D01*
X11456357Y-15390214D01*
X11456357Y-15494976D01*
X11846833Y-15285452D02*
X11675405Y-15542595D01*
X12103976Y-15294976D02*
X12123024Y-15294976D01*
X12142071Y-15304500D01*
X12151595Y-15314024D01*
X12161119Y-15333071D01*
X12170643Y-15371167D01*
X12170643Y-15418786D01*
X12161119Y-15456881D01*
X12151595Y-15475928D01*
X12142071Y-15485452D01*
X12123024Y-15494976D01*
X12103976Y-15494976D01*
X12084928Y-15485452D01*
X12075405Y-15475928D01*
X12065881Y-15456881D01*
X12056357Y-15418786D01*
X12056357Y-15371167D01*
X12065881Y-15333071D01*
X12075405Y-15314024D01*
X12084928Y-15304500D01*
X12103976Y-15294976D01*
X12256357Y-15475928D02*
X12265881Y-15485452D01*
X12256357Y-15494976D01*
X12246833Y-15485452D01*
X12256357Y-15475928D01*
X12256357Y-15494976D01*
X12389690Y-15294976D02*
X12408738Y-15294976D01*
X12427786Y-15304500D01*
X12437309Y-15314024D01*
X12446833Y-15333071D01*
X12456357Y-15371167D01*
X12456357Y-15418786D01*
X12446833Y-15456881D01*
X12437309Y-15475928D01*
X12427786Y-15485452D01*
X12408738Y-15494976D01*
X12389690Y-15494976D01*
X12370643Y-15485452D01*
X12361119Y-15475928D01*
X12351595Y-15456881D01*
X12342071Y-15418786D01*
X12342071Y-15371167D01*
X12351595Y-15333071D01*
X12361119Y-15314024D01*
X12370643Y-15304500D01*
X12389690Y-15294976D01*
X12637309Y-15294976D02*
X12542071Y-15294976D01*
X12532548Y-15390214D01*
X12542071Y-15380690D01*
X12561119Y-15371167D01*
X12608738Y-15371167D01*
X12627786Y-15380690D01*
X12637309Y-15390214D01*
X12646833Y-15409262D01*
X12646833Y-15456881D01*
X12637309Y-15475928D01*
X12627786Y-15485452D01*
X12608738Y-15494976D01*
X12561119Y-15494976D01*
X12542071Y-15485452D01*
X12532548Y-15475928D01*
X12837309Y-15494976D02*
X12723024Y-15494976D01*
X12780167Y-15494976D02*
X12780167Y-15294976D01*
X12761119Y-15323548D01*
X12742071Y-15342595D01*
X12723024Y-15352119D01*
X12913500Y-15314024D02*
X12923024Y-15304500D01*
X12942071Y-15294976D01*
X12989690Y-15294976D01*
X13008738Y-15304500D01*
X13018262Y-15314024D01*
X13027786Y-15333071D01*
X13027786Y-15352119D01*
X13018262Y-15380690D01*
X12903976Y-15494976D01*
X13027786Y-15494976D01*
X13103976Y-15294976D02*
X13103976Y-15333071D01*
X13180167Y-15294976D02*
X13180167Y-15333071D01*
X13475405Y-15571167D02*
X13465881Y-15561643D01*
X13446833Y-15533071D01*
X13437309Y-15514024D01*
X13427786Y-15485452D01*
X13418262Y-15437833D01*
X13418262Y-15399738D01*
X13427786Y-15352119D01*
X13437309Y-15323548D01*
X13446833Y-15304500D01*
X13465881Y-15275928D01*
X13475405Y-15266405D01*
X13542071Y-15314024D02*
X13551595Y-15304500D01*
X13570643Y-15294976D01*
X13618262Y-15294976D01*
X13637309Y-15304500D01*
X13646833Y-15314024D01*
X13656357Y-15333071D01*
X13656357Y-15352119D01*
X13646833Y-15380690D01*
X13532548Y-15494976D01*
X13656357Y-15494976D01*
X13780167Y-15294976D02*
X13799214Y-15294976D01*
X13818262Y-15304500D01*
X13827786Y-15314024D01*
X13837309Y-15333071D01*
X13846833Y-15371167D01*
X13846833Y-15418786D01*
X13837309Y-15456881D01*
X13827786Y-15475928D01*
X13818262Y-15485452D01*
X13799214Y-15494976D01*
X13780167Y-15494976D01*
X13761119Y-15485452D01*
X13751595Y-15475928D01*
X13742071Y-15456881D01*
X13732548Y-15418786D01*
X13732548Y-15371167D01*
X13742071Y-15333071D01*
X13751595Y-15314024D01*
X13761119Y-15304500D01*
X13780167Y-15294976D01*
X14084928Y-15494976D02*
X14084928Y-15294976D01*
X14170643Y-15494976D02*
X14170643Y-15390214D01*
X14161119Y-15371167D01*
X14142071Y-15361643D01*
X14113500Y-15361643D01*
X14094452Y-15371167D01*
X14084928Y-15380690D01*
X14294452Y-15494976D02*
X14275405Y-15485452D01*
X14265881Y-15475928D01*
X14256357Y-15456881D01*
X14256357Y-15399738D01*
X14265881Y-15380690D01*
X14275405Y-15371167D01*
X14294452Y-15361643D01*
X14323024Y-15361643D01*
X14342071Y-15371167D01*
X14351595Y-15380690D01*
X14361119Y-15399738D01*
X14361119Y-15456881D01*
X14351595Y-15475928D01*
X14342071Y-15485452D01*
X14323024Y-15494976D01*
X14294452Y-15494976D01*
X14475405Y-15494976D02*
X14456357Y-15485452D01*
X14446833Y-15466405D01*
X14446833Y-15294976D01*
X14627786Y-15485452D02*
X14608738Y-15494976D01*
X14570643Y-15494976D01*
X14551595Y-15485452D01*
X14542071Y-15466405D01*
X14542071Y-15390214D01*
X14551595Y-15371167D01*
X14570643Y-15361643D01*
X14608738Y-15361643D01*
X14627786Y-15371167D01*
X14637309Y-15390214D01*
X14637309Y-15409262D01*
X14542071Y-15428309D01*
X14713500Y-15485452D02*
X14732548Y-15494976D01*
X14770643Y-15494976D01*
X14789690Y-15485452D01*
X14799214Y-15466405D01*
X14799214Y-15456881D01*
X14789690Y-15437833D01*
X14770643Y-15428309D01*
X14742071Y-15428309D01*
X14723024Y-15418786D01*
X14713500Y-15399738D01*
X14713500Y-15390214D01*
X14723024Y-15371167D01*
X14742071Y-15361643D01*
X14770643Y-15361643D01*
X14789690Y-15371167D01*
X14865881Y-15571167D02*
X14875405Y-15561643D01*
X14894452Y-15533071D01*
X14903976Y-15514024D01*
X14913500Y-15485452D01*
X14923024Y-15437833D01*
X14923024Y-15399738D01*
X14913500Y-15352119D01*
X14903976Y-15323548D01*
X14894452Y-15304500D01*
X14875405Y-15275928D01*
X14865881Y-15266405D01*
X9803500Y-15768500D02*
X9903500Y-15668500D01*
X9803500Y-15568500D01*
X9703500Y-15668500D01*
X9803500Y-15768500D01*
X10142071Y-15558976D02*
X10265881Y-15558976D01*
X10199214Y-15635167D01*
X10227786Y-15635167D01*
X10246833Y-15644690D01*
X10256357Y-15654214D01*
X10265881Y-15673262D01*
X10265881Y-15720881D01*
X10256357Y-15739928D01*
X10246833Y-15749452D01*
X10227786Y-15758976D01*
X10170643Y-15758976D01*
X10151595Y-15749452D01*
X10142071Y-15739928D01*
X10351595Y-15739928D02*
X10361119Y-15749452D01*
X10351595Y-15758976D01*
X10342071Y-15749452D01*
X10351595Y-15739928D01*
X10351595Y-15758976D01*
X10437310Y-15578024D02*
X10446833Y-15568500D01*
X10465881Y-15558976D01*
X10513500Y-15558976D01*
X10532548Y-15568500D01*
X10542071Y-15578024D01*
X10551595Y-15597071D01*
X10551595Y-15616119D01*
X10542071Y-15644690D01*
X10427786Y-15758976D01*
X10551595Y-15758976D01*
X10675405Y-15558976D02*
X10694452Y-15558976D01*
X10713500Y-15568500D01*
X10723024Y-15578024D01*
X10732548Y-15597071D01*
X10742071Y-15635167D01*
X10742071Y-15682786D01*
X10732548Y-15720881D01*
X10723024Y-15739928D01*
X10713500Y-15749452D01*
X10694452Y-15758976D01*
X10675405Y-15758976D01*
X10656357Y-15749452D01*
X10646833Y-15739928D01*
X10637310Y-15720881D01*
X10627786Y-15682786D01*
X10627786Y-15635167D01*
X10637310Y-15597071D01*
X10646833Y-15578024D01*
X10656357Y-15568500D01*
X10675405Y-15558976D01*
X10865881Y-15558976D02*
X10884929Y-15558976D01*
X10903976Y-15568500D01*
X10913500Y-15578024D01*
X10923024Y-15597071D01*
X10932548Y-15635167D01*
X10932548Y-15682786D01*
X10923024Y-15720881D01*
X10913500Y-15739928D01*
X10903976Y-15749452D01*
X10884929Y-15758976D01*
X10865881Y-15758976D01*
X10846833Y-15749452D01*
X10837310Y-15739928D01*
X10827786Y-15720881D01*
X10818262Y-15682786D01*
X10818262Y-15635167D01*
X10827786Y-15597071D01*
X10837310Y-15578024D01*
X10846833Y-15568500D01*
X10865881Y-15558976D01*
X11018262Y-15758976D02*
X11018262Y-15625643D01*
X11018262Y-15644690D02*
X11027786Y-15635167D01*
X11046833Y-15625643D01*
X11075405Y-15625643D01*
X11094452Y-15635167D01*
X11103976Y-15654214D01*
X11103976Y-15758976D01*
X11103976Y-15654214D02*
X11113500Y-15635167D01*
X11132548Y-15625643D01*
X11161119Y-15625643D01*
X11180167Y-15635167D01*
X11189690Y-15654214D01*
X11189690Y-15758976D01*
X11284928Y-15758976D02*
X11284928Y-15625643D01*
X11284928Y-15644690D02*
X11294452Y-15635167D01*
X11313500Y-15625643D01*
X11342071Y-15625643D01*
X11361119Y-15635167D01*
X11370643Y-15654214D01*
X11370643Y-15758976D01*
X11370643Y-15654214D02*
X11380167Y-15635167D01*
X11399214Y-15625643D01*
X11427786Y-15625643D01*
X11446833Y-15635167D01*
X11456357Y-15654214D01*
X11456357Y-15758976D01*
X11846833Y-15549452D02*
X11675405Y-15806595D01*
X12103976Y-15558976D02*
X12123024Y-15558976D01*
X12142071Y-15568500D01*
X12151595Y-15578024D01*
X12161119Y-15597071D01*
X12170643Y-15635167D01*
X12170643Y-15682786D01*
X12161119Y-15720881D01*
X12151595Y-15739928D01*
X12142071Y-15749452D01*
X12123024Y-15758976D01*
X12103976Y-15758976D01*
X12084928Y-15749452D01*
X12075405Y-15739928D01*
X12065881Y-15720881D01*
X12056357Y-15682786D01*
X12056357Y-15635167D01*
X12065881Y-15597071D01*
X12075405Y-15578024D01*
X12084928Y-15568500D01*
X12103976Y-15558976D01*
X12256357Y-15739928D02*
X12265881Y-15749452D01*
X12256357Y-15758976D01*
X12246833Y-15749452D01*
X12256357Y-15739928D01*
X12256357Y-15758976D01*
X12456357Y-15758976D02*
X12342071Y-15758976D01*
X12399214Y-15758976D02*
X12399214Y-15558976D01*
X12380167Y-15587548D01*
X12361119Y-15606595D01*
X12342071Y-15616119D01*
X12532548Y-15578024D02*
X12542071Y-15568500D01*
X12561119Y-15558976D01*
X12608738Y-15558976D01*
X12627786Y-15568500D01*
X12637309Y-15578024D01*
X12646833Y-15597071D01*
X12646833Y-15616119D01*
X12637309Y-15644690D01*
X12523024Y-15758976D01*
X12646833Y-15758976D01*
X12818262Y-15558976D02*
X12780167Y-15558976D01*
X12761119Y-15568500D01*
X12751595Y-15578024D01*
X12732548Y-15606595D01*
X12723024Y-15644690D01*
X12723024Y-15720881D01*
X12732548Y-15739928D01*
X12742071Y-15749452D01*
X12761119Y-15758976D01*
X12799214Y-15758976D01*
X12818262Y-15749452D01*
X12827786Y-15739928D01*
X12837309Y-15720881D01*
X12837309Y-15673262D01*
X12827786Y-15654214D01*
X12818262Y-15644690D01*
X12799214Y-15635167D01*
X12761119Y-15635167D01*
X12742071Y-15644690D01*
X12732548Y-15654214D01*
X12723024Y-15673262D01*
X12961119Y-15558976D02*
X12980167Y-15558976D01*
X12999214Y-15568500D01*
X13008738Y-15578024D01*
X13018262Y-15597071D01*
X13027786Y-15635167D01*
X13027786Y-15682786D01*
X13018262Y-15720881D01*
X13008738Y-15739928D01*
X12999214Y-15749452D01*
X12980167Y-15758976D01*
X12961119Y-15758976D01*
X12942071Y-15749452D01*
X12932548Y-15739928D01*
X12923024Y-15720881D01*
X12913500Y-15682786D01*
X12913500Y-15635167D01*
X12923024Y-15597071D01*
X12932548Y-15578024D01*
X12942071Y-15568500D01*
X12961119Y-15558976D01*
X13103976Y-15558976D02*
X13103976Y-15597071D01*
X13180167Y-15558976D02*
X13180167Y-15597071D01*
X13475405Y-15835167D02*
X13465881Y-15825643D01*
X13446833Y-15797071D01*
X13437309Y-15778024D01*
X13427786Y-15749452D01*
X13418262Y-15701833D01*
X13418262Y-15663738D01*
X13427786Y-15616119D01*
X13437309Y-15587548D01*
X13446833Y-15568500D01*
X13465881Y-15539928D01*
X13475405Y-15530405D01*
X13637309Y-15625643D02*
X13637309Y-15758976D01*
X13589690Y-15549452D02*
X13542071Y-15692309D01*
X13665881Y-15692309D01*
X13894452Y-15758976D02*
X13894452Y-15558976D01*
X13980167Y-15758976D02*
X13980167Y-15654214D01*
X13970643Y-15635167D01*
X13951595Y-15625643D01*
X13923024Y-15625643D01*
X13903976Y-15635167D01*
X13894452Y-15644690D01*
X14103976Y-15758976D02*
X14084928Y-15749452D01*
X14075405Y-15739928D01*
X14065881Y-15720881D01*
X14065881Y-15663738D01*
X14075405Y-15644690D01*
X14084928Y-15635167D01*
X14103976Y-15625643D01*
X14132548Y-15625643D01*
X14151595Y-15635167D01*
X14161119Y-15644690D01*
X14170643Y-15663738D01*
X14170643Y-15720881D01*
X14161119Y-15739928D01*
X14151595Y-15749452D01*
X14132548Y-15758976D01*
X14103976Y-15758976D01*
X14284928Y-15758976D02*
X14265881Y-15749452D01*
X14256357Y-15730405D01*
X14256357Y-15558976D01*
X14437309Y-15749452D02*
X14418262Y-15758976D01*
X14380167Y-15758976D01*
X14361119Y-15749452D01*
X14351595Y-15730405D01*
X14351595Y-15654214D01*
X14361119Y-15635167D01*
X14380167Y-15625643D01*
X14418262Y-15625643D01*
X14437309Y-15635167D01*
X14446833Y-15654214D01*
X14446833Y-15673262D01*
X14351595Y-15692309D01*
X14523024Y-15749452D02*
X14542071Y-15758976D01*
X14580167Y-15758976D01*
X14599214Y-15749452D01*
X14608738Y-15730405D01*
X14608738Y-15720881D01*
X14599214Y-15701833D01*
X14580167Y-15692309D01*
X14551595Y-15692309D01*
X14532548Y-15682786D01*
X14523024Y-15663738D01*
X14523024Y-15654214D01*
X14532548Y-15635167D01*
X14551595Y-15625643D01*
X14580167Y-15625643D01*
X14599214Y-15635167D01*
X14675405Y-15835167D02*
X14684928Y-15825643D01*
X14703976Y-15797071D01*
X14713500Y-15778024D01*
X14723024Y-15749452D01*
X14732548Y-15701833D01*
X14732548Y-15663738D01*
X14723024Y-15616119D01*
X14713500Y-15587548D01*
X14703976Y-15568500D01*
X14684928Y-15539928D01*
X14675405Y-15530405D01*
M02*
