G04 #@! TF.GenerationSoftware,KiCad,Pcbnew,(6.0.7)*
G04 #@! TF.CreationDate,2023-02-16T08:52:03+02:00*
G04 #@! TF.ProjectId,teensy_motor_controller,7465656e-7379-45f6-9d6f-746f725f636f,rev?*
G04 #@! TF.SameCoordinates,Original*
G04 #@! TF.FileFunction,Copper,L1,Top*
G04 #@! TF.FilePolarity,Positive*
%FSLAX46Y46*%
G04 Gerber Fmt 4.6, Leading zero omitted, Abs format (unit mm)*
G04 Created by KiCad (PCBNEW (6.0.7)) date 2023-02-16 08:52:03*
%MOMM*%
%LPD*%
G01*
G04 APERTURE LIST*
G04 #@! TA.AperFunction,ComponentPad*
%ADD10C,1.600000*%
G04 #@! TD*
G04 #@! TA.AperFunction,ComponentPad*
%ADD11O,1.600000X1.600000*%
G04 #@! TD*
G04 #@! TA.AperFunction,ComponentPad*
%ADD12R,1.950000X1.950000*%
G04 #@! TD*
G04 #@! TA.AperFunction,ComponentPad*
%ADD13C,1.950000*%
G04 #@! TD*
G04 #@! TA.AperFunction,ComponentPad*
%ADD14R,1.800000X1.800000*%
G04 #@! TD*
G04 #@! TA.AperFunction,ComponentPad*
%ADD15C,1.800000*%
G04 #@! TD*
G04 #@! TA.AperFunction,ComponentPad*
%ADD16C,6.400000*%
G04 #@! TD*
G04 #@! TA.AperFunction,Conductor*
%ADD17C,0.250000*%
G04 #@! TD*
G04 APERTURE END LIST*
D10*
X144780000Y-109220000D03*
D11*
X129540000Y-109220000D03*
D10*
X101600000Y-113030000D03*
D11*
X116840000Y-113030000D03*
D10*
X101600000Y-83820000D03*
D11*
X116840000Y-83820000D03*
D10*
X144780000Y-93980000D03*
D11*
X129540000Y-93980000D03*
D12*
X127000000Y-132080000D03*
D13*
X132080000Y-132080000D03*
X137160000Y-132080000D03*
X142240000Y-132080000D03*
X147320000Y-132080000D03*
X152400000Y-132080000D03*
D10*
X101600000Y-109220000D03*
D11*
X116840000Y-109220000D03*
D14*
X106680000Y-101600000D03*
D15*
X106680000Y-99060000D03*
D10*
X101600000Y-80010000D03*
D11*
X116840000Y-80010000D03*
D14*
X106680000Y-91440000D03*
D15*
X106680000Y-93980000D03*
D12*
X114655000Y-57150000D03*
D13*
X119735000Y-57150000D03*
X124815000Y-57150000D03*
X129895000Y-57150000D03*
X134975000Y-57150000D03*
X140055000Y-57150000D03*
X145135000Y-57150000D03*
X150215000Y-57150000D03*
X155295000Y-57150000D03*
X160375000Y-57150000D03*
X165455000Y-57150000D03*
X170535000Y-57150000D03*
X175615000Y-57150000D03*
X180695000Y-57150000D03*
D10*
X129540000Y-104140000D03*
D11*
X144780000Y-104140000D03*
D16*
X190500000Y-132080000D03*
D14*
X116840000Y-91440000D03*
D15*
X116840000Y-93980000D03*
D14*
X116840000Y-101600000D03*
D15*
X116840000Y-99060000D03*
D10*
X189230000Y-88900000D03*
X186690000Y-88900000D03*
X184150000Y-88900000D03*
X181610000Y-88900000D03*
X186690000Y-104140000D03*
X179070000Y-88900000D03*
X176530000Y-88900000D03*
X173990000Y-88900000D03*
X171450000Y-88900000D03*
X168910000Y-88900000D03*
X166370000Y-88900000D03*
X163830000Y-88900000D03*
X161290000Y-88900000D03*
X158750000Y-88900000D03*
X158750000Y-104140000D03*
X161290000Y-104140000D03*
X163830000Y-104140000D03*
X166370000Y-104140000D03*
X168910000Y-104140000D03*
X171450000Y-104140000D03*
X173990000Y-104140000D03*
X176530000Y-104140000D03*
X179070000Y-104140000D03*
X181610000Y-104140000D03*
X184150000Y-104140000D03*
X191770000Y-88900000D03*
X189230000Y-104140000D03*
X191770000Y-104140000D03*
D16*
X104140000Y-132089057D03*
D10*
X129540000Y-99060000D03*
D11*
X144780000Y-99060000D03*
D16*
X190500000Y-57150000D03*
X104140000Y-57150000D03*
D17*
X119126000Y-103886000D02*
X116840000Y-101600000D01*
X116840000Y-113030000D02*
X118364000Y-113030000D01*
X118364000Y-113030000D02*
X119126000Y-112268000D01*
X119126000Y-112268000D02*
X119126000Y-103886000D01*
X116840000Y-83820000D02*
X116840000Y-91440000D01*
X116840000Y-109220000D02*
X108204000Y-109220000D01*
X108204000Y-109220000D02*
X106680000Y-107696000D01*
X106680000Y-107696000D02*
X106680000Y-101600000D01*
X108458000Y-80010000D02*
X106680000Y-81788000D01*
X116840000Y-80010000D02*
X108458000Y-80010000D01*
X106680000Y-81788000D02*
X106680000Y-91440000D01*
X158242000Y-66795594D02*
X117087594Y-66795594D01*
X158750000Y-67303594D02*
X158242000Y-66795594D01*
X158750000Y-88900000D02*
X158750000Y-67303594D01*
X117087594Y-66795594D02*
X114655000Y-64363000D01*
X114655000Y-64363000D02*
X114655000Y-57150000D01*
X161290000Y-88900000D02*
X161290000Y-67107594D01*
X119735000Y-63601000D02*
X119735000Y-57150000D01*
X122479594Y-66345594D02*
X119735000Y-63601000D01*
X160528000Y-66345594D02*
X122479594Y-66345594D01*
X161290000Y-67107594D02*
X160528000Y-66345594D01*
X163830000Y-88900000D02*
X163830000Y-66403594D01*
X163322000Y-65895594D02*
X128125594Y-65895594D01*
X128125594Y-65895594D02*
X124815000Y-62585000D01*
X124815000Y-62585000D02*
X124815000Y-57150000D01*
X163830000Y-66403594D02*
X163322000Y-65895594D01*
X166370000Y-66802000D02*
X165013594Y-65445594D01*
X133263594Y-65445594D02*
X129895000Y-62077000D01*
X165013594Y-65445594D02*
X133263594Y-65445594D01*
X129895000Y-62077000D02*
X129895000Y-57150000D01*
X166370000Y-88900000D02*
X166370000Y-66802000D01*
X136623594Y-64995594D02*
X134975000Y-63347000D01*
X134975000Y-63347000D02*
X134975000Y-57150000D01*
X168910000Y-65757594D02*
X168148000Y-64995594D01*
X168148000Y-64995594D02*
X136623594Y-64995594D01*
X168910000Y-88900000D02*
X168910000Y-65757594D01*
X171450000Y-88900000D02*
X171450000Y-65053594D01*
X142015594Y-64545594D02*
X140055000Y-62585000D01*
X170942000Y-64545594D02*
X142015594Y-64545594D01*
X171450000Y-65053594D02*
X170942000Y-64545594D01*
X140055000Y-62585000D02*
X140055000Y-57150000D01*
X145135000Y-61569000D02*
X147661594Y-64095594D01*
X173061594Y-64095594D02*
X173990000Y-65024000D01*
X147661594Y-64095594D02*
X173061594Y-64095594D01*
X145135000Y-57150000D02*
X145135000Y-61569000D01*
X173990000Y-65024000D02*
X173990000Y-88900000D01*
X176530000Y-64778376D02*
X175397218Y-63645594D01*
X175397218Y-63645594D02*
X151783594Y-63645594D01*
X150215000Y-62077000D02*
X150215000Y-57150000D01*
X151783594Y-63645594D02*
X150215000Y-62077000D01*
X176530000Y-88900000D02*
X176530000Y-64778376D01*
X179070000Y-66681980D02*
X175583614Y-63195594D01*
X155295000Y-61061000D02*
X155295000Y-57150000D01*
X179070000Y-88900000D02*
X179070000Y-66681980D01*
X175583614Y-63195594D02*
X157429594Y-63195594D01*
X157429594Y-63195594D02*
X155295000Y-61061000D01*
X181610000Y-88900000D02*
X181610000Y-68585584D01*
X175770010Y-62745594D02*
X161805594Y-62745594D01*
X160375000Y-61315000D02*
X160375000Y-57150000D01*
X161805594Y-62745594D02*
X160375000Y-61315000D01*
X181610000Y-68585584D02*
X175770010Y-62745594D01*
X182886812Y-69226000D02*
X175956406Y-62295594D01*
X184150000Y-88900000D02*
X184150000Y-69734000D01*
X184150000Y-69734000D02*
X183642000Y-69226000D01*
X168213594Y-62295594D02*
X165455000Y-59537000D01*
X175956406Y-62295594D02*
X168213594Y-62295594D01*
X165455000Y-59537000D02*
X165455000Y-57150000D01*
X183642000Y-69226000D02*
X182886812Y-69226000D01*
X183073208Y-68776000D02*
X176019208Y-61722000D01*
X170535000Y-60045000D02*
X170535000Y-57150000D01*
X176019208Y-61722000D02*
X172212000Y-61722000D01*
X186690000Y-69538000D02*
X185928000Y-68776000D01*
X185928000Y-68776000D02*
X183073208Y-68776000D01*
X186690000Y-88900000D02*
X186690000Y-69538000D01*
X172212000Y-61722000D02*
X170535000Y-60045000D01*
X175615000Y-60681396D02*
X175615000Y-57150000D01*
X189230000Y-88900000D02*
X189230000Y-69088000D01*
X189230000Y-69088000D02*
X188468000Y-68326000D01*
X188468000Y-68326000D02*
X183259604Y-68326000D01*
X183259604Y-68326000D02*
X175615000Y-60681396D01*
X101600000Y-83820000D02*
X101600000Y-80010000D01*
X180695000Y-65125000D02*
X183388000Y-67818000D01*
X180695000Y-57150000D02*
X180695000Y-65125000D01*
X190754000Y-67818000D02*
X191770000Y-68834000D01*
X101600000Y-113030000D02*
X101600000Y-109220000D01*
X191770000Y-68834000D02*
X191770000Y-88900000D01*
X101600000Y-109220000D02*
X101600000Y-83820000D01*
X183388000Y-67818000D02*
X190754000Y-67818000D01*
X127000000Y-109982000D02*
X127762000Y-109220000D01*
X127762000Y-109220000D02*
X129540000Y-109220000D01*
X127000000Y-132080000D02*
X127000000Y-109982000D01*
X132080000Y-114300000D02*
X134366000Y-112014000D01*
X168910000Y-112014000D02*
X173990000Y-106934000D01*
X173990000Y-106934000D02*
X173990000Y-104140000D01*
X132080000Y-132080000D02*
X132080000Y-114300000D01*
X134366000Y-112014000D02*
X168910000Y-112014000D01*
X176530000Y-108966000D02*
X176530000Y-104140000D01*
X137160000Y-114300000D02*
X138996000Y-112464000D01*
X138996000Y-112464000D02*
X173032000Y-112464000D01*
X173032000Y-112464000D02*
X176530000Y-108966000D01*
X137160000Y-132080000D02*
X137160000Y-114300000D01*
X142240000Y-114300000D02*
X142240000Y-132080000D01*
X179070000Y-104140000D02*
X179070000Y-111252000D01*
X143626000Y-112914000D02*
X142240000Y-114300000D01*
X179070000Y-111252000D02*
X177408000Y-112914000D01*
X177408000Y-112914000D02*
X143626000Y-112914000D01*
X181610000Y-110998000D02*
X181610000Y-104140000D01*
X148336000Y-113364000D02*
X179244000Y-113364000D01*
X179244000Y-113364000D02*
X181610000Y-110998000D01*
X147320000Y-114380000D02*
X148336000Y-113364000D01*
X147320000Y-132080000D02*
X147320000Y-114380000D01*
X152886000Y-113814000D02*
X152400000Y-114300000D01*
X181842000Y-113814000D02*
X152886000Y-113814000D01*
X152400000Y-114300000D02*
X152400000Y-132080000D01*
X184150000Y-111506000D02*
X181842000Y-113814000D01*
X184150000Y-104140000D02*
X184150000Y-111506000D01*
X129540000Y-104140000D02*
X129540000Y-99060000D01*
X131826000Y-93980000D02*
X129540000Y-93980000D01*
X144780000Y-99060000D02*
X168148000Y-99060000D01*
X132080000Y-95758000D02*
X132080000Y-94234000D01*
X135382000Y-99060000D02*
X132080000Y-95758000D01*
X168148000Y-99060000D02*
X171450000Y-102362000D01*
X132080000Y-94234000D02*
X131826000Y-93980000D01*
X144780000Y-99060000D02*
X135382000Y-99060000D01*
X171450000Y-102362000D02*
X171450000Y-104140000D01*
X144780000Y-109220000D02*
X144780000Y-104140000D01*
X144780000Y-93980000D02*
X184404000Y-93980000D01*
X184404000Y-93980000D02*
X189230000Y-98806000D01*
X189230000Y-98806000D02*
X189230000Y-104140000D01*
G04 #@! TA.AperFunction,Conductor*
G36*
X134983433Y-56671269D02*
G01*
X135846546Y-57568801D01*
X135849811Y-57577140D01*
X135848377Y-57582527D01*
X135752176Y-57758357D01*
X135751593Y-57759311D01*
X135648822Y-57910762D01*
X135648311Y-57911459D01*
X135545770Y-58040850D01*
X135545507Y-58041170D01*
X135446248Y-58157696D01*
X135353531Y-58270364D01*
X135270632Y-58388202D01*
X135200689Y-58520398D01*
X135146844Y-58676138D01*
X135112234Y-58864609D01*
X135112214Y-58864986D01*
X135100588Y-59083920D01*
X135096727Y-59092000D01*
X135088904Y-59095000D01*
X134861096Y-59095000D01*
X134852823Y-59091573D01*
X134849412Y-59083920D01*
X134837785Y-58864986D01*
X134837765Y-58864609D01*
X134803155Y-58676138D01*
X134749310Y-58520398D01*
X134679367Y-58388202D01*
X134596468Y-58270364D01*
X134503751Y-58157696D01*
X134404492Y-58041170D01*
X134404229Y-58040850D01*
X134301688Y-57911459D01*
X134301177Y-57910762D01*
X134198406Y-57759311D01*
X134197823Y-57758357D01*
X134101623Y-57582527D01*
X134100658Y-57573624D01*
X134103454Y-57568801D01*
X134966567Y-56671269D01*
X134974771Y-56667681D01*
X134983433Y-56671269D01*
G37*
G04 #@! TD.AperFunction*
G04 #@! TA.AperFunction,Conductor*
G36*
X132202177Y-130138427D02*
G01*
X132205588Y-130146080D01*
X132217234Y-130365390D01*
X132251844Y-130553861D01*
X132305689Y-130709601D01*
X132375632Y-130841797D01*
X132458531Y-130959635D01*
X132551248Y-131072303D01*
X132650507Y-131188829D01*
X132650770Y-131189149D01*
X132753311Y-131318540D01*
X132753822Y-131319237D01*
X132856593Y-131470688D01*
X132857176Y-131471642D01*
X132953377Y-131647473D01*
X132954342Y-131656376D01*
X132951546Y-131661199D01*
X132088433Y-132558731D01*
X132080229Y-132562319D01*
X132071567Y-132558731D01*
X131208454Y-131661199D01*
X131205189Y-131652860D01*
X131206623Y-131647473D01*
X131302823Y-131471642D01*
X131303406Y-131470688D01*
X131406177Y-131319237D01*
X131406688Y-131318540D01*
X131509229Y-131189149D01*
X131509492Y-131188829D01*
X131608751Y-131072303D01*
X131701468Y-130959635D01*
X131784367Y-130841797D01*
X131854310Y-130709601D01*
X131908155Y-130553861D01*
X131942765Y-130365390D01*
X131954412Y-130146080D01*
X131958273Y-130138000D01*
X131966096Y-130135000D01*
X132193904Y-130135000D01*
X132202177Y-130138427D01*
G37*
G04 #@! TD.AperFunction*
G04 #@! TA.AperFunction,Conductor*
G36*
X170543433Y-56671269D02*
G01*
X171406546Y-57568801D01*
X171409811Y-57577140D01*
X171408377Y-57582527D01*
X171312176Y-57758357D01*
X171311593Y-57759311D01*
X171208822Y-57910762D01*
X171208311Y-57911459D01*
X171105770Y-58040850D01*
X171105507Y-58041170D01*
X171006248Y-58157696D01*
X170913531Y-58270364D01*
X170830632Y-58388202D01*
X170760689Y-58520398D01*
X170706844Y-58676138D01*
X170672234Y-58864609D01*
X170672214Y-58864986D01*
X170660588Y-59083920D01*
X170656727Y-59092000D01*
X170648904Y-59095000D01*
X170421096Y-59095000D01*
X170412823Y-59091573D01*
X170409412Y-59083920D01*
X170397785Y-58864986D01*
X170397765Y-58864609D01*
X170363155Y-58676138D01*
X170309310Y-58520398D01*
X170239367Y-58388202D01*
X170156468Y-58270364D01*
X170063751Y-58157696D01*
X169964492Y-58041170D01*
X169964229Y-58040850D01*
X169861688Y-57911459D01*
X169861177Y-57910762D01*
X169758406Y-57759311D01*
X169757823Y-57758357D01*
X169661623Y-57582527D01*
X169660658Y-57573624D01*
X169663454Y-57568801D01*
X170526567Y-56671269D01*
X170534771Y-56667681D01*
X170543433Y-56671269D01*
G37*
G04 #@! TD.AperFunction*
G04 #@! TA.AperFunction,Conductor*
G36*
X129197462Y-108505937D02*
G01*
X129446077Y-108745018D01*
X129810016Y-109095000D01*
X129931231Y-109211567D01*
X129934819Y-109219771D01*
X129931231Y-109228433D01*
X129772144Y-109381419D01*
X129197462Y-109934063D01*
X129189123Y-109937328D01*
X129183764Y-109935909D01*
X129042897Y-109859331D01*
X129041998Y-109858789D01*
X128918927Y-109776792D01*
X128918277Y-109776326D01*
X128812617Y-109694981D01*
X128812334Y-109694757D01*
X128716732Y-109616349D01*
X128716693Y-109616317D01*
X128623984Y-109543331D01*
X128623803Y-109543210D01*
X128623794Y-109543203D01*
X128582963Y-109515814D01*
X128527008Y-109478278D01*
X128486242Y-109457723D01*
X128418826Y-109423730D01*
X128418819Y-109423727D01*
X128418444Y-109423538D01*
X128290968Y-109381492D01*
X128137261Y-109354519D01*
X128136909Y-109354501D01*
X128136908Y-109354501D01*
X128117482Y-109353514D01*
X127961105Y-109345564D01*
X127953018Y-109341722D01*
X127950000Y-109333880D01*
X127950000Y-109106120D01*
X127953427Y-109097847D01*
X127961105Y-109094435D01*
X128115559Y-109086583D01*
X128136908Y-109085498D01*
X128136909Y-109085498D01*
X128137261Y-109085480D01*
X128290968Y-109058507D01*
X128418444Y-109016461D01*
X128418819Y-109016272D01*
X128418826Y-109016269D01*
X128486242Y-108982276D01*
X128527008Y-108961721D01*
X128582963Y-108924185D01*
X128623794Y-108896796D01*
X128623803Y-108896789D01*
X128623984Y-108896668D01*
X128716693Y-108823682D01*
X128812336Y-108745240D01*
X128812617Y-108745018D01*
X128918277Y-108663673D01*
X128918927Y-108663207D01*
X129041997Y-108581211D01*
X129042896Y-108580669D01*
X129183764Y-108504091D01*
X129192669Y-108503150D01*
X129197462Y-108505937D01*
G37*
G04 #@! TD.AperFunction*
G04 #@! TA.AperFunction,Conductor*
G36*
X184272153Y-87313427D02*
G01*
X184275564Y-87321105D01*
X184284519Y-87497261D01*
X184311492Y-87650968D01*
X184353538Y-87778444D01*
X184353727Y-87778819D01*
X184353730Y-87778826D01*
X184387723Y-87846242D01*
X184408278Y-87887008D01*
X184445814Y-87942963D01*
X184473203Y-87983794D01*
X184473210Y-87983803D01*
X184473331Y-87983984D01*
X184546317Y-88076693D01*
X184546349Y-88076732D01*
X184624757Y-88172334D01*
X184624981Y-88172617D01*
X184706326Y-88278277D01*
X184706792Y-88278927D01*
X184788789Y-88401998D01*
X184789331Y-88402897D01*
X184865909Y-88543764D01*
X184866850Y-88552669D01*
X184864063Y-88557462D01*
X184158433Y-89291231D01*
X184150229Y-89294819D01*
X184141567Y-89291231D01*
X183435937Y-88557462D01*
X183432672Y-88549123D01*
X183434091Y-88543764D01*
X183510669Y-88402896D01*
X183511211Y-88401997D01*
X183593207Y-88278927D01*
X183593673Y-88278277D01*
X183675018Y-88172617D01*
X183675242Y-88172334D01*
X183753650Y-88076732D01*
X183753682Y-88076693D01*
X183826668Y-87983984D01*
X183826789Y-87983803D01*
X183826796Y-87983794D01*
X183854185Y-87942963D01*
X183891721Y-87887008D01*
X183912276Y-87846242D01*
X183946269Y-87778826D01*
X183946272Y-87778819D01*
X183946461Y-87778444D01*
X183988507Y-87650968D01*
X184015480Y-87497261D01*
X184024435Y-87321105D01*
X184028278Y-87313017D01*
X184036120Y-87310000D01*
X184263880Y-87310000D01*
X184272153Y-87313427D01*
G37*
G04 #@! TD.AperFunction*
G04 #@! TA.AperFunction,Conductor*
G36*
X175623433Y-56671269D02*
G01*
X176486546Y-57568801D01*
X176489811Y-57577140D01*
X176488377Y-57582527D01*
X176392176Y-57758357D01*
X176391593Y-57759311D01*
X176288822Y-57910762D01*
X176288311Y-57911459D01*
X176185770Y-58040850D01*
X176185507Y-58041170D01*
X176086248Y-58157696D01*
X175993531Y-58270364D01*
X175910632Y-58388202D01*
X175840689Y-58520398D01*
X175786844Y-58676138D01*
X175752234Y-58864609D01*
X175752214Y-58864986D01*
X175740588Y-59083920D01*
X175736727Y-59092000D01*
X175728904Y-59095000D01*
X175501096Y-59095000D01*
X175492823Y-59091573D01*
X175489412Y-59083920D01*
X175477785Y-58864986D01*
X175477765Y-58864609D01*
X175443155Y-58676138D01*
X175389310Y-58520398D01*
X175319367Y-58388202D01*
X175236468Y-58270364D01*
X175143751Y-58157696D01*
X175044492Y-58041170D01*
X175044229Y-58040850D01*
X174941688Y-57911459D01*
X174941177Y-57910762D01*
X174838406Y-57759311D01*
X174837823Y-57758357D01*
X174741623Y-57582527D01*
X174740658Y-57573624D01*
X174743454Y-57568801D01*
X175606567Y-56671269D01*
X175614771Y-56667681D01*
X175623433Y-56671269D01*
G37*
G04 #@! TD.AperFunction*
G04 #@! TA.AperFunction,Conductor*
G36*
X144437462Y-98345937D02*
G01*
X144778321Y-98673725D01*
X144778322Y-98673725D01*
X145180000Y-99060000D01*
X144780000Y-99444661D01*
X144778408Y-99446192D01*
X144437462Y-99774063D01*
X144429123Y-99777328D01*
X144423764Y-99775909D01*
X144282897Y-99699331D01*
X144281998Y-99698789D01*
X144158927Y-99616792D01*
X144158277Y-99616326D01*
X144052617Y-99534981D01*
X144052334Y-99534757D01*
X143956732Y-99456349D01*
X143956693Y-99456317D01*
X143863984Y-99383331D01*
X143863803Y-99383210D01*
X143863794Y-99383203D01*
X143822963Y-99355814D01*
X143767008Y-99318278D01*
X143726242Y-99297723D01*
X143658826Y-99263730D01*
X143658819Y-99263727D01*
X143658444Y-99263538D01*
X143530968Y-99221492D01*
X143377261Y-99194519D01*
X143376909Y-99194501D01*
X143376908Y-99194501D01*
X143357482Y-99193514D01*
X143201105Y-99185564D01*
X143193018Y-99181722D01*
X143190000Y-99173880D01*
X143190000Y-98946120D01*
X143193427Y-98937847D01*
X143201105Y-98934435D01*
X143355559Y-98926583D01*
X143376908Y-98925498D01*
X143376909Y-98925498D01*
X143377261Y-98925480D01*
X143530968Y-98898507D01*
X143658444Y-98856461D01*
X143658819Y-98856272D01*
X143658826Y-98856269D01*
X143726242Y-98822276D01*
X143767008Y-98801721D01*
X143822963Y-98764185D01*
X143863794Y-98736796D01*
X143863803Y-98736789D01*
X143863984Y-98736668D01*
X143956693Y-98663682D01*
X144052336Y-98585240D01*
X144052617Y-98585018D01*
X144158277Y-98503673D01*
X144158927Y-98503207D01*
X144281997Y-98421211D01*
X144282896Y-98420669D01*
X144423764Y-98344091D01*
X144432669Y-98343150D01*
X144437462Y-98345937D01*
G37*
G04 #@! TD.AperFunction*
G04 #@! TA.AperFunction,Conductor*
G36*
X117196425Y-112314752D02*
G01*
X117330893Y-112397586D01*
X117332404Y-112398693D01*
X117458273Y-112507454D01*
X117459109Y-112508253D01*
X117573146Y-112628407D01*
X117573472Y-112628764D01*
X117679131Y-112749730D01*
X117779704Y-112860584D01*
X117878623Y-112950506D01*
X117979468Y-113008846D01*
X118085819Y-113024953D01*
X118087099Y-113024545D01*
X118087101Y-113024545D01*
X118200261Y-112988495D01*
X118201253Y-112988179D01*
X118321195Y-112894260D01*
X118329819Y-112891858D01*
X118336679Y-112895199D01*
X118497275Y-113055795D01*
X118500702Y-113064068D01*
X118496696Y-113072882D01*
X118381297Y-113173620D01*
X118379869Y-113174687D01*
X118263124Y-113248716D01*
X118261506Y-113249572D01*
X118150608Y-113297582D01*
X118149151Y-113298102D01*
X118042269Y-113328398D01*
X118041353Y-113328618D01*
X117936755Y-113349356D01*
X117936624Y-113349381D01*
X117833306Y-113368637D01*
X117833300Y-113368638D01*
X117833130Y-113368670D01*
X117758519Y-113387438D01*
X117730029Y-113394604D01*
X117730026Y-113394605D01*
X117729664Y-113394696D01*
X117729313Y-113394834D01*
X117729308Y-113394835D01*
X117625342Y-113435523D01*
X117624885Y-113435702D01*
X117624469Y-113435950D01*
X117624466Y-113435952D01*
X117517792Y-113499692D01*
X117517367Y-113499946D01*
X117412017Y-113590257D01*
X117403505Y-113593040D01*
X117398488Y-113591469D01*
X116453338Y-113037813D01*
X116447932Y-113030675D01*
X116449157Y-113021804D01*
X116451142Y-113019285D01*
X116461827Y-113009010D01*
X117182180Y-112316281D01*
X117190518Y-112313016D01*
X117196425Y-112314752D01*
G37*
G04 #@! TD.AperFunction*
G04 #@! TA.AperFunction,Conductor*
G36*
X171572153Y-102553427D02*
G01*
X171575564Y-102561105D01*
X171584519Y-102737261D01*
X171611492Y-102890968D01*
X171653538Y-103018444D01*
X171653727Y-103018819D01*
X171653730Y-103018826D01*
X171687723Y-103086242D01*
X171708278Y-103127008D01*
X171745814Y-103182963D01*
X171773203Y-103223794D01*
X171773210Y-103223803D01*
X171773331Y-103223984D01*
X171846317Y-103316693D01*
X171846349Y-103316732D01*
X171924757Y-103412334D01*
X171924981Y-103412617D01*
X172006326Y-103518277D01*
X172006792Y-103518927D01*
X172088789Y-103641998D01*
X172089331Y-103642897D01*
X172165909Y-103783764D01*
X172166850Y-103792669D01*
X172164063Y-103797462D01*
X171458433Y-104531231D01*
X171450229Y-104534819D01*
X171441567Y-104531231D01*
X170735937Y-103797462D01*
X170732672Y-103789123D01*
X170734091Y-103783764D01*
X170810669Y-103642896D01*
X170811211Y-103641997D01*
X170893207Y-103518927D01*
X170893673Y-103518277D01*
X170975018Y-103412617D01*
X170975242Y-103412334D01*
X171053650Y-103316732D01*
X171053682Y-103316693D01*
X171126668Y-103223984D01*
X171126789Y-103223803D01*
X171126796Y-103223794D01*
X171154185Y-103182963D01*
X171191721Y-103127008D01*
X171212276Y-103086242D01*
X171246269Y-103018826D01*
X171246272Y-103018819D01*
X171246461Y-103018444D01*
X171288507Y-102890968D01*
X171315480Y-102737261D01*
X171324435Y-102561105D01*
X171328278Y-102553017D01*
X171336120Y-102550000D01*
X171563880Y-102550000D01*
X171572153Y-102553427D01*
G37*
G04 #@! TD.AperFunction*
G04 #@! TA.AperFunction,Conductor*
G36*
X137282177Y-130138427D02*
G01*
X137285588Y-130146080D01*
X137297234Y-130365390D01*
X137331844Y-130553861D01*
X137385689Y-130709601D01*
X137455632Y-130841797D01*
X137538531Y-130959635D01*
X137631248Y-131072303D01*
X137730507Y-131188829D01*
X137730770Y-131189149D01*
X137833311Y-131318540D01*
X137833822Y-131319237D01*
X137936593Y-131470688D01*
X137937176Y-131471642D01*
X138033377Y-131647473D01*
X138034342Y-131656376D01*
X138031546Y-131661199D01*
X137168433Y-132558731D01*
X137160229Y-132562319D01*
X137151567Y-132558731D01*
X136288454Y-131661199D01*
X136285189Y-131652860D01*
X136286623Y-131647473D01*
X136382823Y-131471642D01*
X136383406Y-131470688D01*
X136486177Y-131319237D01*
X136486688Y-131318540D01*
X136589229Y-131189149D01*
X136589492Y-131188829D01*
X136688751Y-131072303D01*
X136781468Y-130959635D01*
X136864367Y-130841797D01*
X136934310Y-130709601D01*
X136988155Y-130553861D01*
X137022765Y-130365390D01*
X137034412Y-130146080D01*
X137038273Y-130138000D01*
X137046096Y-130135000D01*
X137273904Y-130135000D01*
X137282177Y-130138427D01*
G37*
G04 #@! TD.AperFunction*
G04 #@! TA.AperFunction,Conductor*
G36*
X101986192Y-109221592D02*
G01*
X102314063Y-109562538D01*
X102317328Y-109570877D01*
X102315909Y-109576236D01*
X102239331Y-109717102D01*
X102238789Y-109718001D01*
X102156792Y-109841072D01*
X102156326Y-109841722D01*
X102074981Y-109947382D01*
X102074759Y-109947663D01*
X101996317Y-110043306D01*
X101923331Y-110136015D01*
X101923210Y-110136196D01*
X101923203Y-110136205D01*
X101895814Y-110177036D01*
X101858278Y-110232991D01*
X101858115Y-110233315D01*
X101803730Y-110341173D01*
X101803727Y-110341180D01*
X101803538Y-110341555D01*
X101761492Y-110469031D01*
X101734519Y-110622738D01*
X101734501Y-110623090D01*
X101734501Y-110623091D01*
X101725565Y-110798894D01*
X101721723Y-110806982D01*
X101713880Y-110810000D01*
X101486120Y-110810000D01*
X101477847Y-110806573D01*
X101474435Y-110798894D01*
X101465498Y-110623091D01*
X101465498Y-110623090D01*
X101465480Y-110622738D01*
X101438507Y-110469031D01*
X101396461Y-110341555D01*
X101396272Y-110341180D01*
X101396269Y-110341173D01*
X101341884Y-110233315D01*
X101341721Y-110232991D01*
X101304185Y-110177036D01*
X101276796Y-110136205D01*
X101276789Y-110136196D01*
X101276668Y-110136015D01*
X101203682Y-110043306D01*
X101125240Y-109947663D01*
X101125018Y-109947382D01*
X101043673Y-109841722D01*
X101043207Y-109841072D01*
X101027363Y-109817291D01*
X100961202Y-109717989D01*
X100960676Y-109717116D01*
X100884091Y-109576236D01*
X100883150Y-109567331D01*
X100885937Y-109562538D01*
X101213725Y-109221679D01*
X101213725Y-109221678D01*
X101600000Y-108820000D01*
X101986192Y-109221592D01*
G37*
G04 #@! TD.AperFunction*
G04 #@! TA.AperFunction,Conductor*
G36*
X124823433Y-56671269D02*
G01*
X125686546Y-57568801D01*
X125689811Y-57577140D01*
X125688377Y-57582527D01*
X125592176Y-57758357D01*
X125591593Y-57759311D01*
X125488822Y-57910762D01*
X125488311Y-57911459D01*
X125385770Y-58040850D01*
X125385507Y-58041170D01*
X125286248Y-58157696D01*
X125193531Y-58270364D01*
X125110632Y-58388202D01*
X125040689Y-58520398D01*
X124986844Y-58676138D01*
X124952234Y-58864609D01*
X124952214Y-58864986D01*
X124940588Y-59083920D01*
X124936727Y-59092000D01*
X124928904Y-59095000D01*
X124701096Y-59095000D01*
X124692823Y-59091573D01*
X124689412Y-59083920D01*
X124677785Y-58864986D01*
X124677765Y-58864609D01*
X124643155Y-58676138D01*
X124589310Y-58520398D01*
X124519367Y-58388202D01*
X124436468Y-58270364D01*
X124343751Y-58157696D01*
X124244492Y-58041170D01*
X124244229Y-58040850D01*
X124141688Y-57911459D01*
X124141177Y-57910762D01*
X124038406Y-57759311D01*
X124037823Y-57758357D01*
X123941623Y-57582527D01*
X123940658Y-57573624D01*
X123943454Y-57568801D01*
X124806567Y-56671269D01*
X124814771Y-56667681D01*
X124823433Y-56671269D01*
G37*
G04 #@! TD.AperFunction*
G04 #@! TA.AperFunction,Conductor*
G36*
X129662153Y-102553427D02*
G01*
X129665564Y-102561105D01*
X129674519Y-102737261D01*
X129701492Y-102890968D01*
X129743538Y-103018444D01*
X129743727Y-103018819D01*
X129743730Y-103018826D01*
X129777723Y-103086242D01*
X129798278Y-103127008D01*
X129835814Y-103182963D01*
X129863203Y-103223794D01*
X129863210Y-103223803D01*
X129863331Y-103223984D01*
X129936317Y-103316693D01*
X129936349Y-103316732D01*
X130014757Y-103412334D01*
X130014981Y-103412617D01*
X130096326Y-103518277D01*
X130096792Y-103518927D01*
X130178789Y-103641998D01*
X130179331Y-103642897D01*
X130255909Y-103783764D01*
X130256850Y-103792669D01*
X130254063Y-103797462D01*
X129548433Y-104531231D01*
X129540229Y-104534819D01*
X129531567Y-104531231D01*
X128825937Y-103797462D01*
X128822672Y-103789123D01*
X128824091Y-103783764D01*
X128900669Y-103642896D01*
X128901211Y-103641997D01*
X128983207Y-103518927D01*
X128983673Y-103518277D01*
X129065018Y-103412617D01*
X129065242Y-103412334D01*
X129143650Y-103316732D01*
X129143682Y-103316693D01*
X129216668Y-103223984D01*
X129216789Y-103223803D01*
X129216796Y-103223794D01*
X129244185Y-103182963D01*
X129281721Y-103127008D01*
X129302276Y-103086242D01*
X129336269Y-103018826D01*
X129336272Y-103018819D01*
X129336461Y-103018444D01*
X129378507Y-102890968D01*
X129405480Y-102737261D01*
X129414435Y-102561105D01*
X129418278Y-102553017D01*
X129426120Y-102550000D01*
X129653880Y-102550000D01*
X129662153Y-102553427D01*
G37*
G04 #@! TD.AperFunction*
G04 #@! TA.AperFunction,Conductor*
G36*
X161412153Y-87313427D02*
G01*
X161415564Y-87321105D01*
X161424519Y-87497261D01*
X161451492Y-87650968D01*
X161493538Y-87778444D01*
X161493727Y-87778819D01*
X161493730Y-87778826D01*
X161527723Y-87846242D01*
X161548278Y-87887008D01*
X161585814Y-87942963D01*
X161613203Y-87983794D01*
X161613210Y-87983803D01*
X161613331Y-87983984D01*
X161686317Y-88076693D01*
X161686349Y-88076732D01*
X161764757Y-88172334D01*
X161764981Y-88172617D01*
X161846326Y-88278277D01*
X161846792Y-88278927D01*
X161928789Y-88401998D01*
X161929331Y-88402897D01*
X162005909Y-88543764D01*
X162006850Y-88552669D01*
X162004063Y-88557462D01*
X161298433Y-89291231D01*
X161290229Y-89294819D01*
X161281567Y-89291231D01*
X160575937Y-88557462D01*
X160572672Y-88549123D01*
X160574091Y-88543764D01*
X160650669Y-88402896D01*
X160651211Y-88401997D01*
X160733207Y-88278927D01*
X160733673Y-88278277D01*
X160815018Y-88172617D01*
X160815242Y-88172334D01*
X160893650Y-88076732D01*
X160893682Y-88076693D01*
X160966668Y-87983984D01*
X160966789Y-87983803D01*
X160966796Y-87983794D01*
X160994185Y-87942963D01*
X161031721Y-87887008D01*
X161052276Y-87846242D01*
X161086269Y-87778826D01*
X161086272Y-87778819D01*
X161086461Y-87778444D01*
X161128507Y-87650968D01*
X161155480Y-87497261D01*
X161164435Y-87321105D01*
X161168278Y-87313017D01*
X161176120Y-87310000D01*
X161403880Y-87310000D01*
X161412153Y-87313427D01*
G37*
G04 #@! TD.AperFunction*
G04 #@! TA.AperFunction,Conductor*
G36*
X114663433Y-56671269D02*
G01*
X115526546Y-57568801D01*
X115529811Y-57577140D01*
X115528377Y-57582527D01*
X115432176Y-57758357D01*
X115431593Y-57759311D01*
X115328822Y-57910762D01*
X115328311Y-57911459D01*
X115225770Y-58040850D01*
X115225507Y-58041170D01*
X115126248Y-58157696D01*
X115033531Y-58270364D01*
X114950632Y-58388202D01*
X114880689Y-58520398D01*
X114826844Y-58676138D01*
X114792234Y-58864609D01*
X114792214Y-58864986D01*
X114780588Y-59083920D01*
X114776727Y-59092000D01*
X114768904Y-59095000D01*
X114541096Y-59095000D01*
X114532823Y-59091573D01*
X114529412Y-59083920D01*
X114517785Y-58864986D01*
X114517765Y-58864609D01*
X114483155Y-58676138D01*
X114429310Y-58520398D01*
X114359367Y-58388202D01*
X114276468Y-58270364D01*
X114183751Y-58157696D01*
X114084492Y-58041170D01*
X114084229Y-58040850D01*
X113981688Y-57911459D01*
X113981177Y-57910762D01*
X113878406Y-57759311D01*
X113877823Y-57758357D01*
X113781623Y-57582527D01*
X113780658Y-57573624D01*
X113783454Y-57568801D01*
X114646567Y-56671269D01*
X114654771Y-56667681D01*
X114663433Y-56671269D01*
G37*
G04 #@! TD.AperFunction*
G04 #@! TA.AperFunction,Conductor*
G36*
X179078433Y-103748769D02*
G01*
X179784063Y-104482538D01*
X179787328Y-104490877D01*
X179785909Y-104496236D01*
X179709331Y-104637102D01*
X179708789Y-104638001D01*
X179626792Y-104761072D01*
X179626326Y-104761722D01*
X179544981Y-104867382D01*
X179544759Y-104867663D01*
X179466317Y-104963306D01*
X179393331Y-105056015D01*
X179393210Y-105056196D01*
X179393203Y-105056205D01*
X179365814Y-105097036D01*
X179328278Y-105152991D01*
X179328115Y-105153315D01*
X179273730Y-105261173D01*
X179273727Y-105261180D01*
X179273538Y-105261555D01*
X179231492Y-105389031D01*
X179204519Y-105542738D01*
X179204501Y-105543090D01*
X179204501Y-105543091D01*
X179195565Y-105718894D01*
X179191723Y-105726982D01*
X179183880Y-105730000D01*
X178956120Y-105730000D01*
X178947847Y-105726573D01*
X178944435Y-105718894D01*
X178935498Y-105543091D01*
X178935498Y-105543090D01*
X178935480Y-105542738D01*
X178908507Y-105389031D01*
X178866461Y-105261555D01*
X178866272Y-105261180D01*
X178866269Y-105261173D01*
X178811884Y-105153315D01*
X178811721Y-105152991D01*
X178774185Y-105097036D01*
X178746796Y-105056205D01*
X178746789Y-105056196D01*
X178746668Y-105056015D01*
X178673682Y-104963306D01*
X178595240Y-104867663D01*
X178595018Y-104867382D01*
X178513673Y-104761722D01*
X178513207Y-104761072D01*
X178497363Y-104737291D01*
X178431202Y-104637989D01*
X178430676Y-104637116D01*
X178354091Y-104496236D01*
X178353150Y-104487331D01*
X178355937Y-104482538D01*
X179061567Y-103748769D01*
X179069771Y-103745181D01*
X179078433Y-103748769D01*
G37*
G04 #@! TD.AperFunction*
G04 #@! TA.AperFunction,Conductor*
G36*
X158872153Y-87313427D02*
G01*
X158875564Y-87321105D01*
X158884519Y-87497261D01*
X158911492Y-87650968D01*
X158953538Y-87778444D01*
X158953727Y-87778819D01*
X158953730Y-87778826D01*
X158987723Y-87846242D01*
X159008278Y-87887008D01*
X159045814Y-87942963D01*
X159073203Y-87983794D01*
X159073210Y-87983803D01*
X159073331Y-87983984D01*
X159146317Y-88076693D01*
X159146349Y-88076732D01*
X159224757Y-88172334D01*
X159224981Y-88172617D01*
X159306326Y-88278277D01*
X159306792Y-88278927D01*
X159388789Y-88401998D01*
X159389331Y-88402897D01*
X159465909Y-88543764D01*
X159466850Y-88552669D01*
X159464063Y-88557462D01*
X158758433Y-89291231D01*
X158750229Y-89294819D01*
X158741567Y-89291231D01*
X158035937Y-88557462D01*
X158032672Y-88549123D01*
X158034091Y-88543764D01*
X158110669Y-88402896D01*
X158111211Y-88401997D01*
X158193207Y-88278927D01*
X158193673Y-88278277D01*
X158275018Y-88172617D01*
X158275242Y-88172334D01*
X158353650Y-88076732D01*
X158353682Y-88076693D01*
X158426668Y-87983984D01*
X158426789Y-87983803D01*
X158426796Y-87983794D01*
X158454185Y-87942963D01*
X158491721Y-87887008D01*
X158512276Y-87846242D01*
X158546269Y-87778826D01*
X158546272Y-87778819D01*
X158546461Y-87778444D01*
X158588507Y-87650968D01*
X158615480Y-87497261D01*
X158624435Y-87321105D01*
X158628278Y-87313017D01*
X158636120Y-87310000D01*
X158863880Y-87310000D01*
X158872153Y-87313427D01*
G37*
G04 #@! TD.AperFunction*
G04 #@! TA.AperFunction,Conductor*
G36*
X106802170Y-89653427D02*
G01*
X106805581Y-89661088D01*
X106816084Y-89861538D01*
X106847455Y-90034781D01*
X106896289Y-90178108D01*
X106896496Y-90178504D01*
X106896498Y-90178510D01*
X106926903Y-90236848D01*
X106959765Y-90299901D01*
X107035059Y-90408537D01*
X107035188Y-90408696D01*
X107035194Y-90408704D01*
X107119348Y-90512399D01*
X107209701Y-90619738D01*
X107209919Y-90620006D01*
X107260148Y-90683964D01*
X107303358Y-90738986D01*
X107303855Y-90739668D01*
X107397652Y-90878682D01*
X107398222Y-90879619D01*
X107485888Y-91040169D01*
X107486845Y-91049072D01*
X107484053Y-91053884D01*
X106688433Y-91881231D01*
X106680229Y-91884819D01*
X106671567Y-91881231D01*
X105875947Y-91053885D01*
X105872683Y-91045547D01*
X105874112Y-91040169D01*
X105961777Y-90879619D01*
X105962347Y-90878682D01*
X106056144Y-90739668D01*
X106056641Y-90738986D01*
X106099851Y-90683964D01*
X106150080Y-90620006D01*
X106150298Y-90619738D01*
X106240651Y-90512399D01*
X106324805Y-90408704D01*
X106324811Y-90408696D01*
X106324940Y-90408537D01*
X106400234Y-90299901D01*
X106433096Y-90236848D01*
X106463501Y-90178510D01*
X106463503Y-90178504D01*
X106463710Y-90178108D01*
X106512544Y-90034781D01*
X106543915Y-89861538D01*
X106554419Y-89661088D01*
X106558274Y-89653005D01*
X106566103Y-89650000D01*
X106793897Y-89650000D01*
X106802170Y-89653427D01*
G37*
G04 #@! TD.AperFunction*
G04 #@! TA.AperFunction,Conductor*
G36*
X145143433Y-56671269D02*
G01*
X146006546Y-57568801D01*
X146009811Y-57577140D01*
X146008377Y-57582527D01*
X145912176Y-57758357D01*
X145911593Y-57759311D01*
X145808822Y-57910762D01*
X145808311Y-57911459D01*
X145705770Y-58040850D01*
X145705507Y-58041170D01*
X145606248Y-58157696D01*
X145513531Y-58270364D01*
X145430632Y-58388202D01*
X145360689Y-58520398D01*
X145306844Y-58676138D01*
X145272234Y-58864609D01*
X145272214Y-58864986D01*
X145260588Y-59083920D01*
X145256727Y-59092000D01*
X145248904Y-59095000D01*
X145021096Y-59095000D01*
X145012823Y-59091573D01*
X145009412Y-59083920D01*
X144997785Y-58864986D01*
X144997765Y-58864609D01*
X144963155Y-58676138D01*
X144909310Y-58520398D01*
X144839367Y-58388202D01*
X144756468Y-58270364D01*
X144663751Y-58157696D01*
X144564492Y-58041170D01*
X144564229Y-58040850D01*
X144461688Y-57911459D01*
X144461177Y-57910762D01*
X144358406Y-57759311D01*
X144357823Y-57758357D01*
X144261623Y-57582527D01*
X144260658Y-57573624D01*
X144263454Y-57568801D01*
X145126567Y-56671269D01*
X145134771Y-56667681D01*
X145143433Y-56671269D01*
G37*
G04 #@! TD.AperFunction*
G04 #@! TA.AperFunction,Conductor*
G36*
X145136237Y-93264091D02*
G01*
X145277116Y-93340676D01*
X145277989Y-93341202D01*
X145377291Y-93407363D01*
X145401072Y-93423207D01*
X145401722Y-93423673D01*
X145507382Y-93505018D01*
X145507663Y-93505240D01*
X145603306Y-93583682D01*
X145696015Y-93656668D01*
X145696196Y-93656789D01*
X145696205Y-93656796D01*
X145737036Y-93684185D01*
X145792991Y-93721721D01*
X145833757Y-93742276D01*
X145901173Y-93776269D01*
X145901180Y-93776272D01*
X145901555Y-93776461D01*
X146029031Y-93818507D01*
X146182738Y-93845480D01*
X146183090Y-93845498D01*
X146183091Y-93845498D01*
X146204330Y-93846578D01*
X146358895Y-93854435D01*
X146366983Y-93858278D01*
X146370000Y-93866120D01*
X146370000Y-94093880D01*
X146366573Y-94102153D01*
X146358895Y-94105564D01*
X146202432Y-94113518D01*
X146183091Y-94114501D01*
X146183090Y-94114501D01*
X146182738Y-94114519D01*
X146029031Y-94141492D01*
X145901555Y-94183538D01*
X145901180Y-94183727D01*
X145901173Y-94183730D01*
X145833757Y-94217723D01*
X145792991Y-94238278D01*
X145737036Y-94275814D01*
X145696205Y-94303203D01*
X145696196Y-94303210D01*
X145696015Y-94303331D01*
X145603306Y-94376317D01*
X145603267Y-94376349D01*
X145507665Y-94454757D01*
X145507382Y-94454981D01*
X145401722Y-94536326D01*
X145401072Y-94536792D01*
X145278001Y-94618789D01*
X145277102Y-94619331D01*
X145136236Y-94695909D01*
X145127331Y-94696850D01*
X145122538Y-94694063D01*
X144547856Y-94141419D01*
X144388769Y-93988433D01*
X144385181Y-93980229D01*
X144388769Y-93971567D01*
X144509985Y-93855000D01*
X144873923Y-93505018D01*
X145122538Y-93265937D01*
X145130877Y-93262672D01*
X145136237Y-93264091D01*
G37*
G04 #@! TD.AperFunction*
G04 #@! TA.AperFunction,Conductor*
G36*
X129903433Y-56671269D02*
G01*
X130766546Y-57568801D01*
X130769811Y-57577140D01*
X130768377Y-57582527D01*
X130672176Y-57758357D01*
X130671593Y-57759311D01*
X130568822Y-57910762D01*
X130568311Y-57911459D01*
X130465770Y-58040850D01*
X130465507Y-58041170D01*
X130366248Y-58157696D01*
X130273531Y-58270364D01*
X130190632Y-58388202D01*
X130120689Y-58520398D01*
X130066844Y-58676138D01*
X130032234Y-58864609D01*
X130032214Y-58864986D01*
X130020588Y-59083920D01*
X130016727Y-59092000D01*
X130008904Y-59095000D01*
X129781096Y-59095000D01*
X129772823Y-59091573D01*
X129769412Y-59083920D01*
X129757785Y-58864986D01*
X129757765Y-58864609D01*
X129723155Y-58676138D01*
X129669310Y-58520398D01*
X129599367Y-58388202D01*
X129516468Y-58270364D01*
X129423751Y-58157696D01*
X129324492Y-58041170D01*
X129324229Y-58040850D01*
X129221688Y-57911459D01*
X129221177Y-57910762D01*
X129118406Y-57759311D01*
X129117823Y-57758357D01*
X129021623Y-57582527D01*
X129020658Y-57573624D01*
X129023454Y-57568801D01*
X129886567Y-56671269D01*
X129894771Y-56667681D01*
X129903433Y-56671269D01*
G37*
G04 #@! TD.AperFunction*
G04 #@! TA.AperFunction,Conductor*
G36*
X189352153Y-87313427D02*
G01*
X189355564Y-87321105D01*
X189364519Y-87497261D01*
X189391492Y-87650968D01*
X189433538Y-87778444D01*
X189433727Y-87778819D01*
X189433730Y-87778826D01*
X189467723Y-87846242D01*
X189488278Y-87887008D01*
X189525814Y-87942963D01*
X189553203Y-87983794D01*
X189553210Y-87983803D01*
X189553331Y-87983984D01*
X189626317Y-88076693D01*
X189626349Y-88076732D01*
X189704757Y-88172334D01*
X189704981Y-88172617D01*
X189786326Y-88278277D01*
X189786792Y-88278927D01*
X189868789Y-88401998D01*
X189869331Y-88402897D01*
X189945909Y-88543764D01*
X189946850Y-88552669D01*
X189944063Y-88557462D01*
X189238433Y-89291231D01*
X189230229Y-89294819D01*
X189221567Y-89291231D01*
X188515937Y-88557462D01*
X188512672Y-88549123D01*
X188514091Y-88543764D01*
X188590669Y-88402896D01*
X188591211Y-88401997D01*
X188673207Y-88278927D01*
X188673673Y-88278277D01*
X188755018Y-88172617D01*
X188755242Y-88172334D01*
X188833650Y-88076732D01*
X188833682Y-88076693D01*
X188906668Y-87983984D01*
X188906789Y-87983803D01*
X188906796Y-87983794D01*
X188934185Y-87942963D01*
X188971721Y-87887008D01*
X188992276Y-87846242D01*
X189026269Y-87778826D01*
X189026272Y-87778819D01*
X189026461Y-87778444D01*
X189068507Y-87650968D01*
X189095480Y-87497261D01*
X189104435Y-87321105D01*
X189108278Y-87313017D01*
X189116120Y-87310000D01*
X189343880Y-87310000D01*
X189352153Y-87313427D01*
G37*
G04 #@! TD.AperFunction*
G04 #@! TA.AperFunction,Conductor*
G36*
X181618433Y-103748769D02*
G01*
X182324063Y-104482538D01*
X182327328Y-104490877D01*
X182325909Y-104496236D01*
X182249331Y-104637102D01*
X182248789Y-104638001D01*
X182166792Y-104761072D01*
X182166326Y-104761722D01*
X182084981Y-104867382D01*
X182084759Y-104867663D01*
X182006317Y-104963306D01*
X181933331Y-105056015D01*
X181933210Y-105056196D01*
X181933203Y-105056205D01*
X181905814Y-105097036D01*
X181868278Y-105152991D01*
X181868115Y-105153315D01*
X181813730Y-105261173D01*
X181813727Y-105261180D01*
X181813538Y-105261555D01*
X181771492Y-105389031D01*
X181744519Y-105542738D01*
X181744501Y-105543090D01*
X181744501Y-105543091D01*
X181735565Y-105718894D01*
X181731723Y-105726982D01*
X181723880Y-105730000D01*
X181496120Y-105730000D01*
X181487847Y-105726573D01*
X181484435Y-105718894D01*
X181475498Y-105543091D01*
X181475498Y-105543090D01*
X181475480Y-105542738D01*
X181448507Y-105389031D01*
X181406461Y-105261555D01*
X181406272Y-105261180D01*
X181406269Y-105261173D01*
X181351884Y-105153315D01*
X181351721Y-105152991D01*
X181314185Y-105097036D01*
X181286796Y-105056205D01*
X181286789Y-105056196D01*
X181286668Y-105056015D01*
X181213682Y-104963306D01*
X181135240Y-104867663D01*
X181135018Y-104867382D01*
X181053673Y-104761722D01*
X181053207Y-104761072D01*
X181037363Y-104737291D01*
X180971202Y-104637989D01*
X180970676Y-104637116D01*
X180894091Y-104496236D01*
X180893150Y-104487331D01*
X180895937Y-104482538D01*
X181601567Y-103748769D01*
X181609771Y-103745181D01*
X181618433Y-103748769D01*
G37*
G04 #@! TD.AperFunction*
G04 #@! TA.AperFunction,Conductor*
G36*
X160383433Y-56671269D02*
G01*
X161246546Y-57568801D01*
X161249811Y-57577140D01*
X161248377Y-57582527D01*
X161152176Y-57758357D01*
X161151593Y-57759311D01*
X161048822Y-57910762D01*
X161048311Y-57911459D01*
X160945770Y-58040850D01*
X160945507Y-58041170D01*
X160846248Y-58157696D01*
X160753531Y-58270364D01*
X160670632Y-58388202D01*
X160600689Y-58520398D01*
X160546844Y-58676138D01*
X160512234Y-58864609D01*
X160512214Y-58864986D01*
X160500588Y-59083920D01*
X160496727Y-59092000D01*
X160488904Y-59095000D01*
X160261096Y-59095000D01*
X160252823Y-59091573D01*
X160249412Y-59083920D01*
X160237785Y-58864986D01*
X160237765Y-58864609D01*
X160203155Y-58676138D01*
X160149310Y-58520398D01*
X160079367Y-58388202D01*
X159996468Y-58270364D01*
X159903751Y-58157696D01*
X159804492Y-58041170D01*
X159804229Y-58040850D01*
X159701688Y-57911459D01*
X159701177Y-57910762D01*
X159598406Y-57759311D01*
X159597823Y-57758357D01*
X159501623Y-57582527D01*
X159500658Y-57573624D01*
X159503454Y-57568801D01*
X160366567Y-56671269D01*
X160374771Y-56667681D01*
X160383433Y-56671269D01*
G37*
G04 #@! TD.AperFunction*
G04 #@! TA.AperFunction,Conductor*
G36*
X140063433Y-56671269D02*
G01*
X140926546Y-57568801D01*
X140929811Y-57577140D01*
X140928377Y-57582527D01*
X140832176Y-57758357D01*
X140831593Y-57759311D01*
X140728822Y-57910762D01*
X140728311Y-57911459D01*
X140625770Y-58040850D01*
X140625507Y-58041170D01*
X140526248Y-58157696D01*
X140433531Y-58270364D01*
X140350632Y-58388202D01*
X140280689Y-58520398D01*
X140226844Y-58676138D01*
X140192234Y-58864609D01*
X140192214Y-58864986D01*
X140180588Y-59083920D01*
X140176727Y-59092000D01*
X140168904Y-59095000D01*
X139941096Y-59095000D01*
X139932823Y-59091573D01*
X139929412Y-59083920D01*
X139917785Y-58864986D01*
X139917765Y-58864609D01*
X139883155Y-58676138D01*
X139829310Y-58520398D01*
X139759367Y-58388202D01*
X139676468Y-58270364D01*
X139583751Y-58157696D01*
X139484492Y-58041170D01*
X139484229Y-58040850D01*
X139381688Y-57911459D01*
X139381177Y-57910762D01*
X139278406Y-57759311D01*
X139277823Y-57758357D01*
X139181623Y-57582527D01*
X139180658Y-57573624D01*
X139183454Y-57568801D01*
X140046567Y-56671269D01*
X140054771Y-56667681D01*
X140063433Y-56671269D01*
G37*
G04 #@! TD.AperFunction*
G04 #@! TA.AperFunction,Conductor*
G36*
X116848433Y-83428769D02*
G01*
X117554063Y-84162538D01*
X117557328Y-84170877D01*
X117555909Y-84176236D01*
X117479331Y-84317102D01*
X117478789Y-84318001D01*
X117396792Y-84441072D01*
X117396326Y-84441722D01*
X117314981Y-84547382D01*
X117314759Y-84547663D01*
X117236317Y-84643306D01*
X117163331Y-84736015D01*
X117163210Y-84736196D01*
X117163203Y-84736205D01*
X117135814Y-84777036D01*
X117098278Y-84832991D01*
X117098115Y-84833315D01*
X117043730Y-84941173D01*
X117043727Y-84941180D01*
X117043538Y-84941555D01*
X117001492Y-85069031D01*
X116974519Y-85222738D01*
X116974501Y-85223090D01*
X116974501Y-85223091D01*
X116965565Y-85398894D01*
X116961723Y-85406982D01*
X116953880Y-85410000D01*
X116726120Y-85410000D01*
X116717847Y-85406573D01*
X116714435Y-85398894D01*
X116705498Y-85223091D01*
X116705498Y-85223090D01*
X116705480Y-85222738D01*
X116678507Y-85069031D01*
X116636461Y-84941555D01*
X116636272Y-84941180D01*
X116636269Y-84941173D01*
X116581884Y-84833315D01*
X116581721Y-84832991D01*
X116544185Y-84777036D01*
X116516796Y-84736205D01*
X116516789Y-84736196D01*
X116516668Y-84736015D01*
X116443682Y-84643306D01*
X116365240Y-84547663D01*
X116365018Y-84547382D01*
X116283673Y-84441722D01*
X116283207Y-84441072D01*
X116267363Y-84417291D01*
X116201202Y-84317989D01*
X116200676Y-84317116D01*
X116124091Y-84176236D01*
X116123150Y-84167331D01*
X116125937Y-84162538D01*
X116831567Y-83428769D01*
X116839771Y-83425181D01*
X116848433Y-83428769D01*
G37*
G04 #@! TD.AperFunction*
G04 #@! TA.AperFunction,Conductor*
G36*
X119743433Y-56671269D02*
G01*
X120606546Y-57568801D01*
X120609811Y-57577140D01*
X120608377Y-57582527D01*
X120512176Y-57758357D01*
X120511593Y-57759311D01*
X120408822Y-57910762D01*
X120408311Y-57911459D01*
X120305770Y-58040850D01*
X120305507Y-58041170D01*
X120206248Y-58157696D01*
X120113531Y-58270364D01*
X120030632Y-58388202D01*
X119960689Y-58520398D01*
X119906844Y-58676138D01*
X119872234Y-58864609D01*
X119872214Y-58864986D01*
X119860588Y-59083920D01*
X119856727Y-59092000D01*
X119848904Y-59095000D01*
X119621096Y-59095000D01*
X119612823Y-59091573D01*
X119609412Y-59083920D01*
X119597785Y-58864986D01*
X119597765Y-58864609D01*
X119563155Y-58676138D01*
X119509310Y-58520398D01*
X119439367Y-58388202D01*
X119356468Y-58270364D01*
X119263751Y-58157696D01*
X119164492Y-58041170D01*
X119164229Y-58040850D01*
X119061688Y-57911459D01*
X119061177Y-57910762D01*
X118958406Y-57759311D01*
X118957823Y-57758357D01*
X118861623Y-57582527D01*
X118860658Y-57573624D01*
X118863454Y-57568801D01*
X119726567Y-56671269D01*
X119734771Y-56667681D01*
X119743433Y-56671269D01*
G37*
G04 #@! TD.AperFunction*
G04 #@! TA.AperFunction,Conductor*
G36*
X189352153Y-102553427D02*
G01*
X189355564Y-102561105D01*
X189364519Y-102737261D01*
X189391492Y-102890968D01*
X189433538Y-103018444D01*
X189433727Y-103018819D01*
X189433730Y-103018826D01*
X189467723Y-103086242D01*
X189488278Y-103127008D01*
X189525814Y-103182963D01*
X189553203Y-103223794D01*
X189553210Y-103223803D01*
X189553331Y-103223984D01*
X189626317Y-103316693D01*
X189626349Y-103316732D01*
X189704757Y-103412334D01*
X189704981Y-103412617D01*
X189786326Y-103518277D01*
X189786792Y-103518927D01*
X189868789Y-103641998D01*
X189869331Y-103642897D01*
X189945909Y-103783764D01*
X189946850Y-103792669D01*
X189944063Y-103797462D01*
X189238433Y-104531231D01*
X189230229Y-104534819D01*
X189221567Y-104531231D01*
X188515937Y-103797462D01*
X188512672Y-103789123D01*
X188514091Y-103783764D01*
X188590669Y-103642896D01*
X188591211Y-103641997D01*
X188673207Y-103518927D01*
X188673673Y-103518277D01*
X188755018Y-103412617D01*
X188755242Y-103412334D01*
X188833650Y-103316732D01*
X188833682Y-103316693D01*
X188906668Y-103223984D01*
X188906789Y-103223803D01*
X188906796Y-103223794D01*
X188934185Y-103182963D01*
X188971721Y-103127008D01*
X188992276Y-103086242D01*
X189026269Y-103018826D01*
X189026272Y-103018819D01*
X189026461Y-103018444D01*
X189068507Y-102890968D01*
X189095480Y-102737261D01*
X189104435Y-102561105D01*
X189108278Y-102553017D01*
X189116120Y-102550000D01*
X189343880Y-102550000D01*
X189352153Y-102553427D01*
G37*
G04 #@! TD.AperFunction*
G04 #@! TA.AperFunction,Conductor*
G36*
X127122177Y-130138427D02*
G01*
X127125588Y-130146080D01*
X127137234Y-130365390D01*
X127171844Y-130553861D01*
X127225689Y-130709601D01*
X127295632Y-130841797D01*
X127378531Y-130959635D01*
X127471248Y-131072303D01*
X127570507Y-131188829D01*
X127570770Y-131189149D01*
X127673311Y-131318540D01*
X127673822Y-131319237D01*
X127776593Y-131470688D01*
X127777176Y-131471642D01*
X127873377Y-131647473D01*
X127874342Y-131656376D01*
X127871546Y-131661199D01*
X127008433Y-132558731D01*
X127000229Y-132562319D01*
X126991567Y-132558731D01*
X126128454Y-131661199D01*
X126125189Y-131652860D01*
X126126623Y-131647473D01*
X126222823Y-131471642D01*
X126223406Y-131470688D01*
X126326177Y-131319237D01*
X126326688Y-131318540D01*
X126429229Y-131189149D01*
X126429492Y-131188829D01*
X126528751Y-131072303D01*
X126621468Y-130959635D01*
X126704367Y-130841797D01*
X126774310Y-130709601D01*
X126828155Y-130553861D01*
X126862765Y-130365390D01*
X126874412Y-130146080D01*
X126878273Y-130138000D01*
X126886096Y-130135000D01*
X127113904Y-130135000D01*
X127122177Y-130138427D01*
G37*
G04 #@! TD.AperFunction*
G04 #@! TA.AperFunction,Conductor*
G36*
X179192153Y-87313427D02*
G01*
X179195564Y-87321105D01*
X179204519Y-87497261D01*
X179231492Y-87650968D01*
X179273538Y-87778444D01*
X179273727Y-87778819D01*
X179273730Y-87778826D01*
X179307723Y-87846242D01*
X179328278Y-87887008D01*
X179365814Y-87942963D01*
X179393203Y-87983794D01*
X179393210Y-87983803D01*
X179393331Y-87983984D01*
X179466317Y-88076693D01*
X179466349Y-88076732D01*
X179544757Y-88172334D01*
X179544981Y-88172617D01*
X179626326Y-88278277D01*
X179626792Y-88278927D01*
X179708789Y-88401998D01*
X179709331Y-88402897D01*
X179785909Y-88543764D01*
X179786850Y-88552669D01*
X179784063Y-88557462D01*
X179078433Y-89291231D01*
X179070229Y-89294819D01*
X179061567Y-89291231D01*
X178355937Y-88557462D01*
X178352672Y-88549123D01*
X178354091Y-88543764D01*
X178430669Y-88402896D01*
X178431211Y-88401997D01*
X178513207Y-88278927D01*
X178513673Y-88278277D01*
X178595018Y-88172617D01*
X178595242Y-88172334D01*
X178673650Y-88076732D01*
X178673682Y-88076693D01*
X178746668Y-87983984D01*
X178746789Y-87983803D01*
X178746796Y-87983794D01*
X178774185Y-87942963D01*
X178811721Y-87887008D01*
X178832276Y-87846242D01*
X178866269Y-87778826D01*
X178866272Y-87778819D01*
X178866461Y-87778444D01*
X178908507Y-87650968D01*
X178935480Y-87497261D01*
X178944435Y-87321105D01*
X178948278Y-87313017D01*
X178956120Y-87310000D01*
X179183880Y-87310000D01*
X179192153Y-87313427D01*
G37*
G04 #@! TD.AperFunction*
G04 #@! TA.AperFunction,Conductor*
G36*
X144902153Y-107633427D02*
G01*
X144905564Y-107641105D01*
X144914519Y-107817261D01*
X144941492Y-107970968D01*
X144983538Y-108098444D01*
X144983727Y-108098819D01*
X144983730Y-108098826D01*
X145017723Y-108166242D01*
X145038278Y-108207008D01*
X145075814Y-108262963D01*
X145103203Y-108303794D01*
X145103210Y-108303803D01*
X145103331Y-108303984D01*
X145176317Y-108396693D01*
X145176349Y-108396732D01*
X145254757Y-108492334D01*
X145254981Y-108492617D01*
X145336326Y-108598277D01*
X145336792Y-108598927D01*
X145418789Y-108721998D01*
X145419331Y-108722897D01*
X145495909Y-108863764D01*
X145496850Y-108872669D01*
X145494063Y-108877462D01*
X144788433Y-109611231D01*
X144780229Y-109614819D01*
X144771567Y-109611231D01*
X144065937Y-108877462D01*
X144062672Y-108869123D01*
X144064091Y-108863764D01*
X144140669Y-108722896D01*
X144141211Y-108721997D01*
X144223207Y-108598927D01*
X144223673Y-108598277D01*
X144305018Y-108492617D01*
X144305242Y-108492334D01*
X144383650Y-108396732D01*
X144383682Y-108396693D01*
X144456668Y-108303984D01*
X144456789Y-108303803D01*
X144456796Y-108303794D01*
X144484185Y-108262963D01*
X144521721Y-108207008D01*
X144542276Y-108166242D01*
X144576269Y-108098826D01*
X144576272Y-108098819D01*
X144576461Y-108098444D01*
X144618507Y-107970968D01*
X144645480Y-107817261D01*
X144654435Y-107641105D01*
X144658278Y-107633017D01*
X144666120Y-107630000D01*
X144893880Y-107630000D01*
X144902153Y-107633427D01*
G37*
G04 #@! TD.AperFunction*
G04 #@! TA.AperFunction,Conductor*
G36*
X171572153Y-87313427D02*
G01*
X171575564Y-87321105D01*
X171584519Y-87497261D01*
X171611492Y-87650968D01*
X171653538Y-87778444D01*
X171653727Y-87778819D01*
X171653730Y-87778826D01*
X171687723Y-87846242D01*
X171708278Y-87887008D01*
X171745814Y-87942963D01*
X171773203Y-87983794D01*
X171773210Y-87983803D01*
X171773331Y-87983984D01*
X171846317Y-88076693D01*
X171846349Y-88076732D01*
X171924757Y-88172334D01*
X171924981Y-88172617D01*
X172006326Y-88278277D01*
X172006792Y-88278927D01*
X172088789Y-88401998D01*
X172089331Y-88402897D01*
X172165909Y-88543764D01*
X172166850Y-88552669D01*
X172164063Y-88557462D01*
X171458433Y-89291231D01*
X171450229Y-89294819D01*
X171441567Y-89291231D01*
X170735937Y-88557462D01*
X170732672Y-88549123D01*
X170734091Y-88543764D01*
X170810669Y-88402896D01*
X170811211Y-88401997D01*
X170893207Y-88278927D01*
X170893673Y-88278277D01*
X170975018Y-88172617D01*
X170975242Y-88172334D01*
X171053650Y-88076732D01*
X171053682Y-88076693D01*
X171126668Y-87983984D01*
X171126789Y-87983803D01*
X171126796Y-87983794D01*
X171154185Y-87942963D01*
X171191721Y-87887008D01*
X171212276Y-87846242D01*
X171246269Y-87778826D01*
X171246272Y-87778819D01*
X171246461Y-87778444D01*
X171288507Y-87650968D01*
X171315480Y-87497261D01*
X171324435Y-87321105D01*
X171328278Y-87313017D01*
X171336120Y-87310000D01*
X171563880Y-87310000D01*
X171572153Y-87313427D01*
G37*
G04 #@! TD.AperFunction*
G04 #@! TA.AperFunction,Conductor*
G36*
X176652153Y-87313427D02*
G01*
X176655564Y-87321105D01*
X176664519Y-87497261D01*
X176691492Y-87650968D01*
X176733538Y-87778444D01*
X176733727Y-87778819D01*
X176733730Y-87778826D01*
X176767723Y-87846242D01*
X176788278Y-87887008D01*
X176825814Y-87942963D01*
X176853203Y-87983794D01*
X176853210Y-87983803D01*
X176853331Y-87983984D01*
X176926317Y-88076693D01*
X176926349Y-88076732D01*
X177004757Y-88172334D01*
X177004981Y-88172617D01*
X177086326Y-88278277D01*
X177086792Y-88278927D01*
X177168789Y-88401998D01*
X177169331Y-88402897D01*
X177245909Y-88543764D01*
X177246850Y-88552669D01*
X177244063Y-88557462D01*
X176538433Y-89291231D01*
X176530229Y-89294819D01*
X176521567Y-89291231D01*
X175815937Y-88557462D01*
X175812672Y-88549123D01*
X175814091Y-88543764D01*
X175890669Y-88402896D01*
X175891211Y-88401997D01*
X175973207Y-88278927D01*
X175973673Y-88278277D01*
X176055018Y-88172617D01*
X176055242Y-88172334D01*
X176133650Y-88076732D01*
X176133682Y-88076693D01*
X176206668Y-87983984D01*
X176206789Y-87983803D01*
X176206796Y-87983794D01*
X176234185Y-87942963D01*
X176271721Y-87887008D01*
X176292276Y-87846242D01*
X176326269Y-87778826D01*
X176326272Y-87778819D01*
X176326461Y-87778444D01*
X176368507Y-87650968D01*
X176395480Y-87497261D01*
X176404435Y-87321105D01*
X176408278Y-87313017D01*
X176416120Y-87310000D01*
X176643880Y-87310000D01*
X176652153Y-87313427D01*
G37*
G04 #@! TD.AperFunction*
G04 #@! TA.AperFunction,Conductor*
G36*
X191892153Y-87313427D02*
G01*
X191895564Y-87321105D01*
X191904519Y-87497261D01*
X191931492Y-87650968D01*
X191973538Y-87778444D01*
X191973727Y-87778819D01*
X191973730Y-87778826D01*
X192007723Y-87846242D01*
X192028278Y-87887008D01*
X192065814Y-87942963D01*
X192093203Y-87983794D01*
X192093210Y-87983803D01*
X192093331Y-87983984D01*
X192166317Y-88076693D01*
X192166349Y-88076732D01*
X192244757Y-88172334D01*
X192244981Y-88172617D01*
X192326326Y-88278277D01*
X192326792Y-88278927D01*
X192408789Y-88401998D01*
X192409331Y-88402897D01*
X192485909Y-88543764D01*
X192486850Y-88552669D01*
X192484063Y-88557462D01*
X191778433Y-89291231D01*
X191770229Y-89294819D01*
X191761567Y-89291231D01*
X191055937Y-88557462D01*
X191052672Y-88549123D01*
X191054091Y-88543764D01*
X191130669Y-88402896D01*
X191131211Y-88401997D01*
X191213207Y-88278927D01*
X191213673Y-88278277D01*
X191295018Y-88172617D01*
X191295242Y-88172334D01*
X191373650Y-88076732D01*
X191373682Y-88076693D01*
X191446668Y-87983984D01*
X191446789Y-87983803D01*
X191446796Y-87983794D01*
X191474185Y-87942963D01*
X191511721Y-87887008D01*
X191532276Y-87846242D01*
X191566269Y-87778826D01*
X191566272Y-87778819D01*
X191566461Y-87778444D01*
X191608507Y-87650968D01*
X191635480Y-87497261D01*
X191644435Y-87321105D01*
X191648278Y-87313017D01*
X191656120Y-87310000D01*
X191883880Y-87310000D01*
X191892153Y-87313427D01*
G37*
G04 #@! TD.AperFunction*
G04 #@! TA.AperFunction,Conductor*
G36*
X163952153Y-87313427D02*
G01*
X163955564Y-87321105D01*
X163964519Y-87497261D01*
X163991492Y-87650968D01*
X164033538Y-87778444D01*
X164033727Y-87778819D01*
X164033730Y-87778826D01*
X164067723Y-87846242D01*
X164088278Y-87887008D01*
X164125814Y-87942963D01*
X164153203Y-87983794D01*
X164153210Y-87983803D01*
X164153331Y-87983984D01*
X164226317Y-88076693D01*
X164226349Y-88076732D01*
X164304757Y-88172334D01*
X164304981Y-88172617D01*
X164386326Y-88278277D01*
X164386792Y-88278927D01*
X164468789Y-88401998D01*
X164469331Y-88402897D01*
X164545909Y-88543764D01*
X164546850Y-88552669D01*
X164544063Y-88557462D01*
X163838433Y-89291231D01*
X163830229Y-89294819D01*
X163821567Y-89291231D01*
X163115937Y-88557462D01*
X163112672Y-88549123D01*
X163114091Y-88543764D01*
X163190669Y-88402896D01*
X163191211Y-88401997D01*
X163273207Y-88278927D01*
X163273673Y-88278277D01*
X163355018Y-88172617D01*
X163355242Y-88172334D01*
X163433650Y-88076732D01*
X163433682Y-88076693D01*
X163506668Y-87983984D01*
X163506789Y-87983803D01*
X163506796Y-87983794D01*
X163534185Y-87942963D01*
X163571721Y-87887008D01*
X163592276Y-87846242D01*
X163626269Y-87778826D01*
X163626272Y-87778819D01*
X163626461Y-87778444D01*
X163668507Y-87650968D01*
X163695480Y-87497261D01*
X163704435Y-87321105D01*
X163708278Y-87313017D01*
X163716120Y-87310000D01*
X163943880Y-87310000D01*
X163952153Y-87313427D01*
G37*
G04 #@! TD.AperFunction*
G04 #@! TA.AperFunction,Conductor*
G36*
X129896237Y-93264091D02*
G01*
X130037116Y-93340676D01*
X130037989Y-93341202D01*
X130137291Y-93407363D01*
X130161072Y-93423207D01*
X130161722Y-93423673D01*
X130267382Y-93505018D01*
X130267663Y-93505240D01*
X130363306Y-93583682D01*
X130456015Y-93656668D01*
X130456196Y-93656789D01*
X130456205Y-93656796D01*
X130497036Y-93684185D01*
X130552991Y-93721721D01*
X130593757Y-93742276D01*
X130661173Y-93776269D01*
X130661180Y-93776272D01*
X130661555Y-93776461D01*
X130789031Y-93818507D01*
X130942738Y-93845480D01*
X130943090Y-93845498D01*
X130943091Y-93845498D01*
X130964330Y-93846578D01*
X131118895Y-93854435D01*
X131126983Y-93858278D01*
X131130000Y-93866120D01*
X131130000Y-94093880D01*
X131126573Y-94102153D01*
X131118895Y-94105564D01*
X130962432Y-94113518D01*
X130943091Y-94114501D01*
X130943090Y-94114501D01*
X130942738Y-94114519D01*
X130789031Y-94141492D01*
X130661555Y-94183538D01*
X130661180Y-94183727D01*
X130661173Y-94183730D01*
X130593757Y-94217723D01*
X130552991Y-94238278D01*
X130497036Y-94275814D01*
X130456205Y-94303203D01*
X130456196Y-94303210D01*
X130456015Y-94303331D01*
X130363306Y-94376317D01*
X130363267Y-94376349D01*
X130267665Y-94454757D01*
X130267382Y-94454981D01*
X130161722Y-94536326D01*
X130161072Y-94536792D01*
X130038001Y-94618789D01*
X130037102Y-94619331D01*
X129896236Y-94695909D01*
X129887331Y-94696850D01*
X129882538Y-94694063D01*
X129307856Y-94141419D01*
X129148769Y-93988433D01*
X129145181Y-93980229D01*
X129148769Y-93971567D01*
X129269985Y-93855000D01*
X129633923Y-93505018D01*
X129882538Y-93265937D01*
X129890877Y-93262672D01*
X129896237Y-93264091D01*
G37*
G04 #@! TD.AperFunction*
G04 #@! TA.AperFunction,Conductor*
G36*
X101986192Y-83821592D02*
G01*
X102314063Y-84162538D01*
X102317328Y-84170877D01*
X102315909Y-84176236D01*
X102239331Y-84317102D01*
X102238789Y-84318001D01*
X102156792Y-84441072D01*
X102156326Y-84441722D01*
X102074981Y-84547382D01*
X102074759Y-84547663D01*
X101996317Y-84643306D01*
X101923331Y-84736015D01*
X101923210Y-84736196D01*
X101923203Y-84736205D01*
X101895814Y-84777036D01*
X101858278Y-84832991D01*
X101858115Y-84833315D01*
X101803730Y-84941173D01*
X101803727Y-84941180D01*
X101803538Y-84941555D01*
X101761492Y-85069031D01*
X101734519Y-85222738D01*
X101734501Y-85223090D01*
X101734501Y-85223091D01*
X101725565Y-85398894D01*
X101721723Y-85406982D01*
X101713880Y-85410000D01*
X101486120Y-85410000D01*
X101477847Y-85406573D01*
X101474435Y-85398894D01*
X101465498Y-85223091D01*
X101465498Y-85223090D01*
X101465480Y-85222738D01*
X101438507Y-85069031D01*
X101396461Y-84941555D01*
X101396272Y-84941180D01*
X101396269Y-84941173D01*
X101341884Y-84833315D01*
X101341721Y-84832991D01*
X101304185Y-84777036D01*
X101276796Y-84736205D01*
X101276789Y-84736196D01*
X101276668Y-84736015D01*
X101203682Y-84643306D01*
X101125240Y-84547663D01*
X101125018Y-84547382D01*
X101043673Y-84441722D01*
X101043207Y-84441072D01*
X101027363Y-84417291D01*
X100961202Y-84317989D01*
X100960676Y-84317116D01*
X100884091Y-84176236D01*
X100883150Y-84167331D01*
X100885937Y-84162538D01*
X101213725Y-83821679D01*
X101213725Y-83821678D01*
X101600000Y-83420000D01*
X101986192Y-83821592D01*
G37*
G04 #@! TD.AperFunction*
G04 #@! TA.AperFunction,Conductor*
G36*
X116962170Y-89653427D02*
G01*
X116965581Y-89661088D01*
X116976084Y-89861538D01*
X117007455Y-90034781D01*
X117056289Y-90178108D01*
X117056496Y-90178504D01*
X117056498Y-90178510D01*
X117086903Y-90236848D01*
X117119765Y-90299901D01*
X117195059Y-90408537D01*
X117195188Y-90408696D01*
X117195194Y-90408704D01*
X117279348Y-90512399D01*
X117369701Y-90619738D01*
X117369919Y-90620006D01*
X117420148Y-90683964D01*
X117463358Y-90738986D01*
X117463855Y-90739668D01*
X117557652Y-90878682D01*
X117558222Y-90879619D01*
X117645888Y-91040169D01*
X117646845Y-91049072D01*
X117644053Y-91053884D01*
X116848433Y-91881231D01*
X116840229Y-91884819D01*
X116831567Y-91881231D01*
X116035947Y-91053885D01*
X116032683Y-91045547D01*
X116034112Y-91040169D01*
X116121777Y-90879619D01*
X116122347Y-90878682D01*
X116216144Y-90739668D01*
X116216641Y-90738986D01*
X116259851Y-90683964D01*
X116310080Y-90620006D01*
X116310298Y-90619738D01*
X116400651Y-90512399D01*
X116484805Y-90408704D01*
X116484811Y-90408696D01*
X116484940Y-90408537D01*
X116560234Y-90299901D01*
X116593096Y-90236848D01*
X116623501Y-90178510D01*
X116623503Y-90178504D01*
X116623710Y-90178108D01*
X116672544Y-90034781D01*
X116703915Y-89861538D01*
X116714419Y-89661088D01*
X116718274Y-89653005D01*
X116726103Y-89650000D01*
X116953897Y-89650000D01*
X116962170Y-89653427D01*
G37*
G04 #@! TD.AperFunction*
G04 #@! TA.AperFunction,Conductor*
G36*
X147442177Y-130138427D02*
G01*
X147445588Y-130146080D01*
X147457234Y-130365390D01*
X147491844Y-130553861D01*
X147545689Y-130709601D01*
X147615632Y-130841797D01*
X147698531Y-130959635D01*
X147791248Y-131072303D01*
X147890507Y-131188829D01*
X147890770Y-131189149D01*
X147993311Y-131318540D01*
X147993822Y-131319237D01*
X148096593Y-131470688D01*
X148097176Y-131471642D01*
X148193377Y-131647473D01*
X148194342Y-131656376D01*
X148191546Y-131661199D01*
X147328433Y-132558731D01*
X147320229Y-132562319D01*
X147311567Y-132558731D01*
X146448454Y-131661199D01*
X146445189Y-131652860D01*
X146446623Y-131647473D01*
X146542823Y-131471642D01*
X146543406Y-131470688D01*
X146646177Y-131319237D01*
X146646688Y-131318540D01*
X146749229Y-131189149D01*
X146749492Y-131188829D01*
X146848751Y-131072303D01*
X146941468Y-130959635D01*
X147024367Y-130841797D01*
X147094310Y-130709601D01*
X147148155Y-130553861D01*
X147182765Y-130365390D01*
X147194412Y-130146080D01*
X147198273Y-130138000D01*
X147206096Y-130135000D01*
X147433904Y-130135000D01*
X147442177Y-130138427D01*
G37*
G04 #@! TD.AperFunction*
G04 #@! TA.AperFunction,Conductor*
G36*
X184158433Y-103748769D02*
G01*
X184864063Y-104482538D01*
X184867328Y-104490877D01*
X184865909Y-104496236D01*
X184789331Y-104637102D01*
X184788789Y-104638001D01*
X184706792Y-104761072D01*
X184706326Y-104761722D01*
X184624981Y-104867382D01*
X184624759Y-104867663D01*
X184546317Y-104963306D01*
X184473331Y-105056015D01*
X184473210Y-105056196D01*
X184473203Y-105056205D01*
X184445814Y-105097036D01*
X184408278Y-105152991D01*
X184408115Y-105153315D01*
X184353730Y-105261173D01*
X184353727Y-105261180D01*
X184353538Y-105261555D01*
X184311492Y-105389031D01*
X184284519Y-105542738D01*
X184284501Y-105543090D01*
X184284501Y-105543091D01*
X184275565Y-105718894D01*
X184271723Y-105726982D01*
X184263880Y-105730000D01*
X184036120Y-105730000D01*
X184027847Y-105726573D01*
X184024435Y-105718894D01*
X184015498Y-105543091D01*
X184015498Y-105543090D01*
X184015480Y-105542738D01*
X183988507Y-105389031D01*
X183946461Y-105261555D01*
X183946272Y-105261180D01*
X183946269Y-105261173D01*
X183891884Y-105153315D01*
X183891721Y-105152991D01*
X183854185Y-105097036D01*
X183826796Y-105056205D01*
X183826789Y-105056196D01*
X183826668Y-105056015D01*
X183753682Y-104963306D01*
X183675240Y-104867663D01*
X183675018Y-104867382D01*
X183593673Y-104761722D01*
X183593207Y-104761072D01*
X183577363Y-104737291D01*
X183511202Y-104637989D01*
X183510676Y-104637116D01*
X183434091Y-104496236D01*
X183433150Y-104487331D01*
X183435937Y-104482538D01*
X184141567Y-103748769D01*
X184149771Y-103745181D01*
X184158433Y-103748769D01*
G37*
G04 #@! TD.AperFunction*
G04 #@! TA.AperFunction,Conductor*
G36*
X116976368Y-101290689D02*
G01*
X117681577Y-101304475D01*
X117689780Y-101308063D01*
X117692573Y-101312877D01*
X117744109Y-101488393D01*
X117744368Y-101489458D01*
X117776341Y-101654075D01*
X117776472Y-101654909D01*
X117794528Y-101805084D01*
X117794569Y-101805479D01*
X117806578Y-101945246D01*
X117820418Y-102078289D01*
X117843995Y-102208347D01*
X117885231Y-102339351D01*
X117885428Y-102339752D01*
X117885429Y-102339754D01*
X117940907Y-102452573D01*
X117952048Y-102475230D01*
X117952299Y-102475592D01*
X118041283Y-102603929D01*
X118052366Y-102619914D01*
X118135150Y-102711852D01*
X118186680Y-102769081D01*
X118189669Y-102777522D01*
X118186258Y-102785183D01*
X118025183Y-102946258D01*
X118016910Y-102949685D01*
X118009081Y-102946680D01*
X118008613Y-102946258D01*
X117859914Y-102812366D01*
X117715230Y-102712048D01*
X117714835Y-102711854D01*
X117714832Y-102711852D01*
X117579754Y-102645429D01*
X117579752Y-102645428D01*
X117579351Y-102645231D01*
X117578926Y-102645097D01*
X117578923Y-102645096D01*
X117448700Y-102604106D01*
X117448698Y-102604106D01*
X117448347Y-102603995D01*
X117318289Y-102580418D01*
X117185246Y-102566578D01*
X117135603Y-102562313D01*
X117045479Y-102554569D01*
X117045084Y-102554528D01*
X116894909Y-102536472D01*
X116894075Y-102536341D01*
X116766841Y-102511629D01*
X116729456Y-102504367D01*
X116728396Y-102504110D01*
X116552876Y-102452573D01*
X116545904Y-102446954D01*
X116544475Y-102441576D01*
X116542485Y-102339754D01*
X116522410Y-101312877D01*
X116522040Y-101293967D01*
X116525305Y-101285628D01*
X116533967Y-101282040D01*
X116976368Y-101290689D01*
G37*
G04 #@! TD.AperFunction*
G04 #@! TA.AperFunction,Conductor*
G36*
X180703433Y-56671269D02*
G01*
X181566546Y-57568801D01*
X181569811Y-57577140D01*
X181568377Y-57582527D01*
X181472176Y-57758357D01*
X181471593Y-57759311D01*
X181368822Y-57910762D01*
X181368311Y-57911459D01*
X181265770Y-58040850D01*
X181265507Y-58041170D01*
X181166248Y-58157696D01*
X181073531Y-58270364D01*
X180990632Y-58388202D01*
X180920689Y-58520398D01*
X180866844Y-58676138D01*
X180832234Y-58864609D01*
X180832214Y-58864986D01*
X180820588Y-59083920D01*
X180816727Y-59092000D01*
X180808904Y-59095000D01*
X180581096Y-59095000D01*
X180572823Y-59091573D01*
X180569412Y-59083920D01*
X180557785Y-58864986D01*
X180557765Y-58864609D01*
X180523155Y-58676138D01*
X180469310Y-58520398D01*
X180399367Y-58388202D01*
X180316468Y-58270364D01*
X180223751Y-58157696D01*
X180124492Y-58041170D01*
X180124229Y-58040850D01*
X180021688Y-57911459D01*
X180021177Y-57910762D01*
X179918406Y-57759311D01*
X179917823Y-57758357D01*
X179821623Y-57582527D01*
X179820658Y-57573624D01*
X179823454Y-57568801D01*
X180686567Y-56671269D01*
X180694771Y-56667681D01*
X180703433Y-56671269D01*
G37*
G04 #@! TD.AperFunction*
G04 #@! TA.AperFunction,Conductor*
G36*
X173998433Y-103748769D02*
G01*
X174704063Y-104482538D01*
X174707328Y-104490877D01*
X174705909Y-104496236D01*
X174629331Y-104637102D01*
X174628789Y-104638001D01*
X174546792Y-104761072D01*
X174546326Y-104761722D01*
X174464981Y-104867382D01*
X174464759Y-104867663D01*
X174386317Y-104963306D01*
X174313331Y-105056015D01*
X174313210Y-105056196D01*
X174313203Y-105056205D01*
X174285814Y-105097036D01*
X174248278Y-105152991D01*
X174248115Y-105153315D01*
X174193730Y-105261173D01*
X174193727Y-105261180D01*
X174193538Y-105261555D01*
X174151492Y-105389031D01*
X174124519Y-105542738D01*
X174124501Y-105543090D01*
X174124501Y-105543091D01*
X174115565Y-105718894D01*
X174111723Y-105726982D01*
X174103880Y-105730000D01*
X173876120Y-105730000D01*
X173867847Y-105726573D01*
X173864435Y-105718894D01*
X173855498Y-105543091D01*
X173855498Y-105543090D01*
X173855480Y-105542738D01*
X173828507Y-105389031D01*
X173786461Y-105261555D01*
X173786272Y-105261180D01*
X173786269Y-105261173D01*
X173731884Y-105153315D01*
X173731721Y-105152991D01*
X173694185Y-105097036D01*
X173666796Y-105056205D01*
X173666789Y-105056196D01*
X173666668Y-105056015D01*
X173593682Y-104963306D01*
X173515240Y-104867663D01*
X173515018Y-104867382D01*
X173433673Y-104761722D01*
X173433207Y-104761072D01*
X173417363Y-104737291D01*
X173351202Y-104637989D01*
X173350676Y-104637116D01*
X173274091Y-104496236D01*
X173273150Y-104487331D01*
X173275937Y-104482538D01*
X173981567Y-103748769D01*
X173989771Y-103745181D01*
X173998433Y-103748769D01*
G37*
G04 #@! TD.AperFunction*
G04 #@! TA.AperFunction,Conductor*
G36*
X101722153Y-111443427D02*
G01*
X101725564Y-111451105D01*
X101734519Y-111627261D01*
X101761492Y-111780968D01*
X101803538Y-111908444D01*
X101803727Y-111908819D01*
X101803730Y-111908826D01*
X101837723Y-111976242D01*
X101858278Y-112017008D01*
X101895814Y-112072963D01*
X101923203Y-112113794D01*
X101923210Y-112113803D01*
X101923331Y-112113984D01*
X101996317Y-112206693D01*
X101996349Y-112206732D01*
X102074757Y-112302334D01*
X102074981Y-112302617D01*
X102156326Y-112408277D01*
X102156792Y-112408927D01*
X102238789Y-112531998D01*
X102239331Y-112532897D01*
X102315909Y-112673764D01*
X102316850Y-112682669D01*
X102314063Y-112687462D01*
X101608433Y-113421231D01*
X101600229Y-113424819D01*
X101591567Y-113421231D01*
X100885937Y-112687462D01*
X100882672Y-112679123D01*
X100884091Y-112673764D01*
X100960669Y-112532896D01*
X100961211Y-112531997D01*
X101043207Y-112408927D01*
X101043673Y-112408277D01*
X101125018Y-112302617D01*
X101125242Y-112302334D01*
X101203650Y-112206732D01*
X101203682Y-112206693D01*
X101276668Y-112113984D01*
X101276789Y-112113803D01*
X101276796Y-112113794D01*
X101304185Y-112072963D01*
X101341721Y-112017008D01*
X101362276Y-111976242D01*
X101396269Y-111908826D01*
X101396272Y-111908819D01*
X101396461Y-111908444D01*
X101438507Y-111780968D01*
X101465480Y-111627261D01*
X101474435Y-111451105D01*
X101478278Y-111443017D01*
X101486120Y-111440000D01*
X101713880Y-111440000D01*
X101722153Y-111443427D01*
G37*
G04 #@! TD.AperFunction*
G04 #@! TA.AperFunction,Conductor*
G36*
X165463433Y-56671269D02*
G01*
X166326546Y-57568801D01*
X166329811Y-57577140D01*
X166328377Y-57582527D01*
X166232176Y-57758357D01*
X166231593Y-57759311D01*
X166128822Y-57910762D01*
X166128311Y-57911459D01*
X166025770Y-58040850D01*
X166025507Y-58041170D01*
X165926248Y-58157696D01*
X165833531Y-58270364D01*
X165750632Y-58388202D01*
X165680689Y-58520398D01*
X165626844Y-58676138D01*
X165592234Y-58864609D01*
X165592214Y-58864986D01*
X165580588Y-59083920D01*
X165576727Y-59092000D01*
X165568904Y-59095000D01*
X165341096Y-59095000D01*
X165332823Y-59091573D01*
X165329412Y-59083920D01*
X165317785Y-58864986D01*
X165317765Y-58864609D01*
X165283155Y-58676138D01*
X165229310Y-58520398D01*
X165159367Y-58388202D01*
X165076468Y-58270364D01*
X164983751Y-58157696D01*
X164884492Y-58041170D01*
X164884229Y-58040850D01*
X164781688Y-57911459D01*
X164781177Y-57910762D01*
X164678406Y-57759311D01*
X164677823Y-57758357D01*
X164581623Y-57582527D01*
X164580658Y-57573624D01*
X164583454Y-57568801D01*
X165446567Y-56671269D01*
X165454771Y-56667681D01*
X165463433Y-56671269D01*
G37*
G04 #@! TD.AperFunction*
G04 #@! TA.AperFunction,Conductor*
G36*
X176538433Y-103748769D02*
G01*
X177244063Y-104482538D01*
X177247328Y-104490877D01*
X177245909Y-104496236D01*
X177169331Y-104637102D01*
X177168789Y-104638001D01*
X177086792Y-104761072D01*
X177086326Y-104761722D01*
X177004981Y-104867382D01*
X177004759Y-104867663D01*
X176926317Y-104963306D01*
X176853331Y-105056015D01*
X176853210Y-105056196D01*
X176853203Y-105056205D01*
X176825814Y-105097036D01*
X176788278Y-105152991D01*
X176788115Y-105153315D01*
X176733730Y-105261173D01*
X176733727Y-105261180D01*
X176733538Y-105261555D01*
X176691492Y-105389031D01*
X176664519Y-105542738D01*
X176664501Y-105543090D01*
X176664501Y-105543091D01*
X176655565Y-105718894D01*
X176651723Y-105726982D01*
X176643880Y-105730000D01*
X176416120Y-105730000D01*
X176407847Y-105726573D01*
X176404435Y-105718894D01*
X176395498Y-105543091D01*
X176395498Y-105543090D01*
X176395480Y-105542738D01*
X176368507Y-105389031D01*
X176326461Y-105261555D01*
X176326272Y-105261180D01*
X176326269Y-105261173D01*
X176271884Y-105153315D01*
X176271721Y-105152991D01*
X176234185Y-105097036D01*
X176206796Y-105056205D01*
X176206789Y-105056196D01*
X176206668Y-105056015D01*
X176133682Y-104963306D01*
X176055240Y-104867663D01*
X176055018Y-104867382D01*
X175973673Y-104761722D01*
X175973207Y-104761072D01*
X175957363Y-104737291D01*
X175891202Y-104637989D01*
X175890676Y-104637116D01*
X175814091Y-104496236D01*
X175813150Y-104487331D01*
X175815937Y-104482538D01*
X176521567Y-103748769D01*
X176529771Y-103745181D01*
X176538433Y-103748769D01*
G37*
G04 #@! TD.AperFunction*
G04 #@! TA.AperFunction,Conductor*
G36*
X181732153Y-87313427D02*
G01*
X181735564Y-87321105D01*
X181744519Y-87497261D01*
X181771492Y-87650968D01*
X181813538Y-87778444D01*
X181813727Y-87778819D01*
X181813730Y-87778826D01*
X181847723Y-87846242D01*
X181868278Y-87887008D01*
X181905814Y-87942963D01*
X181933203Y-87983794D01*
X181933210Y-87983803D01*
X181933331Y-87983984D01*
X182006317Y-88076693D01*
X182006349Y-88076732D01*
X182084757Y-88172334D01*
X182084981Y-88172617D01*
X182166326Y-88278277D01*
X182166792Y-88278927D01*
X182248789Y-88401998D01*
X182249331Y-88402897D01*
X182325909Y-88543764D01*
X182326850Y-88552669D01*
X182324063Y-88557462D01*
X181618433Y-89291231D01*
X181610229Y-89294819D01*
X181601567Y-89291231D01*
X180895937Y-88557462D01*
X180892672Y-88549123D01*
X180894091Y-88543764D01*
X180970669Y-88402896D01*
X180971211Y-88401997D01*
X181053207Y-88278927D01*
X181053673Y-88278277D01*
X181135018Y-88172617D01*
X181135242Y-88172334D01*
X181213650Y-88076732D01*
X181213682Y-88076693D01*
X181286668Y-87983984D01*
X181286789Y-87983803D01*
X181286796Y-87983794D01*
X181314185Y-87942963D01*
X181351721Y-87887008D01*
X181372276Y-87846242D01*
X181406269Y-87778826D01*
X181406272Y-87778819D01*
X181406461Y-87778444D01*
X181448507Y-87650968D01*
X181475480Y-87497261D01*
X181484435Y-87321105D01*
X181488278Y-87313017D01*
X181496120Y-87310000D01*
X181723880Y-87310000D01*
X181732153Y-87313427D01*
G37*
G04 #@! TD.AperFunction*
G04 #@! TA.AperFunction,Conductor*
G36*
X150223433Y-56671269D02*
G01*
X151086546Y-57568801D01*
X151089811Y-57577140D01*
X151088377Y-57582527D01*
X150992176Y-57758357D01*
X150991593Y-57759311D01*
X150888822Y-57910762D01*
X150888311Y-57911459D01*
X150785770Y-58040850D01*
X150785507Y-58041170D01*
X150686248Y-58157696D01*
X150593531Y-58270364D01*
X150510632Y-58388202D01*
X150440689Y-58520398D01*
X150386844Y-58676138D01*
X150352234Y-58864609D01*
X150352214Y-58864986D01*
X150340588Y-59083920D01*
X150336727Y-59092000D01*
X150328904Y-59095000D01*
X150101096Y-59095000D01*
X150092823Y-59091573D01*
X150089412Y-59083920D01*
X150077785Y-58864986D01*
X150077765Y-58864609D01*
X150043155Y-58676138D01*
X149989310Y-58520398D01*
X149919367Y-58388202D01*
X149836468Y-58270364D01*
X149743751Y-58157696D01*
X149644492Y-58041170D01*
X149644229Y-58040850D01*
X149541688Y-57911459D01*
X149541177Y-57910762D01*
X149438406Y-57759311D01*
X149437823Y-57758357D01*
X149341623Y-57582527D01*
X149340658Y-57573624D01*
X149343454Y-57568801D01*
X150206567Y-56671269D01*
X150214771Y-56667681D01*
X150223433Y-56671269D01*
G37*
G04 #@! TD.AperFunction*
G04 #@! TA.AperFunction,Conductor*
G36*
X144788433Y-103748769D02*
G01*
X145494063Y-104482538D01*
X145497328Y-104490877D01*
X145495909Y-104496236D01*
X145419331Y-104637102D01*
X145418789Y-104638001D01*
X145336792Y-104761072D01*
X145336326Y-104761722D01*
X145254981Y-104867382D01*
X145254759Y-104867663D01*
X145176317Y-104963306D01*
X145103331Y-105056015D01*
X145103210Y-105056196D01*
X145103203Y-105056205D01*
X145075814Y-105097036D01*
X145038278Y-105152991D01*
X145038115Y-105153315D01*
X144983730Y-105261173D01*
X144983727Y-105261180D01*
X144983538Y-105261555D01*
X144941492Y-105389031D01*
X144914519Y-105542738D01*
X144914501Y-105543090D01*
X144914501Y-105543091D01*
X144905565Y-105718894D01*
X144901723Y-105726982D01*
X144893880Y-105730000D01*
X144666120Y-105730000D01*
X144657847Y-105726573D01*
X144654435Y-105718894D01*
X144645498Y-105543091D01*
X144645498Y-105543090D01*
X144645480Y-105542738D01*
X144618507Y-105389031D01*
X144576461Y-105261555D01*
X144576272Y-105261180D01*
X144576269Y-105261173D01*
X144521884Y-105153315D01*
X144521721Y-105152991D01*
X144484185Y-105097036D01*
X144456796Y-105056205D01*
X144456789Y-105056196D01*
X144456668Y-105056015D01*
X144383682Y-104963306D01*
X144305240Y-104867663D01*
X144305018Y-104867382D01*
X144223673Y-104761722D01*
X144223207Y-104761072D01*
X144207363Y-104737291D01*
X144141202Y-104637989D01*
X144140676Y-104637116D01*
X144064091Y-104496236D01*
X144063150Y-104487331D01*
X144065937Y-104482538D01*
X144771567Y-103748769D01*
X144779771Y-103745181D01*
X144788433Y-103748769D01*
G37*
G04 #@! TD.AperFunction*
G04 #@! TA.AperFunction,Conductor*
G36*
X116497462Y-108505937D02*
G01*
X116746077Y-108745018D01*
X117110016Y-109095000D01*
X117231231Y-109211567D01*
X117234819Y-109219771D01*
X117231231Y-109228433D01*
X117072144Y-109381419D01*
X116497462Y-109934063D01*
X116489123Y-109937328D01*
X116483764Y-109935909D01*
X116342897Y-109859331D01*
X116341998Y-109858789D01*
X116218927Y-109776792D01*
X116218277Y-109776326D01*
X116112617Y-109694981D01*
X116112334Y-109694757D01*
X116016732Y-109616349D01*
X116016693Y-109616317D01*
X115923984Y-109543331D01*
X115923803Y-109543210D01*
X115923794Y-109543203D01*
X115882963Y-109515814D01*
X115827008Y-109478278D01*
X115786242Y-109457723D01*
X115718826Y-109423730D01*
X115718819Y-109423727D01*
X115718444Y-109423538D01*
X115590968Y-109381492D01*
X115437261Y-109354519D01*
X115436909Y-109354501D01*
X115436908Y-109354501D01*
X115417482Y-109353514D01*
X115261105Y-109345564D01*
X115253018Y-109341722D01*
X115250000Y-109333880D01*
X115250000Y-109106120D01*
X115253427Y-109097847D01*
X115261105Y-109094435D01*
X115415559Y-109086583D01*
X115436908Y-109085498D01*
X115436909Y-109085498D01*
X115437261Y-109085480D01*
X115590968Y-109058507D01*
X115718444Y-109016461D01*
X115718819Y-109016272D01*
X115718826Y-109016269D01*
X115786242Y-108982276D01*
X115827008Y-108961721D01*
X115882963Y-108924185D01*
X115923794Y-108896796D01*
X115923803Y-108896789D01*
X115923984Y-108896668D01*
X116016693Y-108823682D01*
X116112336Y-108745240D01*
X116112617Y-108745018D01*
X116218277Y-108663673D01*
X116218927Y-108663207D01*
X116341997Y-108581211D01*
X116342896Y-108580669D01*
X116483764Y-108504091D01*
X116492669Y-108503150D01*
X116497462Y-108505937D01*
G37*
G04 #@! TD.AperFunction*
G04 #@! TA.AperFunction,Conductor*
G36*
X106688433Y-101158769D02*
G01*
X107484053Y-101986115D01*
X107487317Y-101994453D01*
X107485888Y-101999831D01*
X107398222Y-102160380D01*
X107397652Y-102161317D01*
X107303855Y-102300331D01*
X107303358Y-102301013D01*
X107209919Y-102419993D01*
X107209701Y-102420261D01*
X107119348Y-102527600D01*
X107035194Y-102631295D01*
X107035188Y-102631303D01*
X107035059Y-102631462D01*
X106959765Y-102740098D01*
X106926903Y-102803151D01*
X106896498Y-102861489D01*
X106896496Y-102861495D01*
X106896289Y-102861891D01*
X106847455Y-103005218D01*
X106816084Y-103178461D01*
X106816065Y-103178831D01*
X106805581Y-103378912D01*
X106801726Y-103386995D01*
X106793897Y-103390000D01*
X106566103Y-103390000D01*
X106557830Y-103386573D01*
X106554419Y-103378912D01*
X106543934Y-103178831D01*
X106543915Y-103178461D01*
X106512544Y-103005218D01*
X106463710Y-102861891D01*
X106463503Y-102861495D01*
X106463501Y-102861489D01*
X106433096Y-102803151D01*
X106400234Y-102740098D01*
X106324940Y-102631462D01*
X106324811Y-102631303D01*
X106324805Y-102631295D01*
X106240651Y-102527600D01*
X106150298Y-102420261D01*
X106150080Y-102419993D01*
X106056641Y-102301013D01*
X106056144Y-102300331D01*
X105962347Y-102161317D01*
X105961777Y-102160380D01*
X105874112Y-101999831D01*
X105873155Y-101990928D01*
X105875947Y-101986116D01*
X106671567Y-101158769D01*
X106679771Y-101155181D01*
X106688433Y-101158769D01*
G37*
G04 #@! TD.AperFunction*
G04 #@! TA.AperFunction,Conductor*
G36*
X101608433Y-79618769D02*
G01*
X102314063Y-80352538D01*
X102317328Y-80360877D01*
X102315909Y-80366236D01*
X102239331Y-80507102D01*
X102238789Y-80508001D01*
X102156792Y-80631072D01*
X102156326Y-80631722D01*
X102074981Y-80737382D01*
X102074759Y-80737663D01*
X101996317Y-80833306D01*
X101923331Y-80926015D01*
X101923210Y-80926196D01*
X101923203Y-80926205D01*
X101895814Y-80967036D01*
X101858278Y-81022991D01*
X101858115Y-81023315D01*
X101803730Y-81131173D01*
X101803727Y-81131180D01*
X101803538Y-81131555D01*
X101761492Y-81259031D01*
X101734519Y-81412738D01*
X101734501Y-81413090D01*
X101734501Y-81413091D01*
X101725565Y-81588894D01*
X101721723Y-81596982D01*
X101713880Y-81600000D01*
X101486120Y-81600000D01*
X101477847Y-81596573D01*
X101474435Y-81588894D01*
X101465498Y-81413091D01*
X101465498Y-81413090D01*
X101465480Y-81412738D01*
X101438507Y-81259031D01*
X101396461Y-81131555D01*
X101396272Y-81131180D01*
X101396269Y-81131173D01*
X101341884Y-81023315D01*
X101341721Y-81022991D01*
X101304185Y-80967036D01*
X101276796Y-80926205D01*
X101276789Y-80926196D01*
X101276668Y-80926015D01*
X101203682Y-80833306D01*
X101125240Y-80737663D01*
X101125018Y-80737382D01*
X101043673Y-80631722D01*
X101043207Y-80631072D01*
X101027363Y-80607291D01*
X100961202Y-80507989D01*
X100960676Y-80507116D01*
X100884091Y-80366236D01*
X100883150Y-80357331D01*
X100885937Y-80352538D01*
X101591567Y-79618769D01*
X101599771Y-79615181D01*
X101608433Y-79618769D01*
G37*
G04 #@! TD.AperFunction*
G04 #@! TA.AperFunction,Conductor*
G36*
X129548433Y-98668769D02*
G01*
X130254063Y-99402538D01*
X130257328Y-99410877D01*
X130255909Y-99416236D01*
X130179331Y-99557102D01*
X130178789Y-99558001D01*
X130096792Y-99681072D01*
X130096326Y-99681722D01*
X130014981Y-99787382D01*
X130014759Y-99787663D01*
X129936317Y-99883306D01*
X129863331Y-99976015D01*
X129863210Y-99976196D01*
X129863203Y-99976205D01*
X129835814Y-100017036D01*
X129798278Y-100072991D01*
X129798115Y-100073315D01*
X129743730Y-100181173D01*
X129743727Y-100181180D01*
X129743538Y-100181555D01*
X129701492Y-100309031D01*
X129674519Y-100462738D01*
X129674501Y-100463090D01*
X129674501Y-100463091D01*
X129665565Y-100638894D01*
X129661723Y-100646982D01*
X129653880Y-100650000D01*
X129426120Y-100650000D01*
X129417847Y-100646573D01*
X129414435Y-100638894D01*
X129405498Y-100463091D01*
X129405498Y-100463090D01*
X129405480Y-100462738D01*
X129378507Y-100309031D01*
X129336461Y-100181555D01*
X129336272Y-100181180D01*
X129336269Y-100181173D01*
X129281884Y-100073315D01*
X129281721Y-100072991D01*
X129244185Y-100017036D01*
X129216796Y-99976205D01*
X129216789Y-99976196D01*
X129216668Y-99976015D01*
X129143682Y-99883306D01*
X129065240Y-99787663D01*
X129065018Y-99787382D01*
X128983673Y-99681722D01*
X128983207Y-99681072D01*
X128967363Y-99657291D01*
X128901202Y-99557989D01*
X128900676Y-99557116D01*
X128824091Y-99416236D01*
X128823150Y-99407331D01*
X128825937Y-99402538D01*
X129531567Y-98668769D01*
X129539771Y-98665181D01*
X129548433Y-98668769D01*
G37*
G04 #@! TD.AperFunction*
G04 #@! TA.AperFunction,Conductor*
G36*
X142362177Y-130138427D02*
G01*
X142365588Y-130146080D01*
X142377234Y-130365390D01*
X142411844Y-130553861D01*
X142465689Y-130709601D01*
X142535632Y-130841797D01*
X142618531Y-130959635D01*
X142711248Y-131072303D01*
X142810507Y-131188829D01*
X142810770Y-131189149D01*
X142913311Y-131318540D01*
X142913822Y-131319237D01*
X143016593Y-131470688D01*
X143017176Y-131471642D01*
X143113377Y-131647473D01*
X143114342Y-131656376D01*
X143111546Y-131661199D01*
X142248433Y-132558731D01*
X142240229Y-132562319D01*
X142231567Y-132558731D01*
X141368454Y-131661199D01*
X141365189Y-131652860D01*
X141366623Y-131647473D01*
X141462823Y-131471642D01*
X141463406Y-131470688D01*
X141566177Y-131319237D01*
X141566688Y-131318540D01*
X141669229Y-131189149D01*
X141669492Y-131188829D01*
X141768751Y-131072303D01*
X141861468Y-130959635D01*
X141944367Y-130841797D01*
X142014310Y-130709601D01*
X142068155Y-130553861D01*
X142102765Y-130365390D01*
X142114412Y-130146080D01*
X142118273Y-130138000D01*
X142126096Y-130135000D01*
X142353904Y-130135000D01*
X142362177Y-130138427D01*
G37*
G04 #@! TD.AperFunction*
G04 #@! TA.AperFunction,Conductor*
G36*
X174112153Y-87313427D02*
G01*
X174115564Y-87321105D01*
X174124519Y-87497261D01*
X174151492Y-87650968D01*
X174193538Y-87778444D01*
X174193727Y-87778819D01*
X174193730Y-87778826D01*
X174227723Y-87846242D01*
X174248278Y-87887008D01*
X174285814Y-87942963D01*
X174313203Y-87983794D01*
X174313210Y-87983803D01*
X174313331Y-87983984D01*
X174386317Y-88076693D01*
X174386349Y-88076732D01*
X174464757Y-88172334D01*
X174464981Y-88172617D01*
X174546326Y-88278277D01*
X174546792Y-88278927D01*
X174628789Y-88401998D01*
X174629331Y-88402897D01*
X174705909Y-88543764D01*
X174706850Y-88552669D01*
X174704063Y-88557462D01*
X173998433Y-89291231D01*
X173990229Y-89294819D01*
X173981567Y-89291231D01*
X173275937Y-88557462D01*
X173272672Y-88549123D01*
X173274091Y-88543764D01*
X173350669Y-88402896D01*
X173351211Y-88401997D01*
X173433207Y-88278927D01*
X173433673Y-88278277D01*
X173515018Y-88172617D01*
X173515242Y-88172334D01*
X173593650Y-88076732D01*
X173593682Y-88076693D01*
X173666668Y-87983984D01*
X173666789Y-87983803D01*
X173666796Y-87983794D01*
X173694185Y-87942963D01*
X173731721Y-87887008D01*
X173752276Y-87846242D01*
X173786269Y-87778826D01*
X173786272Y-87778819D01*
X173786461Y-87778444D01*
X173828507Y-87650968D01*
X173855480Y-87497261D01*
X173864435Y-87321105D01*
X173868278Y-87313017D01*
X173876120Y-87310000D01*
X174103880Y-87310000D01*
X174112153Y-87313427D01*
G37*
G04 #@! TD.AperFunction*
G04 #@! TA.AperFunction,Conductor*
G36*
X186812153Y-87313427D02*
G01*
X186815564Y-87321105D01*
X186824519Y-87497261D01*
X186851492Y-87650968D01*
X186893538Y-87778444D01*
X186893727Y-87778819D01*
X186893730Y-87778826D01*
X186927723Y-87846242D01*
X186948278Y-87887008D01*
X186985814Y-87942963D01*
X187013203Y-87983794D01*
X187013210Y-87983803D01*
X187013331Y-87983984D01*
X187086317Y-88076693D01*
X187086349Y-88076732D01*
X187164757Y-88172334D01*
X187164981Y-88172617D01*
X187246326Y-88278277D01*
X187246792Y-88278927D01*
X187328789Y-88401998D01*
X187329331Y-88402897D01*
X187405909Y-88543764D01*
X187406850Y-88552669D01*
X187404063Y-88557462D01*
X186698433Y-89291231D01*
X186690229Y-89294819D01*
X186681567Y-89291231D01*
X185975937Y-88557462D01*
X185972672Y-88549123D01*
X185974091Y-88543764D01*
X186050669Y-88402896D01*
X186051211Y-88401997D01*
X186133207Y-88278927D01*
X186133673Y-88278277D01*
X186215018Y-88172617D01*
X186215242Y-88172334D01*
X186293650Y-88076732D01*
X186293682Y-88076693D01*
X186366668Y-87983984D01*
X186366789Y-87983803D01*
X186366796Y-87983794D01*
X186394185Y-87942963D01*
X186431721Y-87887008D01*
X186452276Y-87846242D01*
X186486269Y-87778826D01*
X186486272Y-87778819D01*
X186486461Y-87778444D01*
X186528507Y-87650968D01*
X186555480Y-87497261D01*
X186564435Y-87321105D01*
X186568278Y-87313017D01*
X186576120Y-87310000D01*
X186803880Y-87310000D01*
X186812153Y-87313427D01*
G37*
G04 #@! TD.AperFunction*
G04 #@! TA.AperFunction,Conductor*
G36*
X152522177Y-130138427D02*
G01*
X152525588Y-130146080D01*
X152537234Y-130365390D01*
X152571844Y-130553861D01*
X152625689Y-130709601D01*
X152695632Y-130841797D01*
X152778531Y-130959635D01*
X152871248Y-131072303D01*
X152970507Y-131188829D01*
X152970770Y-131189149D01*
X153073311Y-131318540D01*
X153073822Y-131319237D01*
X153176593Y-131470688D01*
X153177176Y-131471642D01*
X153273377Y-131647473D01*
X153274342Y-131656376D01*
X153271546Y-131661199D01*
X152408433Y-132558731D01*
X152400229Y-132562319D01*
X152391567Y-132558731D01*
X151528454Y-131661199D01*
X151525189Y-131652860D01*
X151526623Y-131647473D01*
X151622823Y-131471642D01*
X151623406Y-131470688D01*
X151726177Y-131319237D01*
X151726688Y-131318540D01*
X151829229Y-131189149D01*
X151829492Y-131188829D01*
X151928751Y-131072303D01*
X152021468Y-130959635D01*
X152104367Y-130841797D01*
X152174310Y-130709601D01*
X152228155Y-130553861D01*
X152262765Y-130365390D01*
X152274412Y-130146080D01*
X152278273Y-130138000D01*
X152286096Y-130135000D01*
X152513904Y-130135000D01*
X152522177Y-130138427D01*
G37*
G04 #@! TD.AperFunction*
G04 #@! TA.AperFunction,Conductor*
G36*
X166492153Y-87313427D02*
G01*
X166495564Y-87321105D01*
X166504519Y-87497261D01*
X166531492Y-87650968D01*
X166573538Y-87778444D01*
X166573727Y-87778819D01*
X166573730Y-87778826D01*
X166607723Y-87846242D01*
X166628278Y-87887008D01*
X166665814Y-87942963D01*
X166693203Y-87983794D01*
X166693210Y-87983803D01*
X166693331Y-87983984D01*
X166766317Y-88076693D01*
X166766349Y-88076732D01*
X166844757Y-88172334D01*
X166844981Y-88172617D01*
X166926326Y-88278277D01*
X166926792Y-88278927D01*
X167008789Y-88401998D01*
X167009331Y-88402897D01*
X167085909Y-88543764D01*
X167086850Y-88552669D01*
X167084063Y-88557462D01*
X166378433Y-89291231D01*
X166370229Y-89294819D01*
X166361567Y-89291231D01*
X165655937Y-88557462D01*
X165652672Y-88549123D01*
X165654091Y-88543764D01*
X165730669Y-88402896D01*
X165731211Y-88401997D01*
X165813207Y-88278927D01*
X165813673Y-88278277D01*
X165895018Y-88172617D01*
X165895242Y-88172334D01*
X165973650Y-88076732D01*
X165973682Y-88076693D01*
X166046668Y-87983984D01*
X166046789Y-87983803D01*
X166046796Y-87983794D01*
X166074185Y-87942963D01*
X166111721Y-87887008D01*
X166132276Y-87846242D01*
X166166269Y-87778826D01*
X166166272Y-87778819D01*
X166166461Y-87778444D01*
X166208507Y-87650968D01*
X166235480Y-87497261D01*
X166244435Y-87321105D01*
X166248278Y-87313017D01*
X166256120Y-87310000D01*
X166483880Y-87310000D01*
X166492153Y-87313427D01*
G37*
G04 #@! TD.AperFunction*
G04 #@! TA.AperFunction,Conductor*
G36*
X116497462Y-79295937D02*
G01*
X116746077Y-79535018D01*
X117110016Y-79885000D01*
X117231231Y-80001567D01*
X117234819Y-80009771D01*
X117231231Y-80018433D01*
X117072144Y-80171419D01*
X116497462Y-80724063D01*
X116489123Y-80727328D01*
X116483764Y-80725909D01*
X116342897Y-80649331D01*
X116341998Y-80648789D01*
X116218927Y-80566792D01*
X116218277Y-80566326D01*
X116112617Y-80484981D01*
X116112334Y-80484757D01*
X116016732Y-80406349D01*
X116016693Y-80406317D01*
X115923984Y-80333331D01*
X115923803Y-80333210D01*
X115923794Y-80333203D01*
X115882963Y-80305814D01*
X115827008Y-80268278D01*
X115786242Y-80247723D01*
X115718826Y-80213730D01*
X115718819Y-80213727D01*
X115718444Y-80213538D01*
X115590968Y-80171492D01*
X115437261Y-80144519D01*
X115436909Y-80144501D01*
X115436908Y-80144501D01*
X115417482Y-80143514D01*
X115261105Y-80135564D01*
X115253018Y-80131722D01*
X115250000Y-80123880D01*
X115250000Y-79896120D01*
X115253427Y-79887847D01*
X115261105Y-79884435D01*
X115415559Y-79876583D01*
X115436908Y-79875498D01*
X115436909Y-79875498D01*
X115437261Y-79875480D01*
X115590968Y-79848507D01*
X115718444Y-79806461D01*
X115718819Y-79806272D01*
X115718826Y-79806269D01*
X115786242Y-79772276D01*
X115827008Y-79751721D01*
X115882963Y-79714185D01*
X115923794Y-79686796D01*
X115923803Y-79686789D01*
X115923984Y-79686668D01*
X116016693Y-79613682D01*
X116112336Y-79535240D01*
X116112617Y-79535018D01*
X116218277Y-79453673D01*
X116218927Y-79453207D01*
X116341997Y-79371211D01*
X116342896Y-79370669D01*
X116483764Y-79294091D01*
X116492669Y-79293150D01*
X116497462Y-79295937D01*
G37*
G04 #@! TD.AperFunction*
G04 #@! TA.AperFunction,Conductor*
G36*
X101722153Y-82233427D02*
G01*
X101725564Y-82241105D01*
X101734519Y-82417261D01*
X101761492Y-82570968D01*
X101803538Y-82698444D01*
X101803727Y-82698819D01*
X101803730Y-82698826D01*
X101837723Y-82766242D01*
X101858278Y-82807008D01*
X101895814Y-82862963D01*
X101923203Y-82903794D01*
X101923210Y-82903803D01*
X101923331Y-82903984D01*
X101996317Y-82996693D01*
X101996349Y-82996732D01*
X102074757Y-83092334D01*
X102074981Y-83092617D01*
X102156326Y-83198277D01*
X102156792Y-83198927D01*
X102238789Y-83321998D01*
X102239331Y-83322897D01*
X102315909Y-83463764D01*
X102316850Y-83472669D01*
X102314063Y-83477462D01*
X101986275Y-83818321D01*
X101986275Y-83818322D01*
X101600000Y-84220000D01*
X101213724Y-83818321D01*
X100885937Y-83477462D01*
X100882672Y-83469123D01*
X100884091Y-83463764D01*
X100960669Y-83322896D01*
X100961211Y-83321997D01*
X101043207Y-83198927D01*
X101043673Y-83198277D01*
X101125018Y-83092617D01*
X101125242Y-83092334D01*
X101203650Y-82996732D01*
X101203682Y-82996693D01*
X101276668Y-82903984D01*
X101276789Y-82903803D01*
X101276796Y-82903794D01*
X101304185Y-82862963D01*
X101341721Y-82807008D01*
X101362276Y-82766242D01*
X101396269Y-82698826D01*
X101396272Y-82698819D01*
X101396461Y-82698444D01*
X101438507Y-82570968D01*
X101465480Y-82417261D01*
X101474435Y-82241105D01*
X101478278Y-82233017D01*
X101486120Y-82230000D01*
X101713880Y-82230000D01*
X101722153Y-82233427D01*
G37*
G04 #@! TD.AperFunction*
G04 #@! TA.AperFunction,Conductor*
G36*
X145136237Y-98344091D02*
G01*
X145277116Y-98420676D01*
X145277989Y-98421202D01*
X145377291Y-98487363D01*
X145401072Y-98503207D01*
X145401722Y-98503673D01*
X145507382Y-98585018D01*
X145507663Y-98585240D01*
X145603306Y-98663682D01*
X145696015Y-98736668D01*
X145696196Y-98736789D01*
X145696205Y-98736796D01*
X145737036Y-98764185D01*
X145792991Y-98801721D01*
X145833757Y-98822276D01*
X145901173Y-98856269D01*
X145901180Y-98856272D01*
X145901555Y-98856461D01*
X146029031Y-98898507D01*
X146182738Y-98925480D01*
X146183090Y-98925498D01*
X146183091Y-98925498D01*
X146204330Y-98926578D01*
X146358895Y-98934435D01*
X146366983Y-98938278D01*
X146370000Y-98946120D01*
X146370000Y-99173880D01*
X146366573Y-99182153D01*
X146358895Y-99185564D01*
X146202432Y-99193518D01*
X146183091Y-99194501D01*
X146183090Y-99194501D01*
X146182738Y-99194519D01*
X146029031Y-99221492D01*
X145901555Y-99263538D01*
X145901180Y-99263727D01*
X145901173Y-99263730D01*
X145833757Y-99297723D01*
X145792991Y-99318278D01*
X145737036Y-99355814D01*
X145696205Y-99383203D01*
X145696196Y-99383210D01*
X145696015Y-99383331D01*
X145603306Y-99456317D01*
X145603267Y-99456349D01*
X145507665Y-99534757D01*
X145507382Y-99534981D01*
X145401722Y-99616326D01*
X145401072Y-99616792D01*
X145278001Y-99698789D01*
X145277102Y-99699331D01*
X145136236Y-99775909D01*
X145127331Y-99776850D01*
X145122538Y-99774063D01*
X144781679Y-99446275D01*
X144781678Y-99446275D01*
X144380000Y-99060000D01*
X144780000Y-98675339D01*
X144873923Y-98585018D01*
X145122538Y-98345937D01*
X145130877Y-98342672D01*
X145136237Y-98344091D01*
G37*
G04 #@! TD.AperFunction*
G04 #@! TA.AperFunction,Conductor*
G36*
X155303433Y-56671269D02*
G01*
X156166546Y-57568801D01*
X156169811Y-57577140D01*
X156168377Y-57582527D01*
X156072176Y-57758357D01*
X156071593Y-57759311D01*
X155968822Y-57910762D01*
X155968311Y-57911459D01*
X155865770Y-58040850D01*
X155865507Y-58041170D01*
X155766248Y-58157696D01*
X155673531Y-58270364D01*
X155590632Y-58388202D01*
X155520689Y-58520398D01*
X155466844Y-58676138D01*
X155432234Y-58864609D01*
X155432214Y-58864986D01*
X155420588Y-59083920D01*
X155416727Y-59092000D01*
X155408904Y-59095000D01*
X155181096Y-59095000D01*
X155172823Y-59091573D01*
X155169412Y-59083920D01*
X155157785Y-58864986D01*
X155157765Y-58864609D01*
X155123155Y-58676138D01*
X155069310Y-58520398D01*
X154999367Y-58388202D01*
X154916468Y-58270364D01*
X154823751Y-58157696D01*
X154724492Y-58041170D01*
X154724229Y-58040850D01*
X154621688Y-57911459D01*
X154621177Y-57910762D01*
X154518406Y-57759311D01*
X154517823Y-57758357D01*
X154421623Y-57582527D01*
X154420658Y-57573624D01*
X154423454Y-57568801D01*
X155286567Y-56671269D01*
X155294771Y-56667681D01*
X155303433Y-56671269D01*
G37*
G04 #@! TD.AperFunction*
G04 #@! TA.AperFunction,Conductor*
G36*
X101722153Y-107633427D02*
G01*
X101725564Y-107641105D01*
X101734519Y-107817261D01*
X101761492Y-107970968D01*
X101803538Y-108098444D01*
X101803727Y-108098819D01*
X101803730Y-108098826D01*
X101837723Y-108166242D01*
X101858278Y-108207008D01*
X101895814Y-108262963D01*
X101923203Y-108303794D01*
X101923210Y-108303803D01*
X101923331Y-108303984D01*
X101996317Y-108396693D01*
X101996349Y-108396732D01*
X102074757Y-108492334D01*
X102074981Y-108492617D01*
X102156326Y-108598277D01*
X102156792Y-108598927D01*
X102238789Y-108721998D01*
X102239331Y-108722897D01*
X102315909Y-108863764D01*
X102316850Y-108872669D01*
X102314063Y-108877462D01*
X101986275Y-109218321D01*
X101986275Y-109218322D01*
X101600000Y-109620000D01*
X101213724Y-109218321D01*
X100885937Y-108877462D01*
X100882672Y-108869123D01*
X100884091Y-108863764D01*
X100960669Y-108722896D01*
X100961211Y-108721997D01*
X101043207Y-108598927D01*
X101043673Y-108598277D01*
X101125018Y-108492617D01*
X101125242Y-108492334D01*
X101203650Y-108396732D01*
X101203682Y-108396693D01*
X101276668Y-108303984D01*
X101276789Y-108303803D01*
X101276796Y-108303794D01*
X101304185Y-108262963D01*
X101341721Y-108207008D01*
X101362276Y-108166242D01*
X101396269Y-108098826D01*
X101396272Y-108098819D01*
X101396461Y-108098444D01*
X101438507Y-107970968D01*
X101465480Y-107817261D01*
X101474435Y-107641105D01*
X101478278Y-107633017D01*
X101486120Y-107630000D01*
X101713880Y-107630000D01*
X101722153Y-107633427D01*
G37*
G04 #@! TD.AperFunction*
G04 #@! TA.AperFunction,Conductor*
G36*
X169032153Y-87313427D02*
G01*
X169035564Y-87321105D01*
X169044519Y-87497261D01*
X169071492Y-87650968D01*
X169113538Y-87778444D01*
X169113727Y-87778819D01*
X169113730Y-87778826D01*
X169147723Y-87846242D01*
X169168278Y-87887008D01*
X169205814Y-87942963D01*
X169233203Y-87983794D01*
X169233210Y-87983803D01*
X169233331Y-87983984D01*
X169306317Y-88076693D01*
X169306349Y-88076732D01*
X169384757Y-88172334D01*
X169384981Y-88172617D01*
X169466326Y-88278277D01*
X169466792Y-88278927D01*
X169548789Y-88401998D01*
X169549331Y-88402897D01*
X169625909Y-88543764D01*
X169626850Y-88552669D01*
X169624063Y-88557462D01*
X168918433Y-89291231D01*
X168910229Y-89294819D01*
X168901567Y-89291231D01*
X168195937Y-88557462D01*
X168192672Y-88549123D01*
X168194091Y-88543764D01*
X168270669Y-88402896D01*
X168271211Y-88401997D01*
X168353207Y-88278927D01*
X168353673Y-88278277D01*
X168435018Y-88172617D01*
X168435242Y-88172334D01*
X168513650Y-88076732D01*
X168513682Y-88076693D01*
X168586668Y-87983984D01*
X168586789Y-87983803D01*
X168586796Y-87983794D01*
X168614185Y-87942963D01*
X168651721Y-87887008D01*
X168672276Y-87846242D01*
X168706269Y-87778826D01*
X168706272Y-87778819D01*
X168706461Y-87778444D01*
X168748507Y-87650968D01*
X168775480Y-87497261D01*
X168784435Y-87321105D01*
X168788278Y-87313017D01*
X168796120Y-87310000D01*
X169023880Y-87310000D01*
X169032153Y-87313427D01*
G37*
G04 #@! TD.AperFunction*
M02*
