M48
; DRILL file {KiCad (6.0.7)} date Thu Feb 16 08:52:18 2023
; FORMAT={-:-/ absolute / metric / decimal}
; #@! TF.CreationDate,2023-02-16T08:52:18+02:00
; #@! TF.GenerationSoftware,Kicad,Pcbnew,(6.0.7)
; #@! TF.FileFunction,Plated,1,2,PTH
FMAT,2
METRIC
; #@! TA.AperFunction,Plated,PTH,ComponentDrill
T1C0.800
; #@! TA.AperFunction,Plated,PTH,ComponentDrill
T2C0.900
; #@! TA.AperFunction,Plated,PTH,ComponentDrill
T3C1.100
; #@! TA.AperFunction,Plated,PTH,ComponentDrill
T4C1.300
; #@! TA.AperFunction,Plated,PTH,ComponentDrill
T5C3.200
%
G90
G05
T1
X101.6Y-80.01
X101.6Y-83.82
X101.6Y-109.22
X101.6Y-113.03
X116.84Y-80.01
X116.84Y-83.82
X116.84Y-109.22
X116.84Y-113.03
X129.54Y-93.98
X129.54Y-99.06
X129.54Y-104.14
X129.54Y-109.22
X144.78Y-93.98
X144.78Y-99.06
X144.78Y-104.14
X144.78Y-109.22
T2
X106.68Y-91.44
X106.68Y-93.98
X106.68Y-99.06
X106.68Y-101.6
X116.84Y-91.44
X116.84Y-93.98
X116.84Y-99.06
X116.84Y-101.6
T3
X158.75Y-88.9
X158.75Y-104.14
X161.29Y-88.9
X161.29Y-104.14
X163.83Y-88.9
X163.83Y-104.14
X166.37Y-88.9
X166.37Y-104.14
X168.91Y-88.9
X168.91Y-104.14
X171.45Y-88.9
X171.45Y-104.14
X173.99Y-88.9
X173.99Y-104.14
X176.53Y-88.9
X176.53Y-104.14
X179.07Y-88.9
X179.07Y-104.14
X181.61Y-88.9
X181.61Y-104.14
X184.15Y-88.9
X184.15Y-104.14
X186.69Y-88.9
X186.69Y-104.14
X189.23Y-88.9
X189.23Y-104.14
X191.77Y-88.9
X191.77Y-104.14
T4
X114.655Y-57.15
X119.735Y-57.15
X124.815Y-57.15
X127.0Y-132.08
X129.895Y-57.15
X132.08Y-132.08
X134.975Y-57.15
X137.16Y-132.08
X140.055Y-57.15
X142.24Y-132.08
X145.135Y-57.15
X147.32Y-132.08
X150.215Y-57.15
X152.4Y-132.08
X155.295Y-57.15
X160.375Y-57.15
X165.455Y-57.15
X170.535Y-57.15
X175.615Y-57.15
X180.695Y-57.15
T5
X104.14Y-57.15
X104.14Y-132.089
X190.5Y-57.15
X190.5Y-132.08
T0
M30
