G04 #@! TF.GenerationSoftware,KiCad,Pcbnew,(6.0.7)*
G04 #@! TF.CreationDate,2023-02-16T08:52:03+02:00*
G04 #@! TF.ProjectId,teensy_motor_controller,7465656e-7379-45f6-9d6f-746f725f636f,rev?*
G04 #@! TF.SameCoordinates,Original*
G04 #@! TF.FileFunction,Copper,L2,Bot*
G04 #@! TF.FilePolarity,Positive*
%FSLAX46Y46*%
G04 Gerber Fmt 4.6, Leading zero omitted, Abs format (unit mm)*
G04 Created by KiCad (PCBNEW (6.0.7)) date 2023-02-16 08:52:03*
%MOMM*%
%LPD*%
G01*
G04 APERTURE LIST*
G04 #@! TA.AperFunction,ComponentPad*
%ADD10C,1.600000*%
G04 #@! TD*
G04 #@! TA.AperFunction,ComponentPad*
%ADD11O,1.600000X1.600000*%
G04 #@! TD*
G04 #@! TA.AperFunction,ComponentPad*
%ADD12R,1.950000X1.950000*%
G04 #@! TD*
G04 #@! TA.AperFunction,ComponentPad*
%ADD13C,1.950000*%
G04 #@! TD*
G04 #@! TA.AperFunction,ComponentPad*
%ADD14R,1.800000X1.800000*%
G04 #@! TD*
G04 #@! TA.AperFunction,ComponentPad*
%ADD15C,1.800000*%
G04 #@! TD*
G04 #@! TA.AperFunction,ComponentPad*
%ADD16C,6.400000*%
G04 #@! TD*
G04 #@! TA.AperFunction,Conductor*
%ADD17C,0.250000*%
G04 #@! TD*
G04 APERTURE END LIST*
D10*
X144780000Y-109220000D03*
D11*
X129540000Y-109220000D03*
D10*
X101600000Y-113030000D03*
D11*
X116840000Y-113030000D03*
D10*
X101600000Y-83820000D03*
D11*
X116840000Y-83820000D03*
D10*
X144780000Y-93980000D03*
D11*
X129540000Y-93980000D03*
D12*
X127000000Y-132080000D03*
D13*
X132080000Y-132080000D03*
X137160000Y-132080000D03*
X142240000Y-132080000D03*
X147320000Y-132080000D03*
X152400000Y-132080000D03*
D10*
X101600000Y-109220000D03*
D11*
X116840000Y-109220000D03*
D14*
X106680000Y-101600000D03*
D15*
X106680000Y-99060000D03*
D10*
X101600000Y-80010000D03*
D11*
X116840000Y-80010000D03*
D14*
X106680000Y-91440000D03*
D15*
X106680000Y-93980000D03*
D12*
X114655000Y-57150000D03*
D13*
X119735000Y-57150000D03*
X124815000Y-57150000D03*
X129895000Y-57150000D03*
X134975000Y-57150000D03*
X140055000Y-57150000D03*
X145135000Y-57150000D03*
X150215000Y-57150000D03*
X155295000Y-57150000D03*
X160375000Y-57150000D03*
X165455000Y-57150000D03*
X170535000Y-57150000D03*
X175615000Y-57150000D03*
X180695000Y-57150000D03*
D10*
X129540000Y-104140000D03*
D11*
X144780000Y-104140000D03*
D16*
X190500000Y-132080000D03*
D14*
X116840000Y-91440000D03*
D15*
X116840000Y-93980000D03*
D14*
X116840000Y-101600000D03*
D15*
X116840000Y-99060000D03*
D10*
X189230000Y-88900000D03*
X186690000Y-88900000D03*
X184150000Y-88900000D03*
X181610000Y-88900000D03*
X186690000Y-104140000D03*
X179070000Y-88900000D03*
X176530000Y-88900000D03*
X173990000Y-88900000D03*
X171450000Y-88900000D03*
X168910000Y-88900000D03*
X166370000Y-88900000D03*
X163830000Y-88900000D03*
X161290000Y-88900000D03*
X158750000Y-88900000D03*
X158750000Y-104140000D03*
X161290000Y-104140000D03*
X163830000Y-104140000D03*
X166370000Y-104140000D03*
X168910000Y-104140000D03*
X171450000Y-104140000D03*
X173990000Y-104140000D03*
X176530000Y-104140000D03*
X179070000Y-104140000D03*
X181610000Y-104140000D03*
X184150000Y-104140000D03*
X191770000Y-88900000D03*
X189230000Y-104140000D03*
X191770000Y-104140000D03*
D16*
X104140000Y-132089057D03*
D10*
X129540000Y-99060000D03*
D11*
X144780000Y-99060000D03*
D16*
X190500000Y-57150000D03*
X104140000Y-57150000D03*
D17*
X159200000Y-106230000D02*
X161290000Y-104140000D01*
X119634000Y-99060000D02*
X123444000Y-102870000D01*
X125280000Y-106230000D02*
X159200000Y-106230000D01*
X123444000Y-102870000D02*
X123444000Y-104394000D01*
X116840000Y-99060000D02*
X119634000Y-99060000D01*
X123444000Y-104394000D02*
X125280000Y-106230000D01*
X163830000Y-102362000D02*
X163068000Y-101600000D01*
X120396000Y-93980000D02*
X116840000Y-93980000D01*
X163068000Y-101600000D02*
X128016000Y-101600000D01*
X163830000Y-104140000D02*
X163830000Y-102362000D01*
X128016000Y-101600000D02*
X120396000Y-93980000D01*
X106680000Y-99060000D02*
X108458000Y-99060000D01*
X111506000Y-106680000D02*
X163830000Y-106680000D01*
X110998000Y-101600000D02*
X110998000Y-106172000D01*
X163830000Y-106680000D02*
X166370000Y-104140000D01*
X110998000Y-106172000D02*
X111506000Y-106680000D01*
X108458000Y-99060000D02*
X110998000Y-101600000D01*
X168910000Y-104140000D02*
X165920000Y-107130000D01*
X103632000Y-104140000D02*
X103632000Y-94488000D01*
X106622000Y-107130000D02*
X103632000Y-104140000D01*
X104140000Y-93980000D02*
X106680000Y-93980000D01*
X103632000Y-94488000D02*
X104140000Y-93980000D01*
X165920000Y-107130000D02*
X106622000Y-107130000D01*
X101600000Y-80010000D02*
X101600000Y-71628000D01*
X105156000Y-68072000D02*
X177546000Y-68072000D01*
X101600000Y-71628000D02*
X105156000Y-68072000D01*
X177546000Y-68072000D02*
X180695000Y-64923000D01*
X180695000Y-64923000D02*
X180695000Y-57150000D01*
G04 #@! TA.AperFunction,Conductor*
G36*
X180703433Y-56671269D02*
G01*
X181566546Y-57568801D01*
X181569811Y-57577140D01*
X181568377Y-57582527D01*
X181472176Y-57758357D01*
X181471593Y-57759311D01*
X181368822Y-57910762D01*
X181368311Y-57911459D01*
X181265770Y-58040850D01*
X181265507Y-58041170D01*
X181166248Y-58157696D01*
X181073531Y-58270364D01*
X180990632Y-58388202D01*
X180920689Y-58520398D01*
X180866844Y-58676138D01*
X180832234Y-58864609D01*
X180832214Y-58864986D01*
X180820588Y-59083920D01*
X180816727Y-59092000D01*
X180808904Y-59095000D01*
X180581096Y-59095000D01*
X180572823Y-59091573D01*
X180569412Y-59083920D01*
X180557785Y-58864986D01*
X180557765Y-58864609D01*
X180523155Y-58676138D01*
X180469310Y-58520398D01*
X180399367Y-58388202D01*
X180316468Y-58270364D01*
X180223751Y-58157696D01*
X180124492Y-58041170D01*
X180124229Y-58040850D01*
X180021688Y-57911459D01*
X180021177Y-57910762D01*
X179918406Y-57759311D01*
X179917823Y-57758357D01*
X179821623Y-57582527D01*
X179820658Y-57573624D01*
X179823454Y-57568801D01*
X180686567Y-56671269D01*
X180694771Y-56667681D01*
X180703433Y-56671269D01*
G37*
G04 #@! TD.AperFunction*
G04 #@! TA.AperFunction,Conductor*
G36*
X169189016Y-103860661D02*
G01*
X169192604Y-103869323D01*
X169172707Y-104887130D01*
X169169119Y-104895334D01*
X169164326Y-104898121D01*
X169010564Y-104943581D01*
X169009545Y-104943833D01*
X168889380Y-104967902D01*
X168864542Y-104972877D01*
X168863759Y-104973005D01*
X168731477Y-104990205D01*
X168731164Y-104990241D01*
X168608072Y-105002404D01*
X168490908Y-105016349D01*
X168376337Y-105038922D01*
X168260864Y-105076982D01*
X168140994Y-105137390D01*
X168013234Y-105227004D01*
X167936847Y-105296001D01*
X167882341Y-105345233D01*
X167873905Y-105348236D01*
X167866226Y-105344824D01*
X167705176Y-105183774D01*
X167701749Y-105175501D01*
X167704766Y-105167660D01*
X167822995Y-105036765D01*
X167855656Y-104990202D01*
X167912369Y-104909347D01*
X167912609Y-104909005D01*
X167973017Y-104789135D01*
X168011077Y-104673662D01*
X168033650Y-104559091D01*
X168047595Y-104441927D01*
X168059758Y-104318835D01*
X168059797Y-104318496D01*
X168076993Y-104186243D01*
X168077123Y-104185454D01*
X168106166Y-104040454D01*
X168106418Y-104039435D01*
X168151879Y-103885674D01*
X168157511Y-103878712D01*
X168162870Y-103877293D01*
X169180677Y-103857396D01*
X169189016Y-103860661D01*
G37*
G04 #@! TD.AperFunction*
G04 #@! TA.AperFunction,Conductor*
G36*
X106293884Y-93175947D02*
G01*
X107121231Y-93971567D01*
X107124819Y-93979771D01*
X107121231Y-93988433D01*
X106293885Y-94784053D01*
X106285547Y-94787317D01*
X106280169Y-94785888D01*
X106119619Y-94698222D01*
X106118682Y-94697652D01*
X105979668Y-94603855D01*
X105978986Y-94603358D01*
X105923964Y-94560148D01*
X105860006Y-94509919D01*
X105859738Y-94509701D01*
X105752399Y-94419348D01*
X105648704Y-94335194D01*
X105648696Y-94335188D01*
X105648537Y-94335059D01*
X105539901Y-94259765D01*
X105476848Y-94226903D01*
X105418510Y-94196498D01*
X105418504Y-94196496D01*
X105418108Y-94196289D01*
X105417685Y-94196145D01*
X105417683Y-94196144D01*
X105275195Y-94147596D01*
X105275194Y-94147596D01*
X105274781Y-94147455D01*
X105274356Y-94147378D01*
X105274352Y-94147377D01*
X105203052Y-94134466D01*
X105101538Y-94116084D01*
X104901088Y-94105581D01*
X104893005Y-94101726D01*
X104890000Y-94093897D01*
X104890000Y-93866103D01*
X104893427Y-93857830D01*
X104901088Y-93854419D01*
X104916582Y-93853607D01*
X105101538Y-93843915D01*
X105203052Y-93825533D01*
X105274352Y-93812622D01*
X105274356Y-93812621D01*
X105274781Y-93812544D01*
X105275195Y-93812403D01*
X105417683Y-93763855D01*
X105417685Y-93763854D01*
X105418108Y-93763710D01*
X105418504Y-93763503D01*
X105418510Y-93763501D01*
X105476848Y-93733096D01*
X105539901Y-93700234D01*
X105648537Y-93624940D01*
X105648696Y-93624811D01*
X105648704Y-93624805D01*
X105752399Y-93540651D01*
X105859738Y-93450298D01*
X105860006Y-93450080D01*
X105923964Y-93399851D01*
X105978986Y-93356641D01*
X105979668Y-93356144D01*
X106118682Y-93262347D01*
X106119619Y-93261777D01*
X106280169Y-93174112D01*
X106289072Y-93173155D01*
X106293884Y-93175947D01*
G37*
G04 #@! TD.AperFunction*
G04 #@! TA.AperFunction,Conductor*
G36*
X101722153Y-78423427D02*
G01*
X101725564Y-78431105D01*
X101734519Y-78607261D01*
X101761492Y-78760968D01*
X101803538Y-78888444D01*
X101803727Y-78888819D01*
X101803730Y-78888826D01*
X101837723Y-78956242D01*
X101858278Y-78997008D01*
X101895814Y-79052963D01*
X101923203Y-79093794D01*
X101923210Y-79093803D01*
X101923331Y-79093984D01*
X101996317Y-79186693D01*
X101996349Y-79186732D01*
X102074757Y-79282334D01*
X102074981Y-79282617D01*
X102156326Y-79388277D01*
X102156792Y-79388927D01*
X102238789Y-79511998D01*
X102239331Y-79512897D01*
X102315909Y-79653764D01*
X102316850Y-79662669D01*
X102314063Y-79667462D01*
X101608433Y-80401231D01*
X101600229Y-80404819D01*
X101591567Y-80401231D01*
X100885937Y-79667462D01*
X100882672Y-79659123D01*
X100884091Y-79653764D01*
X100960669Y-79512896D01*
X100961211Y-79511997D01*
X101043207Y-79388927D01*
X101043673Y-79388277D01*
X101125018Y-79282617D01*
X101125242Y-79282334D01*
X101203650Y-79186732D01*
X101203682Y-79186693D01*
X101276668Y-79093984D01*
X101276789Y-79093803D01*
X101276796Y-79093794D01*
X101304185Y-79052963D01*
X101341721Y-78997008D01*
X101362276Y-78956242D01*
X101396269Y-78888826D01*
X101396272Y-78888819D01*
X101396461Y-78888444D01*
X101438507Y-78760968D01*
X101465480Y-78607261D01*
X101474435Y-78431105D01*
X101478278Y-78423017D01*
X101486120Y-78420000D01*
X101713880Y-78420000D01*
X101722153Y-78423427D01*
G37*
G04 #@! TD.AperFunction*
G04 #@! TA.AperFunction,Conductor*
G36*
X161569016Y-103860661D02*
G01*
X161572604Y-103869323D01*
X161552707Y-104887130D01*
X161549119Y-104895334D01*
X161544326Y-104898121D01*
X161390564Y-104943581D01*
X161389545Y-104943833D01*
X161269380Y-104967902D01*
X161244542Y-104972877D01*
X161243759Y-104973005D01*
X161111477Y-104990205D01*
X161111164Y-104990241D01*
X160988072Y-105002404D01*
X160870908Y-105016349D01*
X160756337Y-105038922D01*
X160640864Y-105076982D01*
X160520994Y-105137390D01*
X160393234Y-105227004D01*
X160316847Y-105296001D01*
X160262341Y-105345233D01*
X160253905Y-105348236D01*
X160246226Y-105344824D01*
X160085176Y-105183774D01*
X160081749Y-105175501D01*
X160084766Y-105167660D01*
X160202995Y-105036765D01*
X160235656Y-104990202D01*
X160292369Y-104909347D01*
X160292609Y-104909005D01*
X160353017Y-104789135D01*
X160391077Y-104673662D01*
X160413650Y-104559091D01*
X160427595Y-104441927D01*
X160439758Y-104318835D01*
X160439797Y-104318496D01*
X160456993Y-104186243D01*
X160457123Y-104185454D01*
X160486166Y-104040454D01*
X160486418Y-104039435D01*
X160531879Y-103885674D01*
X160537511Y-103878712D01*
X160542870Y-103877293D01*
X161560677Y-103857396D01*
X161569016Y-103860661D01*
G37*
G04 #@! TD.AperFunction*
G04 #@! TA.AperFunction,Conductor*
G36*
X117239831Y-93174112D02*
G01*
X117400380Y-93261777D01*
X117401317Y-93262347D01*
X117540331Y-93356144D01*
X117541013Y-93356641D01*
X117596035Y-93399851D01*
X117659993Y-93450080D01*
X117660261Y-93450298D01*
X117767600Y-93540651D01*
X117871295Y-93624805D01*
X117871303Y-93624811D01*
X117871462Y-93624940D01*
X117980098Y-93700234D01*
X118043151Y-93733096D01*
X118101489Y-93763501D01*
X118101495Y-93763503D01*
X118101891Y-93763710D01*
X118102314Y-93763854D01*
X118102316Y-93763855D01*
X118244804Y-93812403D01*
X118245218Y-93812544D01*
X118245643Y-93812621D01*
X118245647Y-93812622D01*
X118316947Y-93825533D01*
X118418461Y-93843915D01*
X118604626Y-93853670D01*
X118618912Y-93854419D01*
X118626995Y-93858274D01*
X118630000Y-93866103D01*
X118630000Y-94093897D01*
X118626573Y-94102170D01*
X118618912Y-94105581D01*
X118418461Y-94116084D01*
X118316947Y-94134466D01*
X118245647Y-94147377D01*
X118245643Y-94147378D01*
X118245218Y-94147455D01*
X118244805Y-94147596D01*
X118244804Y-94147596D01*
X118102316Y-94196144D01*
X118102314Y-94196145D01*
X118101891Y-94196289D01*
X118101495Y-94196496D01*
X118101489Y-94196498D01*
X118043151Y-94226903D01*
X117980098Y-94259765D01*
X117871462Y-94335059D01*
X117871303Y-94335188D01*
X117871295Y-94335194D01*
X117767600Y-94419348D01*
X117660261Y-94509701D01*
X117659993Y-94509919D01*
X117596035Y-94560148D01*
X117541013Y-94603358D01*
X117540331Y-94603855D01*
X117401317Y-94697652D01*
X117400380Y-94698222D01*
X117239831Y-94785888D01*
X117230928Y-94786845D01*
X117226116Y-94784053D01*
X116398769Y-93988433D01*
X116395181Y-93980229D01*
X116398769Y-93971567D01*
X117226115Y-93175947D01*
X117234453Y-93172683D01*
X117239831Y-93174112D01*
G37*
G04 #@! TD.AperFunction*
G04 #@! TA.AperFunction,Conductor*
G36*
X117239831Y-98254112D02*
G01*
X117400380Y-98341777D01*
X117401317Y-98342347D01*
X117540331Y-98436144D01*
X117541013Y-98436641D01*
X117596035Y-98479851D01*
X117659993Y-98530080D01*
X117660261Y-98530298D01*
X117767600Y-98620651D01*
X117871295Y-98704805D01*
X117871303Y-98704811D01*
X117871462Y-98704940D01*
X117980098Y-98780234D01*
X118043151Y-98813096D01*
X118101489Y-98843501D01*
X118101495Y-98843503D01*
X118101891Y-98843710D01*
X118102314Y-98843854D01*
X118102316Y-98843855D01*
X118244804Y-98892403D01*
X118245218Y-98892544D01*
X118245643Y-98892621D01*
X118245647Y-98892622D01*
X118316947Y-98905533D01*
X118418461Y-98923915D01*
X118604626Y-98933670D01*
X118618912Y-98934419D01*
X118626995Y-98938274D01*
X118630000Y-98946103D01*
X118630000Y-99173897D01*
X118626573Y-99182170D01*
X118618912Y-99185581D01*
X118418461Y-99196084D01*
X118316947Y-99214466D01*
X118245647Y-99227377D01*
X118245643Y-99227378D01*
X118245218Y-99227455D01*
X118244805Y-99227596D01*
X118244804Y-99227596D01*
X118102316Y-99276144D01*
X118102314Y-99276145D01*
X118101891Y-99276289D01*
X118101495Y-99276496D01*
X118101489Y-99276498D01*
X118043151Y-99306903D01*
X117980098Y-99339765D01*
X117871462Y-99415059D01*
X117871303Y-99415188D01*
X117871295Y-99415194D01*
X117767600Y-99499348D01*
X117660261Y-99589701D01*
X117659993Y-99589919D01*
X117596035Y-99640148D01*
X117541013Y-99683358D01*
X117540331Y-99683855D01*
X117401317Y-99777652D01*
X117400380Y-99778222D01*
X117239831Y-99865888D01*
X117230928Y-99866845D01*
X117226116Y-99864053D01*
X116398769Y-99068433D01*
X116395181Y-99060229D01*
X116398769Y-99051567D01*
X117226115Y-98255947D01*
X117234453Y-98252683D01*
X117239831Y-98254112D01*
G37*
G04 #@! TD.AperFunction*
G04 #@! TA.AperFunction,Conductor*
G36*
X166649016Y-103860661D02*
G01*
X166652604Y-103869323D01*
X166632707Y-104887130D01*
X166629119Y-104895334D01*
X166624326Y-104898121D01*
X166470564Y-104943581D01*
X166469545Y-104943833D01*
X166349380Y-104967902D01*
X166324542Y-104972877D01*
X166323759Y-104973005D01*
X166191477Y-104990205D01*
X166191164Y-104990241D01*
X166068072Y-105002404D01*
X165950908Y-105016349D01*
X165836337Y-105038922D01*
X165720864Y-105076982D01*
X165600994Y-105137390D01*
X165473234Y-105227004D01*
X165396847Y-105296001D01*
X165342341Y-105345233D01*
X165333905Y-105348236D01*
X165326226Y-105344824D01*
X165165176Y-105183774D01*
X165161749Y-105175501D01*
X165164766Y-105167660D01*
X165282995Y-105036765D01*
X165315656Y-104990202D01*
X165372369Y-104909347D01*
X165372609Y-104909005D01*
X165433017Y-104789135D01*
X165471077Y-104673662D01*
X165493650Y-104559091D01*
X165507595Y-104441927D01*
X165519758Y-104318835D01*
X165519797Y-104318496D01*
X165536993Y-104186243D01*
X165537123Y-104185454D01*
X165566166Y-104040454D01*
X165566418Y-104039435D01*
X165611879Y-103885674D01*
X165617511Y-103878712D01*
X165622870Y-103877293D01*
X166640677Y-103857396D01*
X166649016Y-103860661D01*
G37*
G04 #@! TD.AperFunction*
G04 #@! TA.AperFunction,Conductor*
G36*
X107322722Y-98428968D02*
G01*
X107442034Y-98530147D01*
X107563582Y-98599864D01*
X107564063Y-98600036D01*
X107682114Y-98642251D01*
X107682118Y-98642252D01*
X107682484Y-98642383D01*
X107682864Y-98642463D01*
X107682869Y-98642465D01*
X107800011Y-98667296D01*
X107800018Y-98667297D01*
X107800182Y-98667332D01*
X107800361Y-98667358D01*
X107800362Y-98667358D01*
X107918016Y-98684322D01*
X107918152Y-98684342D01*
X108037260Y-98702951D01*
X108038221Y-98703143D01*
X108159704Y-98732833D01*
X108161253Y-98733330D01*
X108206012Y-98751237D01*
X108286898Y-98783599D01*
X108288654Y-98784479D01*
X108420329Y-98864968D01*
X108421878Y-98866099D01*
X108552425Y-98978941D01*
X108556443Y-98986944D01*
X108553047Y-98996066D01*
X108392482Y-99156631D01*
X108384209Y-99160058D01*
X108377014Y-99157584D01*
X108237197Y-99048553D01*
X108237198Y-99048553D01*
X108236347Y-99047890D01*
X108166844Y-99026772D01*
X108104504Y-99007830D01*
X108104503Y-99007830D01*
X108103167Y-99007424D01*
X108054124Y-99016406D01*
X107982321Y-99029555D01*
X107982320Y-99029556D01*
X107981225Y-99029756D01*
X107980281Y-99030349D01*
X107980279Y-99030350D01*
X107866637Y-99101766D01*
X107866633Y-99101769D01*
X107866116Y-99102094D01*
X107753436Y-99211649D01*
X107753265Y-99211849D01*
X107638797Y-99345607D01*
X107638779Y-99345629D01*
X107638743Y-99345672D01*
X107638733Y-99345684D01*
X107517910Y-99491043D01*
X107517555Y-99491450D01*
X107386338Y-99635247D01*
X107385463Y-99636111D01*
X107239644Y-99765566D01*
X107238064Y-99766745D01*
X107080030Y-99865185D01*
X107071197Y-99866650D01*
X107065735Y-99863687D01*
X106241142Y-99070715D01*
X106237554Y-99062511D01*
X106240819Y-99054172D01*
X106243338Y-99052187D01*
X107309240Y-98427796D01*
X107318111Y-98426571D01*
X107322722Y-98428968D01*
G37*
G04 #@! TD.AperFunction*
G04 #@! TA.AperFunction,Conductor*
G36*
X163952153Y-102553427D02*
G01*
X163955564Y-102561105D01*
X163964519Y-102737261D01*
X163991492Y-102890968D01*
X164033538Y-103018444D01*
X164033727Y-103018819D01*
X164033730Y-103018826D01*
X164067723Y-103086242D01*
X164088278Y-103127008D01*
X164125814Y-103182963D01*
X164153203Y-103223794D01*
X164153210Y-103223803D01*
X164153331Y-103223984D01*
X164226317Y-103316693D01*
X164226349Y-103316732D01*
X164304757Y-103412334D01*
X164304981Y-103412617D01*
X164386326Y-103518277D01*
X164386792Y-103518927D01*
X164468789Y-103641998D01*
X164469331Y-103642897D01*
X164545909Y-103783764D01*
X164546850Y-103792669D01*
X164544063Y-103797462D01*
X163838433Y-104531231D01*
X163830229Y-104534819D01*
X163821567Y-104531231D01*
X163115937Y-103797462D01*
X163112672Y-103789123D01*
X163114091Y-103783764D01*
X163190669Y-103642896D01*
X163191211Y-103641997D01*
X163273207Y-103518927D01*
X163273673Y-103518277D01*
X163355018Y-103412617D01*
X163355242Y-103412334D01*
X163433650Y-103316732D01*
X163433682Y-103316693D01*
X163506668Y-103223984D01*
X163506789Y-103223803D01*
X163506796Y-103223794D01*
X163534185Y-103182963D01*
X163571721Y-103127008D01*
X163592276Y-103086242D01*
X163626269Y-103018826D01*
X163626272Y-103018819D01*
X163626461Y-103018444D01*
X163668507Y-102890968D01*
X163695480Y-102737261D01*
X163704435Y-102561105D01*
X163708278Y-102553017D01*
X163716120Y-102550000D01*
X163943880Y-102550000D01*
X163952153Y-102553427D01*
G37*
G04 #@! TD.AperFunction*
M02*
